<svg width="228" height="218" viewBox="0 0 228 218" fill="none" xmlns="http://www.w3.org/2000/svg">
<path d="M213 105C213 78.4784 202.517 53.043 183.857 34.2893C165.197 15.5357 139.889 5 113.5 5C87.111 5 61.8028 15.5357 43.1429 34.2893C24.483 53.0429 14 78.4783 14 105" stroke="url(#paint0_linear_6481_11128)" stroke-width="10"/>
<path d="M14 113C14 139.522 24.483 164.957 43.1429 183.711C61.8027 202.464 87.111 213 113.5 213C139.889 213 165.197 202.464 183.857 183.711C202.517 164.957 213 139.522 213 113" stroke="url(#paint1_linear_6481_11128)" stroke-width="10"/>
<path d="M25.106 105.553C25.106 108.036 24.3698 110.463 22.9904 112.527C21.611 114.592 19.6504 116.2 17.3566 117.151C15.0628 118.101 12.5387 118.349 10.1037 117.865C7.6686 117.38 5.43187 116.185 3.67634 114.429C1.92081 112.673 0.725334 110.436 0.241086 108.001C-0.243161 105.566 0.00557244 103.042 0.955833 100.748C1.90609 98.4547 3.5152 96.4943 5.57966 95.1151C7.64412 93.7359 10.0712 92.9998 12.554 93C14.2025 92.9999 15.8349 93.3245 17.358 93.9553C18.881 94.5861 20.2649 95.5107 21.4306 96.6764C22.5963 97.8421 23.5209 99.226 24.1517 100.749C24.7825 102.272 25.1061 103.904 25.106 105.553Z" fill="#1F4EAD"/>
<path d="M227.213 105.553C227.213 108.036 226.477 110.463 225.098 112.527C223.718 114.592 221.758 116.2 219.464 117.151C217.17 118.101 214.646 118.349 212.211 117.865C209.776 117.38 207.539 116.185 205.784 114.429C204.028 112.673 202.833 110.436 202.349 108.001C201.864 105.566 202.113 103.042 203.063 100.748C204.014 98.4547 205.623 96.4943 207.687 95.1151C209.752 93.7359 212.179 92.9998 214.661 93C216.31 92.9999 217.942 93.3245 219.465 93.9553C220.988 94.5861 222.372 95.5107 223.538 96.6764C224.704 97.8421 225.628 99.226 226.259 100.749C226.89 102.272 227.215 103.904 227.214 105.553" fill="#1F4EAD"/>
<defs>
<linearGradient id="paint0_linear_6481_11128" x1="241.5" y1="96" x2="117.396" y2="55.3163" gradientUnits="userSpaceOnUse">
<stop stop-color="#1F4EAD"/>
<stop offset="1" stop-color="#1F4EAD" stop-opacity="0.1"/>
</linearGradient>
<linearGradient id="paint1_linear_6481_11128" x1="-14.5" y1="122" x2="109.604" y2="162.684" gradientUnits="userSpaceOnUse">
<stop stop-color="#1F4EAD"/>
<stop offset="1" stop-color="#1F4EAD" stop-opacity="0.1"/>
</linearGradient>
</defs>
</svg>
