<svg width="205" height="197" viewBox="0 0 205 197" fill="none" xmlns="http://www.w3.org/2000/svg">
<path d="M204.999 99C204.999 96.6266 204.295 94.3065 202.977 92.3331C201.658 90.3597 199.784 88.8216 197.591 87.9134C195.399 87.0051 192.986 86.7676 190.658 87.2307C188.33 87.6938 186.192 88.8367 184.514 90.5151C182.836 92.1934 181.693 94.3317 181.23 96.6595C180.768 98.9873 181.005 101.4 181.914 103.593C182.822 105.786 184.36 107.66 186.334 108.978C188.307 110.297 190.627 111 193 111C194.576 111 196.137 110.69 197.593 110.087C199.049 109.484 200.371 108.6 201.486 107.486C202.6 106.371 203.484 105.048 204.087 103.592C204.69 102.136 204.999 100.576 204.999 99Z" fill="#2289F7"/>
<path d="M23.999 99C23.999 96.6266 23.2953 94.3065 21.9767 92.3331C20.6581 90.3597 18.784 88.8216 16.5913 87.9134C14.3986 87.0051 11.9859 86.7676 9.65818 87.2307C7.33048 87.6938 5.19237 88.8367 3.51424 90.5151C1.83612 92.1934 0.693352 94.3317 0.230456 96.6595C-0.23244 98.9873 0.00532674 101.4 0.913689 103.593C1.82205 105.786 3.36021 107.66 5.33364 108.978C7.30708 110.297 9.62716 111 12.0005 111C13.5763 111 15.1367 110.69 16.5926 110.087C18.0486 109.484 19.3714 108.6 20.4857 107.486C21.6 106.371 22.4839 105.048 23.0868 103.592C23.6898 102.136 23.9992 100.576 23.999 99Z" fill="#2289F7"/>
<path d="M10 98.5C10 73.9675 19.7455 50.4397 37.0926 33.0926C54.4397 15.7455 77.9675 6 102.5 6C127.033 6 150.56 15.7455 167.907 33.0926C185.254 50.4397 195 73.9675 195 98.5" stroke="url(#paint0_linear_7458_750)" stroke-width="11"/>
<path d="M195 98.5C195 123.033 185.254 146.56 167.907 163.907C150.56 181.254 127.033 191 102.5 191C77.9675 191 54.4397 181.254 37.0926 163.907C19.7455 146.56 10 123.033 10 98.5" stroke="url(#paint1_linear_7458_750)" stroke-width="11"/>
<defs>
<linearGradient id="paint0_linear_7458_750" x1="195" y1="99" x2="-18" y2="85" gradientUnits="userSpaceOnUse">
<stop stop-color="#2289F7"/>
<stop offset="1" stop-color="#C4C4C4" stop-opacity="0.06"/>
</linearGradient>
<linearGradient id="paint1_linear_7458_750" x1="10" y1="98" x2="223" y2="112" gradientUnits="userSpaceOnUse">
<stop stop-color="#2289F7"/>
<stop offset="1" stop-color="#C4C4C4" stop-opacity="0.06"/>
</linearGradient>
</defs>
</svg>
