<svg width="23" height="22" viewBox="0 0 23 22" fill="none" xmlns="http://www.w3.org/2000/svg">
<path d="M11.2227 6.44573C9.44569 6.44573 8 4.99996 8 3.22287C8 1.44578 9.44569 0 11.2227 0C12.9997 0 14.4454 1.44578 14.4454 3.22287C14.4454 4.99996 12.9997 6.44573 11.2227 6.44573ZM11.2227 1.28915C10.1565 1.28915 13.4485 0.894314 13.5763 3.22287C13.3826 5.6128 10.1565 5.15659 11.2227 5.15659C12.2889 5.15659 13.1563 4.28912 13.1563 3.22287C13.1563 2.15661 12.2889 1.28915 11.2227 1.28915Z" fill="#7C7C7C"/>
<path d="M3.22268 20.4457C1.44569 20.4457 0 19 0 17.2229C0 15.4458 1.44569 14 3.22268 14C4.99966 14 6.44535 15.4458 6.44535 17.2229C6.44535 19 4.99966 20.4457 3.22268 20.4457ZM3.22268 15.2891C2.15649 15.2891 5.44853 14.8943 5.57634 17.2229C5.38255 19.6128 2.15649 19.1566 3.22268 19.1566C4.28887 19.1566 5.15628 18.2891 5.15628 17.2229C5.15628 16.1566 4.28887 15.2891 3.22268 15.2891Z" fill="#7C7C7C"/>
<path d="M19.0039 20.4457C17.2269 20.4457 15.7812 19 15.7812 17.2229C15.7812 15.4458 17.2269 14 19.0039 14C20.7809 14 22.2266 15.4458 22.2266 17.2229C22.2266 19 20.7809 20.4457 19.0039 20.4457ZM19.0039 15.2891C17.9377 15.2891 21.2298 14.8943 21.3576 17.2229C21.1638 19.6128 17.9377 19.1566 19.0039 19.1566C20.0701 19.1566 20.9375 18.2891 20.9375 17.2229C20.9375 16.1566 20.0701 15.2891 19.0039 15.2891Z" fill="#7C7C7C"/>
<path d="M2.85745 11.8288L1.57031 11.758C1.65445 10.2299 2.10743 8.72622 2.88031 7.40953C3.63179 6.12924 4.68565 5.02182 5.92797 4.20703L6.6349 5.28502C4.41503 6.74098 3.0029 9.18726 2.85745 11.8288Z" fill="#7C7C7C"/>
<path d="M19.586 11.8288C19.4406 9.18726 18.0285 6.74098 15.8086 5.28502L16.5155 4.20703C17.7578 5.02182 18.8117 6.12919 19.5632 7.40953C20.3361 8.72622 20.789 10.2299 20.8732 11.758L19.586 11.8288Z" fill="#7C7C7C"/>
<path d="M11.2253 21.9988C9.69236 21.9988 8.22608 21.6503 6.86719 20.9629L7.44903 19.8125C8.62582 20.4078 9.89637 20.7096 11.2253 20.7096C12.5543 20.7096 13.8248 20.4078 15.0016 19.8125L15.5835 20.9629C14.2246 21.6503 12.7583 21.9988 11.2253 21.9988Z" fill="#7C7C7C"/>
</svg>
