<svg width="28" height="28" viewBox="0 0 28 28" fill="none" xmlns="http://www.w3.org/2000/svg">
<g id="g2343">
<g id="g2345">
<g id="Clip path group">
<mask id="mask0_3067_7841" style="mask-type:luminance" maskUnits="userSpaceOnUse" x="0" y="0" width="28" height="28">
<g id="clipPath2351">
<path id="path2349" d="M0 0H28V28H0V0Z" fill="white"/>
</g>
</mask>
<g mask="url(#mask0_3067_7841)">
<g id="g2347">
<g id="g2353">
<path id="path2355" d="M6.28906 22.8047H4.10156C2.28938 22.8047 0.820312 24.2738 0.820312 26.0859V27.1797H9.57031V26.0859C9.57031 24.2738 8.10124 22.8047 6.28906 22.8047Z" stroke="#1F4EAD" stroke-width="1.5" stroke-miterlimit="10" stroke-linecap="round" stroke-linejoin="round"/>
</g>
<g id="g2357">
<path id="path2359" d="M15.0938 6.28906H12.9062C11.0941 6.28906 9.625 7.75813 9.625 9.57031V10.6641H18.375V9.57031C18.375 7.75813 16.9059 6.28906 15.0938 6.28906Z" stroke="#1F4EAD" stroke-width="1.5" stroke-miterlimit="10" stroke-linecap="round" stroke-linejoin="round"/>
</g>
<g id="g2361">
<path id="path2363" d="M23.8984 22.8047H21.7109C19.8988 22.8047 18.4297 24.2738 18.4297 26.0859V27.1797H27.1797V26.0859C27.1797 24.2738 25.7106 22.8047 23.8984 22.8047Z" stroke="#1F4EAD" stroke-width="1.5" stroke-miterlimit="10" stroke-linecap="round" stroke-linejoin="round"/>
</g>
<g id="g2365">
<path id="path2367" d="M7.92969 20.0703C7.92969 21.5805 6.70545 22.8047 5.19531 22.8047C3.68517 22.8047 2.46094 21.5805 2.46094 20.0703C2.46094 18.5602 3.68517 17.3359 5.19531 17.3359C6.70545 17.3359 7.92969 18.5602 7.92969 20.0703Z" stroke="#1F4EAD" stroke-width="1.5" stroke-miterlimit="10" stroke-linecap="round" stroke-linejoin="round"/>
</g>
<g id="g2369">
<path id="path2371" d="M16.7344 3.55469C16.7344 5.06483 15.5101 6.28906 14 6.28906C12.4899 6.28906 11.2656 5.06483 11.2656 3.55469C11.2656 2.04455 12.4899 0.820312 14 0.820312C15.5101 0.820312 16.7344 2.04455 16.7344 3.55469Z" stroke="#1F4EAD" stroke-width="1.5" stroke-miterlimit="10" stroke-linecap="round" stroke-linejoin="round"/>
</g>
<g id="g2373">
<path id="path2375" d="M25.5391 20.0703C25.5391 21.5805 24.3148 22.8047 22.8047 22.8047C21.2945 22.8047 20.0703 21.5805 20.0703 20.0703C20.0703 18.5602 21.2945 17.3359 22.8047 17.3359C24.3148 17.3359 25.5391 18.5602 25.5391 20.0703Z" stroke="#1F4EAD" stroke-width="1.5" stroke-miterlimit="10" stroke-linecap="round" stroke-linejoin="round"/>
</g>
<g id="g2377">
<path id="path2379" d="M14 15.6953V10.6641" stroke="#1F4EAD" stroke-width="1.5" stroke-miterlimit="10" stroke-linecap="round" stroke-linejoin="round"/>
</g>
<g id="g2381">
<path id="path2383" d="M15.6406 17.3359C15.6406 18.242 14.9061 18.9766 14 18.9766C13.0939 18.9766 12.3594 18.242 12.3594 17.3359C12.3594 16.4299 13.0939 15.6953 14 15.6953C14.9061 15.6953 15.6406 16.4299 15.6406 17.3359Z" stroke="#1F4EAD" stroke-width="1.5" stroke-miterlimit="10" stroke-linecap="round" stroke-linejoin="round"/>
</g>
<g id="g2385">
<path id="path2387" d="M12.4302 17.8252L7.80469 19.2617" stroke="#1F4EAD" stroke-width="1.5" stroke-miterlimit="10" stroke-linecap="round" stroke-linejoin="round"/>
</g>
<g id="g2389">
<path id="path2391" d="M20.1919 19.2617L15.5664 17.8252" stroke="#1F4EAD" stroke-width="1.5" stroke-miterlimit="10" stroke-linecap="round" stroke-linejoin="round"/>
</g>
</g>
</g>
</g>
</g>
</g>
</svg>
