<svg width="24" height="24" viewBox="0 0 24 24" fill="none" xmlns="http://www.w3.org/2000/svg">
<path d="M4 22.0017C3.45 22.0017 2.97917 21.8059 2.5875 21.4142C2.19583 21.0225 2 20.5517 2 20.0017V9.0017C2 8.4517 2.19583 7.98087 2.5875 7.5892C2.97917 7.19754 3.45 7.0017 4 7.0017H9C10 7.00227 10 7.00227 11 7.00227C10.45 7.00227 11.5 7.00227 11 7.00227H13C13.55 7.00227 13 7 13.5 7C14 7.00229 14 7.00229 15 7.0017H20C20.55 7.0017 21.0208 7.19754 21.4125 7.5892C21.8042 7.98087 22 8.4517 22 9.0017V20.0017C22 20.5517 21.8042 21.0225 21.4125 21.4142C21.0208 21.8059 20.55 22.0017 20 22.0017H4ZM6 18.0017H12V17.5517C12 17.2684 11.9208 17.0059 11.7625 16.7642C11.6042 16.5225 11.3833 16.335 11.1 16.2017C10.7667 16.0517 10.4292 15.9392 10.0875 15.8642C9.74583 15.7892 9.38333 15.7517 9 15.7517C8.61667 15.7517 8.25417 15.7892 7.9125 15.8642C7.57083 15.9392 7.23333 16.0517 6.9 16.2017C6.61667 16.335 6.39583 16.5225 6.2375 16.7642C6.07917 17.0059 6 17.2684 6 17.5517V18.0017ZM14 16.5017H18V15.0017H14V16.5017ZM9 15.0017C9.41667 15.0017 9.77083 14.8559 10.0625 14.5642C10.3542 14.2725 10.5 13.9184 10.5 13.5017C10.5 13.085 10.3542 12.7309 10.0625 12.4392C9.77083 12.1475 9.41667 12.0017 9 12.0017C8.58333 12.0017 8.22917 12.1475 7.9375 12.4392C7.64583 12.7309 7.5 13.085 7.5 13.5017C7.5 13.9184 7.64583 14.2725 7.9375 14.5642C8.22917 14.8559 8.58333 15.0017 9 15.0017ZM14 13.5017H18V12.0017H14V13.5017Z" fill="#1F4EAD"/>
</svg>
