<svg width="24" height="24" viewBox="0 0 24 24" fill="none" xmlns="http://www.w3.org/2000/svg">
<g id="badge_FILL0_wght400_GRAD0_opsz24">
<path id="Vector" d="M4 22.0019C3.45 22.0019 2.97917 21.8061 2.5875 21.4144C2.19583 21.0227 2 20.5519 2 20.0019V9.00188C2 8.45188 2.19583 7.98105 2.5875 7.58938C2.97917 7.19772 3.45 7.00188 4 7.00188H9C11.5 7.00188 12.5 7.00188 13 7.00188C11.5 7 11.45 7 12 7L13 7.00188H13.118C13.668 7.00188 13 7.00188 13 7.00188C13.5 7.00188 13.5 7.00188 15 7.00188H20C20.55 7.00188 21.0208 7.19772 21.4125 7.58938C21.8042 7.98105 22 8.45188 22 9.00188V20.0019C22 20.5519 21.8042 21.0227 21.4125 21.4144C21.0208 21.8061 20.55 22.0019 20 22.0019H4ZM4 20.0019H20V9.00188H15C14 9 13.5 9 13 9C12.5 9 13.55 9 13 9H12H11C10.45 9 11.5 9 11 9C10.5 9 10 9 9 9.00188H4V20.0019ZM6 18.0019H12V17.5519C12 17.2686 11.9208 17.0061 11.7625 16.7644C11.6042 16.5227 11.3833 16.3352 11.1 16.2019C10.7667 16.0519 10.4292 15.9394 10.0875 15.8644C9.74583 15.7894 9.38333 15.7519 9 15.7519C8.61667 15.7519 8.25417 15.7894 7.9125 15.8644C7.57083 15.9394 7.23333 16.0519 6.9 16.2019C6.61667 16.3352 6.39583 16.5227 6.2375 16.7644C6.07917 17.0061 6 17.2686 6 17.5519V18.0019ZM14 16.5019H18V15.0019H14V16.5019ZM9 15.0019C9.41667 15.0019 9.77083 14.8561 10.0625 14.5644C10.3542 14.2727 10.5 13.9186 10.5 13.5019C10.5 13.0852 10.3542 12.7311 10.0625 12.4394C9.77083 12.1477 9.41667 12.0019 9 12.0019C8.58333 12.0019 8.22917 12.1477 7.9375 12.4394C7.64583 12.7311 7.5 13.0852 7.5 13.5019C7.5 13.9186 7.64583 14.2727 7.9375 14.5644C8.22917 14.8561 8.58333 15.0019 9 15.0019ZM14 13.5019H18V12.0019H14V13.5019Z" fill="#94A0AB"/>
</g>
</svg>
