<svg width="129" height="115" viewBox="0 0 129 115" fill="none" xmlns="http://www.w3.org/2000/svg">
<g id="fingerprint/cuate">
<g id="background-complete">
<path id="Vector" d="M19.6347 94.7394L13.5397 94.8253C11.4948 94.854 9.43163 94.8683 7.37456 94.8712H7.23438V94.7394V91.5339V91.3906H7.3898L13.5183 91.4107L16.5841 91.4365L19.6499 91.4708H19.717V91.531L19.6347 94.7394ZM19.6347 94.7394L19.5677 91.5339L19.6347 91.5969L16.5689 91.6313L13.5031 91.657L7.37456 91.6771L7.52389 91.5339V94.7394L7.3837 94.6076C9.41335 94.6076 11.4369 94.6248 13.4787 94.6534L19.6347 94.7394Z" fill="#EBEBEB"/>
<path id="Vector_2" d="M12.7953 95.5742H0.535156V98.7797H12.7953V95.5742Z" fill="#EBEBEB"/>
<path id="Vector_3" d="M78.9945 107.129H66.7344V110.334H78.9945V107.129Z" fill="#EBEBEB"/>
<path id="Vector_4" d="M127.545 68.5938H115.285V71.7993H127.545V68.5938Z" fill="#EBEBEB"/>
<path id="Vector_5" d="M94.0909 3.48548L87.9958 3.57141C85.951 3.60006 83.8878 3.61438 81.8277 3.61725H81.6875V3.48548V0.27995V0.136719H81.8399L87.9715 0.156772L91.0342 0.182553L94.1 0.216929H94.1671V0.277086L94.0909 3.48548ZM94.0909 3.48548L94.0269 0.277086L94.0909 0.340109L91.0251 0.374484L87.9623 0.400266L81.8307 0.420318L81.9831 0.277086V3.48261L81.8429 3.35084C83.8695 3.35084 85.8961 3.36803 87.938 3.39667L94.0909 3.48548Z" fill="#EBEBEB"/>
<path id="Vector_6" d="M100.928 4.32031H88.668V7.52584H100.928V4.32031Z" fill="#EBEBEB"/>
<path id="Vector_7" d="M12.794 3.48548L6.69898 3.57141C4.6541 3.60006 2.59093 3.61438 0.53081 3.61725H0.390625V3.48548V0.27995V0.136719H0.543001L6.6746 0.156772L9.7404 0.182553L12.7879 0.216929H12.855V0.277086L12.794 3.48548ZM12.794 3.48548L12.73 0.277086L12.794 0.340109L9.74649 0.374484L6.68069 0.400266L0.549095 0.420318L0.70147 0.277086V3.48261L0.561285 3.35084C2.58788 3.35084 4.61448 3.36803 6.65631 3.39667L12.794 3.48548Z" fill="#EBEBEB"/>
<path id="Vector_8" d="M68.1625 46.9883H55.9023V50.1938H68.1625V46.9883Z" fill="#EBEBEB"/>
<path id="Vector_9" d="M123.793 2.27344H103.195V25.7606H123.793V2.27344Z" fill="#EBEBEB"/>
<path id="Vector_10" d="M121.444 4.41797H105.551V23.6167H121.444V4.41797Z" fill="white"/>
<path id="Vector_11" d="M106.169 4.41797H105.551V23.6167H106.169V4.41797Z" fill="#C7C7C7"/>
<path id="Vector_12" d="M124.412 2.27344H123.793V25.7606H124.412V2.27344Z" fill="#C7C7C7"/>
<path id="Vector_13" d="M113.849 19.3477H117.598V8.8545H113.849V19.3477Z" fill="#EBEBEB"/>
<path id="Vector_14" d="M119.387 12.3491H109.09V6.90625H119.387V12.3491ZM109.395 12.0626H119.083V7.19271H109.395V12.0626Z" fill="#EBEBEB"/>
<path id="Vector_15" d="M123.793 60.1562H103.195V83.6434H123.793V60.1562Z" fill="#EBEBEB"/>
<path id="Vector_16" d="M121.444 62.3008H105.551V81.4995H121.444V62.3008Z" fill="white"/>
<path id="Vector_17" d="M106.169 62.3008H105.551V81.4995H106.169V62.3008Z" fill="#C7C7C7"/>
<path id="Vector_18" d="M124.412 60.1562H123.793V83.6434H124.412V60.1562Z" fill="#C7C7C7"/>
<path id="Vector_19" d="M114.627 66.7422H110.879V77.2353H114.627V66.7422Z" fill="#EBEBEB"/>
<path id="Vector_20" d="M119.387 70.2293H109.09V64.8008H119.387V70.2293ZM109.395 69.9428H119.083V65.0872H109.395V69.9428Z" fill="#EBEBEB"/>
<path id="Vector_21" d="M123.793 31.3203H103.195V54.8074H123.793V31.3203Z" fill="#EBEBEB"/>
<path id="Vector_22" d="M121.444 33.4648H105.551V52.6636H121.444V33.4648Z" fill="white"/>
<path id="Vector_23" d="M106.169 33.4648H105.551V52.6636H106.169V33.4648Z" fill="#C7C7C7"/>
<path id="Vector_24" d="M124.412 31.3203H123.793V54.8074H124.412V31.3203Z" fill="#C7C7C7"/>
<path id="Vector_25" d="M115.17 38.4258H111.961V46.0543H115.17V38.4258Z" fill="#EBEBEB"/>
<path id="Vector_26" d="M118.699 48.4639H109.77V42.918H118.699V48.4639ZM110.074 48.1774H118.394V43.2044H110.074V48.1774Z" fill="#DBDBDB"/>
</g>
<g id="Plant">
<path id="Vector_27" d="M11.5602 86.1426C16.6039 90.7976 17.4511 97.9592 16.3875 104.261C16.3601 104.405 16.1254 104.365 16.1254 104.233C16.1254 102.8 16.1711 101.368 16.165 99.9673C16.1376 99.9015 16.1163 99.8413 16.0888 99.7754C14.7723 98.8759 13.5594 97.859 12.8097 96.4668C11.9686 94.9084 11.6364 93.1524 10.9812 91.5253C10.9202 91.3706 11.097 91.4164 11.2128 91.4966C14.2816 93.6222 15.2599 95.911 16.1406 98.9704C16.1215 97.3713 15.9429 95.7773 15.6073 94.2094C14.943 91.3047 13.6325 88.4286 11.4139 86.2744C11.4047 86.2654 11.3975 86.2547 11.3927 86.2431C11.3879 86.2314 11.3855 86.219 11.3858 86.2065C11.3861 86.194 11.389 86.1816 11.3943 86.1702C11.3997 86.1587 11.4074 86.1484 11.417 86.1397C11.4266 86.1311 11.4379 86.1243 11.4503 86.1198C11.4627 86.1152 11.4759 86.113 11.4892 86.1133C11.5025 86.1136 11.5156 86.1163 11.5278 86.1213C11.54 86.1263 11.551 86.1336 11.5602 86.1426Z" fill="#263238"/>
<path id="Vector_28" d="M10.6128 86.6831C9.74421 86.7118 9.19871 88.0152 8.52216 88.4019C8.4511 88.4559 8.36877 88.4952 8.2805 88.5173C8.19224 88.5394 8.10001 88.5439 8.0098 88.5304C7.91958 88.5169 7.83339 88.4857 7.75681 88.4389C7.68023 88.3921 7.61496 88.3307 7.56524 88.2587C6.89479 87.3792 7.81514 86.2964 8.68063 85.6805C8.07113 85.9183 7.55 86.3394 6.8826 86.4568C6.79734 86.4836 6.70693 86.4928 6.61753 86.4838C6.52814 86.4748 6.44187 86.4477 6.36462 86.4045C6.28737 86.3613 6.22096 86.3028 6.16993 86.2333C6.11889 86.1637 6.08444 86.0846 6.06891 86.0013C5.76416 84.8039 7.3763 84.2825 8.4734 84.2453C7.94009 83.8958 6.41633 82.9505 7.22697 82.4864C8.03761 82.0223 9.83564 83.3716 10.4208 83.8156C11.2771 84.4716 12.3011 85.4485 12.3407 86.4711C12.3895 87.6685 11.2802 86.9352 10.6128 86.6831Z" fill="#1F4EAD"/>
<path id="Vector_29" opacity="0.1" d="M10.6128 86.6831C9.74421 86.7118 9.19871 88.0152 8.52216 88.4019C8.4511 88.4559 8.36877 88.4952 8.2805 88.5173C8.19224 88.5394 8.10001 88.5439 8.0098 88.5304C7.91958 88.5169 7.83339 88.4857 7.75681 88.4389C7.68023 88.3921 7.61496 88.3307 7.56524 88.2587C6.89479 87.3792 7.81514 86.2964 8.68063 85.6805C8.07113 85.9183 7.55 86.3394 6.8826 86.4568C6.79734 86.4836 6.70693 86.4928 6.61753 86.4838C6.52814 86.4748 6.44187 86.4477 6.36462 86.4045C6.28737 86.3613 6.22096 86.3028 6.16993 86.2333C6.11889 86.1637 6.08444 86.0846 6.06891 86.0013C5.76416 84.8039 7.3763 84.2825 8.4734 84.2453C7.94009 83.8958 6.41633 82.9505 7.22697 82.4864C8.03761 82.0223 9.83564 83.3716 10.4208 83.8156C11.2771 84.4716 12.3011 85.4485 12.3407 86.4711C12.3895 87.6685 11.2802 86.9352 10.6128 86.6831Z" fill="black"/>
<path id="Vector_30" d="M10.8653 86.8883C9.75605 86.4156 7.62583 87.0974 7.44298 86.7021C7.07728 85.9 8.7778 85.3471 9.69814 85.2411C8.85094 85.0263 7.22966 84.6825 7.27842 83.9148C7.33937 82.9781 9.76824 83.783 10.9964 84.6682C12.5445 85.7854 12.5201 86.8625 12.2763 87.0773C11.9289 87.3638 11.0482 86.9685 10.8653 86.8883Z" fill="#1F4EAD"/>
<path id="Vector_31" d="M23.0476 85.6891C17.8181 90.1464 16.6814 97.2908 17.489 103.616C17.5133 103.759 17.748 103.728 17.7541 103.596C17.812 102.164 17.8242 100.731 17.8851 99.3304C17.9156 99.2674 17.94 99.2073 17.9705 99.1442C19.3236 98.2848 20.573 97.3195 21.3806 95.953C22.2949 94.4262 22.685 92.6845 23.395 91.0832C23.4621 90.9285 23.2823 90.9686 23.1634 91.0431C20.0123 93.0483 18.9426 95.3114 17.94 98.3364C18.0223 96.7381 18.2652 95.1508 18.6653 93.5954C19.4455 90.7308 20.8717 87.892 23.1756 85.818C23.2609 85.7406 23.139 85.6088 23.0476 85.6891Z" fill="#263238"/>
<path id="Vector_32" d="M23.9711 86.2566C24.8366 86.3167 25.3273 87.6373 25.9855 88.0441C26.0542 88.1012 26.1349 88.1439 26.2223 88.1696C26.3098 88.1952 26.4021 88.2031 26.493 88.1928C26.584 88.1825 26.6716 88.1543 26.7501 88.1099C26.8286 88.0655 26.8963 88.006 26.9485 87.9353C27.6556 87.0759 26.7809 85.9644 25.9398 85.3285C26.5493 85.5891 27.043 86.0274 27.7043 86.1678C27.7885 86.1977 27.8786 86.2102 27.9684 86.2043C28.0582 86.1985 28.1456 86.1745 28.2246 86.134C28.3036 86.0934 28.3724 86.0373 28.4262 85.9695C28.48 85.9017 28.5175 85.8237 28.5363 85.741C28.8776 84.555 27.3173 83.9649 26.205 83.899C26.7505 83.5724 28.3138 82.6815 27.5215 82.1802C26.7291 81.6789 24.8793 82.9709 24.2759 83.3948C23.3921 84.0165 22.3316 84.9561 22.2523 85.973C22.1518 87.179 23.2915 86.4829 23.9711 86.2566Z" fill="#1F4EAD"/>
<path id="Vector_33" opacity="0.1" d="M23.9711 86.2566C24.8366 86.3167 25.3273 87.6373 25.9855 88.0441C26.0542 88.1012 26.1349 88.1439 26.2223 88.1696C26.3098 88.1952 26.4021 88.2031 26.493 88.1928C26.584 88.1825 26.6716 88.1543 26.7501 88.1099C26.8286 88.0655 26.8963 88.006 26.9485 87.9353C27.6556 87.0759 26.7809 85.9644 25.9398 85.3285C26.5493 85.5891 27.043 86.0274 27.7043 86.1678C27.7885 86.1977 27.8786 86.2102 27.9684 86.2043C28.0582 86.1985 28.1456 86.1745 28.2246 86.134C28.3036 86.0934 28.3724 86.0373 28.4262 85.9695C28.48 85.9017 28.5175 85.8237 28.5363 85.741C28.8776 84.555 27.3173 83.9649 26.205 83.899C26.7505 83.5724 28.3138 82.6815 27.5215 82.1802C26.7291 81.6789 24.8793 82.9709 24.2759 83.3948C23.3921 84.0165 22.3316 84.9561 22.2523 85.973C22.1518 87.179 23.2915 86.4829 23.9711 86.2566Z" fill="black"/>
<path id="Vector_34" d="M23.7172 86.4495C24.8448 86.0169 26.9446 86.7732 27.1426 86.3865C27.5419 85.5958 25.8627 84.9857 24.9484 84.8453C25.8048 84.662 27.4383 84.3755 27.42 83.6078C27.3956 82.6682 24.9393 83.3872 23.6746 84.2265C22.0838 85.2865 22.0502 86.3636 22.2971 86.587C22.6354 86.8964 23.5283 86.5211 23.7172 86.4495Z" fill="#1F4EAD"/>
<path id="Vector_35" d="M17.7177 97.4602C17.3631 99.8448 16.8201 102.201 16.0934 104.51C16.0833 104.556 16.0543 104.596 16.0129 104.621C15.9714 104.647 15.9209 104.656 15.8724 104.646C15.8239 104.637 15.7814 104.609 15.7543 104.57C15.7271 104.532 15.7176 104.484 15.7277 104.438C16.072 102.267 16.6968 100.141 17.0411 97.9615C17.4156 95.7639 17.5504 93.5361 17.4434 91.3127C17.2209 87.6546 16.1634 83.7587 13.6249 80.8969C13.567 80.8281 13.6858 80.7307 13.7437 80.7938C18.83 86.3712 18.0102 93.2062 18.0102 93.8193C18.7325 91.5104 19.473 88.8663 22.1975 86.5144C22.3164 86.4142 22.4078 86.4629 22.3865 86.6347C21.8989 90.9145 20.6342 93.1518 17.992 95.4406C17.9097 96.1167 17.8152 96.7927 17.7177 97.4602Z" fill="#263238"/>
<path id="Vector_36" d="M13.5581 81.5341C12.6438 81.1531 11.3822 82.2474 10.477 82.3247C9.99858 82.3648 9.64202 82.1872 9.56279 81.7231C9.33727 80.4942 10.8732 79.8038 12.0953 79.5833C11.3243 79.5374 10.5715 79.7322 9.81269 79.5403C9.70896 79.5287 9.60915 79.4961 9.52014 79.4447C9.43113 79.3933 9.35503 79.3244 9.29709 79.2427C9.23915 79.161 9.20074 79.0685 9.18453 78.9715C9.16832 78.8745 9.17468 78.7754 9.20318 78.6809C9.53841 77.3001 11.4858 77.5035 12.6377 77.9962C12.272 77.3832 11.1963 75.6816 12.2842 75.5814C13.3722 75.4811 14.518 77.7356 14.8868 78.4746C15.4262 79.5575 15.9626 81.0528 15.4567 82.1356C14.8777 83.3989 14.1188 82.1099 13.5581 81.5341Z" fill="#1F4EAD"/>
<path id="Vector_37" opacity="0.1" d="M13.5581 81.5341C12.6438 81.1531 11.3822 82.2474 10.477 82.3247C9.99858 82.3648 9.64202 82.1872 9.56279 81.7231C9.33727 80.4942 10.8732 79.8038 12.0953 79.5833C11.3243 79.5374 10.5715 79.7322 9.81269 79.5403C9.70896 79.5287 9.60915 79.4961 9.52014 79.4447C9.43113 79.3933 9.35503 79.3244 9.29709 79.2427C9.23915 79.161 9.20074 79.0685 9.18453 78.9715C9.16832 78.8745 9.17468 78.7754 9.20318 78.6809C9.53841 77.3001 11.4858 77.5035 12.6377 77.9962C12.272 77.3832 11.1963 75.6816 12.2842 75.5814C13.3722 75.4811 14.518 77.7356 14.8868 78.4746C15.4262 79.5575 15.9626 81.0528 15.4567 82.1356C14.8777 83.3989 14.1188 82.1099 13.5581 81.5341Z" fill="black"/>
<path id="Vector_38" d="M13.7147 81.8642C12.8004 80.8472 10.2405 80.5464 10.2619 80.0508C10.3106 79.0425 12.3738 79.2774 13.3856 79.6011C12.6237 78.9766 11.1243 77.8537 11.5845 77.0802C12.1513 76.1377 14.2389 78.1229 15.0373 79.6212C16.046 81.5118 15.4609 82.6233 15.08 82.7264C14.5558 82.8668 13.861 82.0303 13.7147 81.8642Z" fill="#1F4EAD"/>
<path id="Vector_39" d="M21.0466 98.7466L23.2896 114.86H9.63672C9.91709 113.428 12.4587 98.7266 12.4587 98.7266L21.0466 98.7466Z" fill="#1F4EAD"/>
</g>
<g id="Fingerprint">
<path id="Vector_40" d="M43.9236 48.6613C43.6294 47.7009 43.1736 46.7908 42.5736 45.9657C41.9505 45.1496 41.225 44.4071 40.4129 43.7542C37.1734 41.1044 32.7088 40.0789 28.488 40.351C26.5597 40.4606 24.6693 40.9024 22.911 41.6544C22.0542 42.03 21.2597 42.5202 20.5523 43.1097C19.897 43.6568 19.1595 44.33 18.8548 45.1149C18.845 45.1432 18.8453 45.1736 18.8555 45.2017C18.8657 45.2298 18.8853 45.254 18.9113 45.2708C18.9374 45.2876 18.9685 45.296 19.0001 45.2947C19.0316 45.2935 19.0619 45.2826 19.0864 45.2639C19.4734 44.9774 19.7995 44.6165 20.1683 44.3014C20.5403 43.9889 20.9354 43.7017 21.3507 43.442C22.1665 42.9373 23.0344 42.5112 23.9411 42.1701C27.5646 40.795 31.8646 40.8294 35.5216 42.0727C37.2951 42.6812 38.9321 43.5954 40.3489 44.7683C41.0164 45.3228 41.6284 45.9336 42.1774 46.5931C42.7659 47.2627 43.3085 47.9669 43.8017 48.7014C43.8566 48.7415 43.9511 48.7243 43.9236 48.6613Z" fill="#263238"/>
<path id="Vector_41" d="M41.2526 43.2415C40.8864 42.692 40.4261 42.2032 39.8903 41.7948C39.3292 41.4073 38.7361 41.0625 38.1167 40.7636C35.8482 39.6132 33.3647 38.8856 30.8026 38.6208C29.5665 38.4928 28.3166 38.5509 27.0999 38.7927C26.5233 38.9139 25.9545 39.066 25.3963 39.2482C24.8279 39.406 24.2876 39.6425 23.7934 39.95C23.7817 39.9603 23.7739 39.9738 23.7709 39.9886C23.7679 40.0033 23.7699 40.0186 23.7766 40.0322C23.7834 40.0458 23.7945 40.0571 23.8084 40.0645C23.8224 40.0718 23.8384 40.0749 23.8543 40.0732C24.5065 39.9471 25.1312 39.7208 25.7864 39.6034C26.4416 39.4859 27.0542 39.463 27.6942 39.4057C35.1819 38.7526 40.5973 43.104 41.1276 43.3646C41.1455 43.3767 41.1675 43.3823 41.1894 43.3803C41.2114 43.3784 41.2318 43.3691 41.247 43.3541C41.2622 43.3391 41.2712 43.3194 41.2722 43.2987C41.2732 43.278 41.2662 43.2577 41.2526 43.2415Z" fill="#263238"/>
<path id="Vector_42" d="M15.346 65.5234C16.8698 66.4487 18.6739 65.7726 19.8685 64.6869C21.1119 63.5583 21.9591 62.0801 22.6113 60.5934C23.2208 59.2355 23.6505 57.8175 24.135 56.4167C24.6196 55.0159 25.0493 53.5521 25.8173 52.2716C26.5359 51.047 27.7412 50.1396 29.1695 49.7479C30.7171 49.3564 32.3625 49.4955 33.8109 50.1403C34.578 50.4584 35.274 50.9104 35.8619 51.4724C36.4002 52.0222 36.8194 52.6654 37.0961 53.3659C37.7391 54.8784 38.0622 56.4884 38.4523 58.0668C38.7722 59.373 39.4366 60.5504 40.7379 61.1949C41.8472 61.745 43.2125 61.9111 44.3401 61.3181C44.3569 61.3106 44.3701 61.2975 44.3774 61.2813C44.3846 61.2651 44.3853 61.2471 44.3793 61.2305C44.3733 61.2139 44.361 61.1999 44.3448 61.1913C44.3286 61.1826 44.3095 61.1798 44.2913 61.1835C43.5811 61.3134 42.8486 61.2874 42.1508 61.1075C41.4531 60.9277 40.8089 60.5988 40.2686 60.1465C39.7116 59.6166 39.3259 58.9491 39.1562 58.2215C38.9124 57.3621 38.7296 56.4769 38.4797 55.6118C38.0652 54.1795 37.6538 52.6125 36.6512 51.4208C35.63 50.2664 34.2534 49.4378 32.7107 49.0489C31.2257 48.6427 29.6396 48.7071 28.1974 49.2322C26.7634 49.7897 25.5937 50.8179 24.9061 52.1255C23.4676 54.7037 23.0044 57.6428 21.8951 60.3413C21.3846 61.6809 20.6229 62.9238 19.6461 64.0109C18.6312 65.0765 17.0008 65.8672 15.4831 65.2742C15.4482 65.2585 15.408 65.2562 15.3713 65.2678C15.3345 65.2794 15.304 65.304 15.2862 65.3364C15.2684 65.3688 15.2647 65.4064 15.2758 65.4413C15.287 65.4762 15.3122 65.5056 15.346 65.5234Z" fill="#263238"/>
<path id="Vector_43" d="M15.0102 61.0046C15.7112 61.0934 16.3542 60.5978 16.6803 60.0536C17.1236 59.2704 17.4634 58.4392 17.6921 57.5785C18.1749 55.798 18.7858 54.0504 19.5206 52.3477C20.7396 49.6807 22.6382 47.1083 25.3718 45.6301C26.7263 44.8887 28.2369 44.4345 29.7977 44.2995C31.3585 44.1644 32.9319 44.3516 34.4077 44.8481C35.8128 45.3298 37.0972 46.0787 38.1805 47.0481C39.2953 48.0792 40.1928 49.2989 40.8257 50.6432C41.4583 52.0367 41.9778 53.4731 42.38 54.9402C42.5598 55.5274 42.8127 56.2407 43.4161 56.5587C43.6412 56.6913 43.909 56.7444 44.1718 56.7088C44.4347 56.6731 44.6755 56.5509 44.8515 56.3639C44.885 56.3267 44.8302 56.2866 44.7936 56.3095C44.6227 56.4162 44.4185 56.4657 44.214 56.4501C44.0094 56.4346 43.8164 56.3547 43.666 56.2235C43.3404 55.9637 43.1242 55.603 43.0565 55.2066C42.8523 54.416 42.6878 53.6196 42.447 52.8318C41.9967 51.2312 41.2864 49.7055 40.3412 48.3086C39.4897 47.1101 38.3945 46.0817 37.1185 45.2827C35.8425 44.4836 34.411 43.9297 32.9064 43.6528C31.4018 43.3759 29.8538 43.3815 28.3515 43.6692C26.8491 43.957 25.4222 44.5212 24.1528 45.3293C21.5197 47.008 19.7369 49.5948 18.5576 52.3248C17.948 53.8211 17.4391 55.3519 17.0338 56.9082C16.8327 57.6951 16.5844 58.4708 16.2902 59.2314C16.1525 59.5647 15.9896 59.8883 15.8026 60.1997C15.7353 60.3428 15.6287 60.4665 15.4937 60.5581C15.3588 60.6497 15.2003 60.7059 15.0346 60.721C14.9946 60.718 14.955 60.73 14.9244 60.7544C14.8938 60.7789 14.8748 60.8138 14.8716 60.8514C14.8684 60.889 14.8811 60.9262 14.9071 60.955C14.9332 60.9837 14.9702 61.0016 15.0102 61.0046Z" fill="#263238"/>
<path id="Vector_44" d="M15.8606 66.7561C15.856 66.7878 15.8645 66.82 15.8844 66.8461C15.9042 66.8722 15.9338 66.8902 15.9672 66.8965C16.2146 66.9517 16.4664 66.9881 16.72 67.0053C16.8337 67.011 16.9476 67.011 17.0613 67.0053C18.4052 66.9423 19.804 66.2261 21.212 64.8769C22.4022 63.7352 23.3826 62.4158 24.1132 60.9724C24.6894 59.7356 25.1325 58.4478 25.4359 57.1281C25.5334 56.7585 25.6339 56.3861 25.7406 56.0194C26.0728 54.8449 26.6762 53.1548 28.0384 52.0892C28.4982 51.7291 29.0381 51.4706 29.6182 51.3327C30.1984 51.1949 30.8041 51.1813 31.3907 51.2928C32.3013 51.4664 33.1643 51.8141 33.926 52.3143C34.6877 52.8144 35.332 53.4564 35.8187 54.2004C36.5822 55.3965 36.8573 56.8126 36.5928 58.1851C36.2689 59.6686 35.5026 61.0347 34.3834 62.124C33.2179 63.2514 31.8365 64.1621 30.3119 64.8081C29.6658 65.0946 28.8095 65.4756 27.9318 65.7792L27.4289 65.954C26.789 66.1746 26.1307 66.398 25.4999 66.6587C25.459 66.6773 25.4266 66.7091 25.4086 66.7483C25.3907 66.7875 25.3883 66.8314 25.402 66.8721C25.4157 66.9128 25.4445 66.9475 25.4832 66.9699C25.5219 66.9922 25.5678 67.0007 25.6126 66.9939C26.0545 66.9051 26.4903 66.7905 26.8956 66.6787C29.8365 65.8852 33.4996 64.6019 35.7334 61.7057C36.743 60.4507 37.3289 58.94 37.4156 57.3687C37.4555 55.9271 36.979 54.5147 36.0625 53.3582C34.9094 51.8684 33.1826 50.861 31.2505 50.5509C30.6147 50.4525 29.9641 50.478 29.3392 50.6259C28.7143 50.7737 28.1284 51.0407 27.6179 51.4102C26.4903 52.2324 25.6614 53.5415 25.0854 55.4207C24.9269 55.9306 24.7806 56.452 24.6496 56.9562C24.3589 58.1763 23.9509 59.3691 23.4306 60.5198C22.6944 62.0204 21.6777 63.3846 20.4288 64.5475C19.4079 65.4928 17.8171 66.6186 16.0282 66.6214C15.9871 66.619 15.9467 66.6318 15.9154 66.6569C15.8841 66.682 15.8644 66.7176 15.8606 66.7561Z" fill="#263238"/>
<path id="Vector_45" d="M15.274 62.6555C15.6543 62.7361 16.0494 62.7314 16.4274 62.6418C16.8054 62.5522 17.1557 62.3803 17.4499 62.1398C18.1173 61.6385 18.4617 60.8049 18.736 60.0658C19.3729 58.347 19.8666 56.571 20.5005 54.8436C21.4848 52.1508 22.9385 49.4008 25.5197 47.7794C26.6805 47.0622 27.9909 46.5864 29.3632 46.3839C30.7355 46.1813 32.138 46.2567 33.4768 46.6049C34.9587 46.9992 36.302 47.7576 37.3685 48.8021C38.3464 49.8212 39.1216 50.9972 39.6571 52.274C39.9406 52.9157 40.1844 53.5688 40.4007 54.2334C40.5986 54.9366 40.8346 55.6298 41.1078 56.3103C41.6075 57.439 42.8662 58.7939 44.3168 58.2353C44.3403 58.2246 44.3594 58.207 44.3712 58.185C44.383 58.1631 44.3867 58.1381 44.3818 58.114C44.377 58.0898 44.3638 58.0679 44.3443 58.0515C44.3248 58.0351 44.3002 58.0252 44.2741 58.0233C43.8701 57.988 43.4791 57.8706 43.1281 57.6791C42.7771 57.4877 42.4746 57.2269 42.2414 56.9147C41.7264 56.233 41.5283 55.3907 41.2937 54.5972C40.8831 53.1151 40.277 51.687 39.4895 50.3461C38.7875 49.1599 37.8319 48.1231 36.6828 47.301C35.4389 46.4558 34.0035 45.893 32.4894 45.6567C31.1037 45.4441 29.6868 45.494 28.3219 45.8034C26.957 46.1128 25.6717 46.6756 24.5415 47.4586C22.0334 49.2203 20.6041 51.9818 19.6258 54.7061C19.0742 56.2358 18.6476 57.797 18.1417 59.3382C17.7577 60.5127 17.0781 62.4893 15.3715 62.2286C15.3152 62.2251 15.2595 62.2407 15.2145 62.2726C15.1695 62.3045 15.1382 62.3506 15.1263 62.4024C15.1145 62.4542 15.1229 62.5083 15.15 62.5548C15.1771 62.6013 15.2211 62.637 15.274 62.6555Z" fill="#263238"/>
<path id="Vector_46" d="M15.1494 63.7764C15.3499 63.9887 15.592 64.1628 15.8625 64.2891C16.4232 64.5527 17.243 64.4667 17.8038 64.2548C18.4929 63.9584 19.0715 63.4744 19.4647 62.8654C19.8944 62.2145 20.2577 61.5268 20.5496 60.8115C20.9 60.018 21.2048 59.2015 21.5034 58.388C22.1129 56.7523 22.6585 55.1023 23.332 53.4866C23.9171 52.0543 24.6454 50.6879 25.8705 49.6451C26.9613 48.7044 28.3154 48.0765 29.7733 47.8354C31.2312 47.5943 32.732 47.7501 34.0988 48.2844C35.5009 48.838 36.6933 49.7753 37.5212 50.9743C38.4354 52.2835 38.8499 53.8103 39.2522 55.3028C39.6118 56.632 39.9013 58.0672 40.8064 59.1815C41.5591 60.1125 43.1621 60.8487 44.2196 59.8805C44.2307 59.8713 44.238 59.8587 44.2399 59.8449C44.2419 59.8311 44.2384 59.8171 44.2302 59.8055C44.222 59.794 44.2096 59.7856 44.1953 59.782C44.181 59.7784 44.1658 59.7798 44.1526 59.7859C43.3968 60.1383 42.51 59.8977 41.8791 59.4164C41.2981 58.938 40.8627 58.3231 40.6174 57.6346C39.9927 56.1135 39.7459 54.4835 39.1729 52.9337C38.704 51.5599 37.886 50.3141 36.7898 49.3042C35.7372 48.3591 34.4544 47.6706 33.0535 47.299C31.6318 46.9526 30.139 46.9578 28.7201 47.3142C27.3012 47.6706 26.0046 48.366 24.9563 49.3329C23.7952 50.43 23.0668 51.8137 22.4786 53.2431C21.8387 54.8101 21.3206 56.42 20.7416 58.0099C20.4368 58.8234 20.1321 59.6312 19.7938 60.4362C19.5366 61.1296 19.2153 61.8006 18.8338 62.4414C18.4822 63.0384 17.9319 63.5104 17.2674 63.785C16.9579 63.9137 16.6175 63.9627 16.2812 63.927C15.9448 63.8912 15.6247 63.772 15.3536 63.5816C15.2134 63.4813 15.0458 63.6675 15.1494 63.7764Z" fill="#263238"/>
<path id="Vector_47" d="M44.5809 55.5153C44.6037 55.1432 44.6037 54.7702 44.5809 54.3981C44.264 51.327 42.8704 48.442 40.6191 46.1966C38.5339 44.0727 35.7558 42.6617 32.723 42.1861C29.743 41.7589 26.6953 42.1987 23.9888 43.4466C21.2958 44.6964 19.0788 46.6973 17.6409 49.1758C16.1618 51.6192 15.4942 54.4226 15.724 57.2255C15.724 57.2856 15.8276 57.2742 15.8306 57.2255C16.0236 54.2007 17.068 51.2784 18.8568 48.7576C20.448 46.5578 22.6868 44.8416 25.2993 43.819C27.9061 42.8137 30.7792 42.5877 33.5276 43.1716C36.3585 43.8324 38.8801 45.3491 40.7045 47.4886C41.6676 48.6231 42.4443 49.8871 43.0084 51.2384C43.5658 52.6365 44.007 54.0731 44.3279 55.5353C44.3737 55.6442 44.5717 55.6442 44.5809 55.5153Z" fill="#263238"/>
<path id="Vector_48" d="M39.9251 65.8421C40.2603 65.378 40.9796 65.7876 41.3514 65.9824C41.909 66.2689 42.5094 66.6614 43.1799 66.5554C43.1908 66.5519 43.2027 66.5527 43.213 66.5576C43.2233 66.5624 43.2311 66.5709 43.2347 66.5811C43.2384 66.5914 43.2375 66.6026 43.2324 66.6123C43.2272 66.6219 43.2182 66.6293 43.2073 66.6327C42.9898 66.7338 42.751 66.7878 42.5084 66.7908C42.2658 66.7938 42.0256 66.7456 41.8054 66.6499C41.5681 66.5584 41.3362 66.4551 41.1106 66.3405C40.8969 66.2244 40.6686 66.134 40.431 66.0712C40.3875 66.0656 40.3434 66.0656 40.3 66.0712C40.2542 66.0712 40.2664 66.0712 40.2603 66.0856C40.2177 66.16 40.2847 66.3176 40.3091 66.3921C40.3655 66.5857 40.4442 66.773 40.5438 66.9507C40.7554 67.3162 41.0234 67.6502 41.3392 67.9418C41.5168 68.1126 41.7051 68.2733 41.903 68.4231C42.1041 68.5749 42.3418 68.6895 42.5338 68.8499C42.5495 68.8579 42.5613 68.8714 42.5664 68.8876C42.5716 68.9037 42.5697 68.9211 42.5612 68.9359C42.5527 68.9507 42.5383 68.9617 42.5212 68.9666C42.504 68.9714 42.4856 68.9696 42.4698 68.9617C42.2378 68.894 42.0165 68.7977 41.8115 68.6752C41.5972 68.5572 41.3934 68.423 41.202 68.2741C40.8153 67.9749 40.49 67.6118 40.2421 67.2028C40.1175 66.9992 40.0154 66.7842 39.9373 66.5611C39.8754 66.4505 39.8421 66.3278 39.84 66.2029C39.8378 66.078 39.867 65.9544 39.9251 65.8421Z" fill="#263238"/>
<path id="Vector_49" d="M40.9454 66.7305C41.3091 66.8871 41.6484 67.0895 41.9541 67.332C42.0902 67.439 42.2304 67.5392 42.3747 67.6328C42.4448 67.6787 42.5209 67.7216 42.5941 67.7617C42.6691 67.7979 42.7464 67.8294 42.8257 67.8563C42.8408 67.8605 42.854 67.8692 42.8634 67.8811C42.8729 67.8929 42.8779 67.9074 42.8779 67.9222C42.8779 67.937 42.8729 67.9514 42.8634 67.9632C42.854 67.9751 42.8408 67.9838 42.8257 67.988C42.463 68.0711 42.0821 67.8477 41.8078 67.6529C41.4618 67.4169 41.1539 67.1351 40.8936 66.8164C40.8509 66.7878 40.8875 66.7305 40.9454 66.7305Z" fill="#263238"/>
<path id="Vector_50" d="M17.1261 67.7818C17.1246 67.7885 17.1246 67.7953 17.1261 67.8019C17.1282 67.8252 17.1382 67.8473 17.1547 67.8648C17.1711 67.8824 17.1932 67.8944 17.2175 67.8993C17.3074 67.921 17.3992 67.9344 17.4918 67.9394C17.814 67.9442 18.1352 67.9056 18.4457 67.8248C18.8804 67.7279 19.3033 67.5887 19.7074 67.4094C20.4972 67.0504 21.228 66.5863 21.8772 66.0315C24.0866 64.2154 25.6409 61.6286 26.4972 58.3371C26.5521 58.1194 26.61 57.8989 26.6648 57.6811C26.9696 56.4923 27.2743 55.2663 27.9753 54.2436C28.3438 53.703 28.8456 53.2539 29.4381 52.9344C30.0552 52.6434 30.7413 52.5053 31.4311 52.5334C31.4667 52.5319 31.5007 52.5194 31.5279 52.4979C31.5551 52.4764 31.574 52.447 31.5816 52.4143C31.5892 52.3817 31.5852 52.3476 31.5701 52.3173C31.555 52.2871 31.5298 52.2623 31.4982 52.2469C30.7089 51.8831 29.7276 52.2269 29.3436 52.3902C28.6627 52.694 28.066 53.1421 27.6004 53.6993C26.6862 54.7621 26.3448 56.1256 26.0157 57.4434L25.9304 57.7728C25.5788 59.2616 25.0354 60.7046 24.3121 62.0698C23.5686 63.4097 22.5721 64.6114 21.3713 65.6162C20.79 66.1176 20.1427 66.547 19.4453 66.8938C19.0871 67.0629 18.7163 67.2075 18.336 67.3264C18.208 67.3665 18.0769 67.398 17.9459 67.4324C17.6883 67.489 17.438 67.5716 17.1992 67.6787C17.1783 67.688 17.1604 67.7026 17.1475 67.7207C17.1346 67.7389 17.1272 67.76 17.1261 67.7818Z" fill="#263238"/>
<path id="Vector_51" d="M24.7739 66.1594C24.7722 66.1814 24.7769 66.2036 24.7877 66.2233C24.7984 66.243 24.8148 66.2595 24.8349 66.2711C24.8527 66.2832 24.8739 66.2902 24.8958 66.2911C24.918 66.292 24.9401 66.2875 24.9599 66.278C24.9797 66.2684 24.9964 66.2542 25.0086 66.2367C25.2758 65.9268 25.6276 65.6911 26.0265 65.5549C26.3861 65.3974 26.7609 65.2685 27.1236 65.1281L27.2881 65.0651C28.2847 64.6984 29.0953 64.3718 29.8389 64.0367C33.1363 62.5499 35.102 60.6249 35.6901 58.3074C36.0241 57.0715 35.8591 55.7631 35.2269 54.6349C34.94 54.0979 34.537 53.6231 34.0437 53.2409C33.5504 52.8586 32.9777 52.5773 32.3622 52.4148C32.3259 52.406 32.2873 52.4098 32.2537 52.4256C32.2201 52.4414 32.1937 52.4681 32.1794 52.5008C32.1649 52.5307 32.1628 52.5646 32.1735 52.5958C32.1842 52.6271 32.207 52.6535 32.2373 52.6698C33.4184 53.3129 34.3415 54.3034 34.8643 55.4886C35.5317 57.1501 35.2086 59.8658 32.0941 62.0629C30.9295 62.8361 29.675 63.4819 28.3548 63.988C27.6965 64.2601 26.9529 64.5609 26.2398 64.9247C25.9445 65.0641 25.663 65.2281 25.3987 65.4145C25.1557 65.6075 24.9495 65.8381 24.7892 66.0963C24.777 66.1153 24.7717 66.1374 24.7739 66.1594Z" fill="#263238"/>
<path id="Vector_52" d="M16.1507 68.3636C16.5986 68.6166 17.1067 68.7604 17.6287 68.7819C18.5845 68.7955 19.5283 68.5806 20.3715 68.1574C21.6258 67.5341 22.7633 66.7222 23.739 65.754C23.8335 65.6623 23.9218 65.5678 24.0133 65.4675L24.0956 65.3844C24.1174 65.3747 24.1371 65.361 24.1535 65.3443C24.9245 64.6224 25.982 64.2214 26.9968 63.8318C27.3503 63.6972 27.719 63.5453 28.0634 63.4078C29.767 62.663 30.9281 61.9239 31.824 61.0073C32.7326 60.1223 33.3056 58.9806 33.4545 57.7588C33.5611 56.6989 33.296 55.2207 32.208 54.5332C31.1201 53.8457 29.7426 54.3355 28.935 55.1634C27.9964 56.1288 27.5179 57.4924 27.1309 58.601L26.9968 58.9877C26.6448 60.0955 26.1942 61.1736 25.6498 62.2104C25.0479 63.2816 24.2944 64.2713 23.4099 65.1524C22.5301 66.0286 21.5273 66.788 20.4294 67.4097C18.9849 68.2204 17.5769 68.4668 16.2513 68.1517H16.2269C16.1993 68.1506 16.172 68.1575 16.1486 68.1713C16.1253 68.1851 16.1069 68.2052 16.0958 68.229C16.0872 68.254 16.0879 68.2809 16.0979 68.3054C16.1079 68.33 16.1265 68.3505 16.1507 68.3636ZM25.3846 63.8662C25.6041 63.5797 25.7961 63.2932 25.9667 63.0068C26.603 61.9441 27.1139 60.8192 27.4905 59.6523C27.5545 59.4661 27.6154 59.2799 27.6825 59.0794C28.0329 58.0366 28.3956 56.9567 29.0386 56.0457C29.3464 55.5592 29.8076 55.1748 30.3582 54.9457C30.6091 54.8528 30.8781 54.8108 31.1475 54.8225C31.4692 54.8339 31.7761 54.9527 32.013 55.1577C32.9272 55.9598 32.9851 57.4293 32.6225 58.5294C32.2096 59.634 31.4551 60.5976 30.4557 61.2966C29.3251 62.1417 27.9872 62.706 26.7987 63.2044L26.6859 63.2503C26.2623 63.4594 25.8083 63.6513 25.3846 63.8662Z" fill="#263238"/>
<path id="Vector_53" d="M27.3673 61.9636C27.36 61.9889 27.3607 62.0157 27.3694 62.0406C27.378 62.0656 27.3942 62.0876 27.416 62.104C27.4385 62.1213 27.4663 62.1314 27.4953 62.1326C27.5147 62.1338 27.534 62.1307 27.552 62.1238C27.5699 62.1168 27.586 62.1062 27.5989 62.0925C27.6659 62.0295 28.1596 61.6972 28.3973 61.5454C28.4735 61.4967 28.5528 61.4508 28.629 61.3993C28.7905 61.299 28.9581 61.1959 29.1166 61.0813C29.5917 60.7432 30.038 60.3706 30.4514 59.967C31.2498 59.1792 31.6247 58.3914 31.5576 57.6208C31.5565 57.4307 31.4988 57.2446 31.3911 57.0836C31.2834 56.9227 31.1299 56.7932 30.9481 56.7099C30.7268 56.6402 30.4877 56.6384 30.2653 56.7048C30.0429 56.7712 29.8487 56.9024 29.7108 57.0794C29.4336 57.4267 29.2175 57.8136 29.0708 58.2253C28.9307 58.5576 28.8057 58.9042 28.6808 59.2365L28.5802 59.5058C28.2374 60.3075 27.8373 61.0866 27.3825 61.8376C27.3681 61.8553 27.359 61.8764 27.3563 61.8986C27.3536 61.9208 27.3574 61.9433 27.3673 61.9636ZM28.9246 59.9813C29.2122 59.2751 29.5502 58.5879 29.9363 57.9245L29.9546 57.8958C30.0582 57.724 30.3051 57.3229 30.5428 57.2771H30.5946C30.6447 57.2811 30.6925 57.299 30.7317 57.3286C30.939 57.4805 30.9085 57.9016 30.811 58.2195C30.5855 58.9815 29.8967 59.5974 29.3604 60.093L28.9337 60.4769C28.7874 60.6058 28.6442 60.7375 28.501 60.8693C28.6838 60.5513 28.8148 60.2391 28.9246 59.9813Z" fill="#263238"/>
<path id="Vector_54" d="M29.2894 74.8863C28.763 75.8692 28.291 76.877 27.8753 77.9057C27.8743 77.9123 27.8756 77.9191 27.879 77.9251C27.8824 77.931 27.8877 77.9358 27.8942 77.9386C27.9006 77.9415 27.9079 77.9424 27.915 77.9411C27.922 77.9398 27.9284 77.9364 27.9332 77.9314C28.5275 77.1007 29.0212 76.2127 29.5789 75.3533C29.9446 74.8004 30.6059 73.5085 31.4988 73.7176C31.8737 73.8035 32.1419 74.1931 32.3491 74.471C32.6208 74.8552 32.9159 75.2244 33.2329 75.5767C33.7205 76.0981 34.6347 76.7799 35.4332 76.5965C35.4697 76.5965 35.4911 76.5335 35.4545 76.5163C35.2412 76.4103 35.0157 76.3444 34.8054 76.2299C34.5736 76.1069 34.3587 75.9578 34.1654 75.7858C33.7925 75.4281 33.4633 75.0322 33.1841 74.6056C32.727 73.941 32.1937 73.0644 31.2002 73.1733C30.2798 73.2736 29.652 74.1816 29.2894 74.8863Z" fill="#263238"/>
<path id="Vector_55" d="M16.1073 69.106C17.0734 70.3005 18.8013 70.0885 20.0508 69.4526C20.7708 69.0592 21.4503 68.6037 22.0804 68.0919C22.747 67.5635 23.4607 67.09 24.2137 66.6768C24.223 66.6741 24.2308 66.6681 24.2353 66.66C24.2399 66.652 24.2409 66.6425 24.2381 66.6338C24.2352 66.6251 24.2288 66.6177 24.2203 66.6134C24.2117 66.6091 24.2017 66.6082 24.1924 66.6109C22.6473 66.8429 21.5319 68.0432 20.2733 68.7995C19.0908 69.5156 17.3751 69.9453 16.1561 69.0401C16.1256 69.0057 16.0768 69.0687 16.1073 69.106Z" fill="#263238"/>
<path id="Vector_56" d="M41.2666 71.3693C41.3641 71.3693 41.4037 71.2318 41.3031 71.2089C39.7428 70.8451 38.5116 69.745 37.7558 68.4359C37.0723 67.2426 36.6778 65.922 36.6008 64.5686C36.5303 63.5508 36.6903 62.5305 37.0701 61.5751C37.1705 61.2563 37.3454 60.9627 37.5821 60.7157C37.6358 60.6518 37.7033 60.5993 37.7802 60.5618C37.8572 60.5244 37.9417 60.5027 38.0282 60.4984C38.1147 60.4941 38.2012 60.5071 38.282 60.5367C38.3627 60.5663 38.4358 60.6117 38.4964 60.6699C38.6631 60.8876 38.8128 61.1164 38.9444 61.3545C39.3031 61.8602 39.7806 62.2816 40.3401 62.5863C40.8969 62.8907 41.525 63.0609 42.1686 63.0819C42.852 63.0985 43.5266 62.9348 44.116 62.6092C44.1556 62.5863 44.1373 62.5147 44.0886 62.529C43.2763 62.7622 42.4088 62.7642 41.5954 62.5348C40.7819 62.3054 40.0589 61.8549 39.5173 61.2399C39.1455 60.7902 38.9444 60.0941 38.2343 60.0425C37.5242 59.991 37.0305 60.5238 36.7502 61.0767C36.126 62.4016 35.9208 63.8675 36.1589 65.2991C36.5338 67.8229 38.149 71.2346 41.2666 71.3693Z" fill="#263238"/>
<path id="Vector_57" d="M29.9921 76.9529C29.8943 77.2139 29.8499 77.4899 29.8611 77.7665C29.8633 77.7747 29.868 77.7822 29.8745 77.7881C29.8811 77.794 29.8892 77.7981 29.8981 77.7999C29.9069 77.8017 29.9162 77.8011 29.9247 77.7982C29.9332 77.7953 29.9407 77.7903 29.9464 77.7836C30.0878 77.5753 30.1957 77.3485 30.2664 77.1105C30.3609 76.8641 30.4584 76.6177 30.5711 76.3771C30.6823 76.1352 30.8127 75.9016 30.9612 75.6781C31.0101 75.5798 31.076 75.4898 31.1563 75.4117L31.1776 75.3974L31.2264 75.4432C31.2722 75.4844 31.3149 75.5284 31.3544 75.575C31.6638 75.9747 31.9975 76.3573 32.3539 76.7209C32.6587 76.9873 33.1432 77.2766 33.5729 77.1849C33.5788 77.1824 33.5837 77.1784 33.5872 77.1733C33.5907 77.1682 33.5925 77.1623 33.5925 77.1563C33.5925 77.1503 33.5907 77.1444 33.5872 77.1393C33.5837 77.1342 33.5788 77.1302 33.5729 77.1276C33.3283 77.0098 33.1017 76.8614 32.8994 76.6865C32.7108 76.5029 32.5405 76.3034 32.3905 76.0907C32.2168 75.8672 32.0614 75.6294 31.8724 75.4146C31.6835 75.1997 31.4732 74.9219 31.1715 74.9219C30.8698 74.9219 30.7266 75.1768 30.6077 75.3802C30.4631 75.623 30.3407 75.877 30.242 76.1393C30.1597 76.4086 30.0683 76.6779 29.9921 76.9529Z" fill="#263238"/>
<path id="Vector_58" d="M41.9976 69.8261C42.0093 69.8295 42.0219 69.8288 42.0332 69.8243C42.0445 69.8198 42.0537 69.8116 42.0592 69.8013C42.0647 69.791 42.0661 69.7792 42.0632 69.768C42.0603 69.7568 42.0532 69.7469 42.0433 69.7401C41.6688 69.443 41.3221 69.1162 41.0071 68.7633C40.7072 68.3957 40.4284 68.0132 40.1721 67.6174C39.6619 66.9361 39.2249 66.2087 38.8678 65.4461C38.6833 65.0757 38.5876 64.6719 38.5874 64.263C38.6453 63.69 39.2579 64.1083 39.523 64.3231C39.818 64.5947 40.1337 64.8455 40.4677 65.0736C41.1313 65.475 41.9189 65.6556 42.7046 65.5864C43.0825 65.5231 43.4462 65.4001 43.7804 65.2226C43.8566 65.1911 43.8017 65.0937 43.7255 65.1166C43.4266 65.1855 43.1186 65.2125 42.8113 65.1968C42.5585 65.2012 42.3058 65.1869 42.0555 65.1539C41.5349 65.0775 41.0398 64.8903 40.6079 64.6067C40.0898 64.2601 39.139 63.097 38.4137 63.6585C37.7859 64.1426 38.2705 65.2684 38.5234 65.8185C38.942 66.6533 39.4527 67.4444 40.0472 68.1789C40.5348 68.8091 41.1808 69.5625 41.9976 69.8261Z" fill="#263238"/>
<path id="Vector_59" d="M18.0499 72.0182C18.7141 72.1424 19.4037 72.0333 19.9881 71.7116C20.113 71.6486 20.2288 71.577 20.3507 71.5054C20.2867 71.5741 20.2258 71.64 20.1679 71.7088C19.7493 72.1894 19.4869 72.7732 19.4121 73.3903C19.4119 73.3987 19.4145 73.407 19.4195 73.414C19.4246 73.4209 19.4319 73.4262 19.4403 73.429C19.4487 73.4319 19.4579 73.4322 19.4665 73.4298C19.4751 73.4275 19.4827 73.4227 19.4883 73.4161C19.8296 72.9262 20.1801 72.4335 20.5702 71.9838C20.9602 71.534 21.4143 71.09 21.7892 70.6173C21.8037 70.5964 21.8115 70.5719 21.8115 70.5469C21.8115 70.5219 21.8037 70.4974 21.7892 70.4765C21.7747 70.4555 21.7539 70.439 21.7296 70.4289C21.7052 70.4188 21.6783 70.4156 21.652 70.4197C21.0059 70.5572 20.5214 70.9926 19.9485 71.2791C19.3423 71.5775 18.7023 71.811 18.0407 71.9752C18.0163 71.9752 18.0163 72.0124 18.0499 72.0182Z" fill="#263238"/>
<path id="Vector_60" d="M25.129 74.7C24.7824 75.3067 24.4771 75.9334 24.2147 76.5763C24.2063 76.5919 24.2047 76.61 24.2104 76.6267C24.2161 76.6433 24.2287 76.6572 24.2452 76.6652C24.2618 76.6731 24.2811 76.6746 24.2988 76.6692C24.3165 76.6639 24.3312 76.6521 24.3397 76.6365C24.8578 75.9805 25.2753 75.2529 25.7568 74.5711C26.2383 73.8893 26.7168 73.2706 27.2409 72.6489C28.0742 71.637 29.0841 70.7653 30.2275 70.0708C30.5206 69.8949 30.826 69.7379 31.1417 69.601C31.4672 69.4279 31.8317 69.3297 32.2053 69.3145C32.8819 69.3489 33.3207 69.9591 33.6224 70.4317C34.3508 71.5776 34.9725 72.7864 36.1001 73.6602C36.5939 74.0644 37.1899 74.3426 37.831 74.468C38.1041 74.5423 38.3951 74.5343 38.663 74.4451C38.7453 74.3964 38.7971 74.3248 38.7148 74.256C38.6874 74.236 38.6447 74.256 38.663 74.2961C38.6813 74.3362 38.2699 74.2589 38.2516 74.2531L37.9895 74.1844C37.8054 74.1311 37.6269 74.062 37.4562 73.9781C37.1305 73.8184 36.824 73.6264 36.5419 73.4052C35.9402 72.8996 35.4351 72.3009 35.0487 71.6349C34.6982 71.0763 34.3874 70.489 33.9973 69.9533C33.6936 69.4697 33.2303 69.0925 32.6777 68.8791C31.9829 68.6671 31.2789 68.902 30.6511 69.1655C30.0455 69.4232 29.4721 69.7431 28.9414 70.1195C27.8591 70.8911 26.9305 71.8367 26.1987 72.9125C25.8092 73.4904 25.4521 74.087 25.129 74.7Z" fill="#263238"/>
<path id="Vector_61" d="M26.8731 75.9747C26.6589 76.4531 26.5074 76.9543 26.422 77.4671C26.4212 77.4755 26.4235 77.4838 26.4284 77.4908C26.4332 77.4979 26.4405 77.5031 26.449 77.5058C26.4574 77.5084 26.4666 77.5083 26.475 77.5054C26.4834 77.5026 26.4905 77.4972 26.4952 77.49C26.7999 76.9916 27.0133 76.4387 27.3302 75.9403C27.6471 75.4418 27.9397 74.9491 28.2444 74.4707C28.8146 73.6114 29.4752 72.8082 30.2162 72.073C30.5667 71.7379 30.9781 71.4514 31.49 71.5001C31.9702 71.5916 32.4014 71.8378 32.7091 72.1962C33.3978 72.921 33.7147 73.915 34.4248 74.6254C34.7395 74.9498 35.1322 75.1986 35.5702 75.3511C36.0081 75.5036 36.4785 75.5553 36.942 75.502C36.9725 75.502 36.9817 75.4418 36.942 75.4332C36.3454 75.299 35.7862 75.046 35.3025 74.6913C34.831 74.3109 34.4428 73.8477 34.1597 73.3277C33.6355 72.4683 33.1266 71.5345 32.1361 71.1048C31.7018 70.9086 31.2031 70.8799 30.7465 71.0246C30.2705 71.2196 29.8522 71.5204 29.5274 71.9011C28.7533 72.6901 28.0868 73.5668 27.5435 74.5108C27.2833 74.9832 27.0593 75.4724 26.8731 75.9747Z" fill="#263238"/>
<path id="Vector_62" d="M22.4654 75.4922C22.458 75.515 22.4599 75.5396 22.4705 75.5612C22.4812 75.5829 22.5 75.6001 22.5233 75.6096H22.5629C22.5802 75.6097 22.5973 75.6059 22.6127 75.5984C22.6281 75.5909 22.6413 75.58 22.6512 75.5667C23.1123 74.8888 23.6118 74.2347 24.1476 73.6072C24.7105 72.9637 25.3119 72.3506 25.9487 71.771C27.0038 70.7579 28.131 69.8133 29.3223 68.9436C29.9101 68.5227 30.5483 68.168 31.2239 67.8866C31.8669 67.623 32.7477 67.265 33.3572 67.7749C33.711 68.1199 33.9913 68.5254 34.183 68.9694C34.2684 69.1356 34.3537 69.296 34.4421 69.4478C34.8125 70.0948 35.2483 70.7068 35.7434 71.2754C36.2241 71.83 36.7998 72.3054 37.4469 72.682C38.0657 73.0484 38.7714 73.2649 39.5009 73.3122C39.5259 73.3147 39.5509 73.308 39.5708 73.2936C39.5906 73.2792 39.6038 73.2582 39.6076 73.2348C39.6142 73.2124 39.6112 73.1885 39.5993 73.1681C39.5873 73.1478 39.5673 73.1326 39.5436 73.126C37.517 72.4585 36.2157 71.0004 35.4843 69.8947C35.2801 69.5853 35.0942 69.2501 34.9205 68.9293C34.7468 68.6085 34.567 68.2848 34.3598 67.9754C33.9179 67.3022 33.3511 66.9584 32.6867 66.9384C31.8883 66.9183 31.0593 67.2449 30.4285 67.5256C29.7353 67.8403 29.0804 68.2245 28.475 68.6715C27.2506 69.6075 26.1082 70.6344 25.0588 71.7424C23.9708 72.8452 22.8981 74.0656 22.4654 75.4922Z" fill="#263238"/>
<path id="Vector_63" d="M41.4837 70.7661C41.5843 70.8119 41.6452 70.6715 41.569 70.6142C40.5485 69.8846 39.6682 68.9961 38.9665 67.9874C38.3917 67.1085 37.995 66.1373 37.7962 65.1227C37.6909 64.6033 37.6369 64.0759 37.6347 63.5472C37.6347 63.1605 37.528 62.1836 38.1315 62.1808C38.7349 62.1779 39.067 62.8597 39.4175 63.1862C39.8178 63.5682 40.2901 63.8771 40.8102 64.0972C41.326 64.3243 41.9002 64.4081 42.465 64.3386C43.0298 64.269 43.5617 64.0491 43.9979 63.7047C44.0049 63.6994 44.0095 63.6918 44.0109 63.6834C44.0122 63.6751 44.0103 63.6665 44.0054 63.6594C44.0005 63.6523 43.993 63.6472 43.9843 63.645C43.9756 63.6428 43.9663 63.6436 43.9583 63.6474C42.6174 64.3493 40.859 63.8021 39.8228 62.8625C39.4023 62.4844 39.0609 61.9373 38.4636 61.7854C38.3428 61.7411 38.2134 61.7214 38.0839 61.7277C37.9544 61.734 37.8278 61.7661 37.7125 61.8219C37.5972 61.8777 37.4958 61.956 37.4152 62.0514C37.3345 62.1469 37.2764 62.2574 37.2446 62.3755C37.1232 62.9031 37.0883 63.4451 37.141 63.9826C37.1687 64.5273 37.2565 65.0678 37.4031 65.5954C38.0035 67.6923 39.387 69.7692 41.4837 70.7661Z" fill="#263238"/>
<path id="Vector_64" d="M21.5995 73.4561C21.3558 73.8515 21.1741 74.278 21.0601 74.7223C21.0482 74.775 21.056 74.8299 21.082 74.8779C21.1081 74.9259 21.151 74.964 21.2034 74.9858C21.2261 74.993 21.2496 74.9978 21.2735 75.0002C21.3111 75.0017 21.3485 74.9938 21.3817 74.9772C21.4149 74.9605 21.4428 74.9358 21.4624 74.9056C21.6422 74.6449 21.8129 74.3785 21.9835 74.115C22.3469 73.5225 22.7543 72.9549 23.2025 72.4163C23.8702 71.6576 24.5954 70.9453 25.3724 70.285C26.9421 69.0521 28.5853 67.9044 30.2941 66.8474C32.7321 65.3234 34.4052 64.5185 34.7892 64.6846C35.0513 64.7992 35.0635 65.2088 35.0756 65.544C35.0757 65.6397 35.0808 65.7353 35.0909 65.8305C35.1534 66.2997 35.2429 66.7654 35.3591 67.2255C35.5635 68.1071 35.9164 68.9523 36.4044 69.7292C36.8529 70.4362 37.4616 71.0416 38.1872 71.5024C38.5833 71.7459 39.6103 72.2931 40.5551 72.1241C40.5797 72.115 40.601 72.0994 40.6164 72.0793C40.6318 72.0591 40.6407 72.0351 40.642 72.0103C40.6433 71.9855 40.6369 71.9609 40.6237 71.9394C40.6104 71.9179 40.5908 71.9004 40.5673 71.8892C40.4118 71.8319 40.2625 71.7803 40.1071 71.7287C39.7803 71.6244 39.4616 71.4991 39.1532 71.3535C38.7079 71.1275 38.2977 70.8451 37.9342 70.5141C37.1953 69.8147 36.6392 68.9635 36.3099 68.0276C36.0029 67.1154 35.7986 66.1755 35.7004 65.2232C35.6977 65.0202 35.6462 64.8203 35.5496 64.6387C35.453 64.4571 35.3139 64.2985 35.1427 64.1747C34.7831 63.9541 34.1644 64.106 33.8597 64.2291C32.1104 64.9338 26.4908 68.3084 24.2509 70.2621C23.5541 70.8845 22.9262 71.5717 22.3767 72.3131C22.0953 72.6803 21.8359 73.0619 21.5995 73.4561Z" fill="#263238"/>
<path id="Vector_65" d="M17.1577 70.7631C18.331 71.2415 19.7206 70.7631 20.7903 70.2647C21.86 69.7662 22.7407 69.093 23.7433 68.5459C24.0024 68.4084 24.2614 68.2795 24.5296 68.162C24.6637 68.1047 24.8008 68.0503 24.938 68.0016C25.0081 67.9758 25.0903 67.9271 25.1635 67.9501C25.2366 67.973 25.2519 67.9501 25.194 68.0045C25.1361 68.0589 25.1574 68.0532 25.1361 68.0761C24.7886 68.4829 24.2431 68.7751 23.8256 69.1131C22.9717 69.7915 22.1954 70.5519 21.5095 71.3819C20.8634 72.1697 20.1899 73.0749 19.9858 74.0689C19.9858 74.1176 20.0467 74.1348 20.0741 74.1004C20.4855 73.5733 20.8299 73.0004 21.2383 72.4704C21.6393 71.9537 22.0825 71.4672 22.564 71.0152C22.9937 70.6084 23.4416 70.216 23.8957 69.835C24.3498 69.454 24.8283 69.1274 25.2366 68.7235C25.52 68.437 26.0259 67.8641 25.4713 67.5777C25.0233 67.3485 24.3589 67.7409 23.9628 67.9271C22.8413 68.4542 21.8295 69.1675 20.7385 69.7347C20.1771 70.0324 19.5809 70.2679 18.9618 70.4366C18.3714 70.5786 17.7666 70.6612 17.1577 70.6829C17.1089 70.6858 17.1089 70.7459 17.1577 70.7631Z" fill="#263238"/>
<path id="Vector_66" d="M31.1508 76.347C31.1503 76.3365 31.1503 76.326 31.1508 76.3155C31.1545 76.3056 31.1605 76.2966 31.1685 76.2893C31.1764 76.2819 31.1861 76.2764 31.1967 76.2731C31.2073 76.2697 31.2185 76.2687 31.2296 76.2701C31.2406 76.2716 31.2512 76.2753 31.2605 76.2811L31.2849 76.2955C31.3915 76.3327 31.4616 76.4788 31.5012 76.5648C31.5409 76.6507 31.6018 76.7796 31.6536 76.8827C31.7542 77.089 31.8426 77.301 31.9584 77.5044C31.9646 77.5132 31.9671 77.5239 31.9655 77.5344C31.9638 77.5449 31.9581 77.5544 31.9494 77.5612C31.9407 77.568 31.9296 77.5714 31.9183 77.571C31.9071 77.5706 31.8963 77.5662 31.8883 77.5588C31.6723 77.4207 31.4879 77.2434 31.3458 77.0374C31.2821 76.9372 31.2261 76.8329 31.1782 76.7252C31.1483 76.6575 31.1288 76.5861 31.1203 76.5132C31.1113 76.4562 31.122 76.3979 31.1508 76.347Z" fill="#263238"/>
<path id="Vector_67" d="M7.27363 45.4457H6.35938V35.4023H17.044V36.2617H7.27363V45.4457Z" fill="#1F4EAD"/>
<path id="Vector_68" d="M53.3369 79.5512H42.6523V78.6918H52.4227V69.5078H53.3369V79.5512Z" fill="#1F4EAD"/>
<path id="Vector_69" d="M17.044 79.5512H6.35938V69.5078H7.27363V78.6918H17.044V79.5512Z" fill="#1F4EAD"/>
<path id="Vector_70" d="M53.3369 45.4457H52.4227V36.2617H42.6523V35.4023H53.3369V45.4457Z" fill="#1F4EAD"/>
<path id="Vector_71" d="M55.6871 81.7649H54.9648V81.55H55.4585V81.0859H55.6871V81.7649Z" fill="#1F4EAD"/>
<path id="Vector_72" d="M53.7404 81.765H52.5214V81.5508H53.7404V81.765ZM51.3024 81.765H50.0834V81.5508H51.3024V81.765ZM48.8644 81.765H47.6454V81.5508H48.8644V81.765ZM46.4264 81.765H45.2074V81.5508H46.4264V81.765ZM43.9884 81.765H42.7694V81.5508H43.9884V81.765ZM41.5504 81.765H40.3314V81.5508H41.5504V81.765ZM39.1124 81.765H37.8934V81.5508H39.1124V81.765ZM36.6744 81.765H35.4553V81.5508H36.6744V81.765ZM34.2363 81.765H33.0173V81.5508H34.2363V81.765ZM31.7983 81.765H30.5793V81.5508H31.7983V81.765ZM29.3603 81.765H28.1413V81.5508H29.3603V81.765ZM26.9223 81.765H25.7033V81.5508H26.9223V81.765ZM24.4843 81.765H23.2653V81.5508H24.4843V81.765ZM22.0463 81.765H20.8273V81.5508H22.0463V81.765ZM19.6083 81.765H18.3893V81.5508H19.6083V81.765ZM17.1703 81.765H15.9513V81.5508H17.1703V81.765ZM14.7323 81.765H13.5133V81.5508H14.7323V81.765ZM12.2942 81.765H11.0752V81.5508H12.2942V81.765ZM9.85624 81.765H8.63723V81.5508H9.85624V81.765ZM7.41822 81.765H6.19922V81.5508H7.41822V81.765Z" fill="#1F4EAD"/>
<path id="Vector_73" d="M4.73398 81.7649H4.01172V81.0859H4.24028V81.55H4.73398V81.7649Z" fill="#1F4EAD"/>
<path id="Vector_74" d="M4.23771 79.9331H4V78.7872H4.22856L4.23771 79.9331ZM4.23771 77.6414H4V76.4955H4.22856L4.23771 77.6414ZM4.23771 75.3496H4V74.2038H4.22856L4.23771 75.3496ZM4.23771 73.0579H4V71.9121H4.22856L4.23771 73.0579ZM4.23771 70.7662H4V69.6204H4.22856L4.23771 70.7662ZM4.23771 68.4745H4V67.3287H4.22856L4.23771 68.4745ZM4.23771 66.1828H4V65.037H4.22856L4.23771 66.1828ZM4.23771 63.8911H4V62.7453H4.22856L4.23771 63.8911ZM4.23771 61.5994H4V60.4536H4.22856L4.23771 61.5994ZM4.23771 59.3077H4V58.1619H4.22856L4.23771 59.3077ZM4.23771 57.016H4V55.8701H4.22856L4.23771 57.016ZM4.23771 54.7243H4V53.5784H4.22856L4.23771 54.7243ZM4.23771 52.4326H4V51.2867H4.22856L4.23771 52.4326ZM4.23771 50.1409H4V48.995H4.22856L4.23771 50.1409ZM4.23771 47.8492H4V46.7033H4.22856L4.23771 47.8492ZM4.23771 45.5431H4V44.3973H4.22856L4.23771 45.5431ZM4.23771 43.2514H4V42.1056H4.22856L4.23771 43.2514ZM4.23771 40.9597H4V39.8139H4.22856L4.23771 40.9597ZM4.23771 38.668H4V37.5222H4.22856L4.23771 38.668ZM4.23771 36.3763H4V35.2305H4.22856L4.23771 36.3763Z" fill="#1F4EAD"/>
<path id="Vector_75" d="M4.24028 33.8664H4.01172V33.1875H4.73398V33.4023H4.24028V33.8664Z" fill="#1F4EAD"/>
<path id="Vector_76" d="M53.7404 33.4017H52.5214V33.1875H53.7404V33.4017ZM51.3024 33.4017H50.0834V33.1875H51.3024V33.4017ZM48.8644 33.4017H47.6454V33.1875H48.8644V33.4017ZM46.4264 33.4017H45.2074V33.1875H46.4264V33.4017ZM43.9884 33.4017H42.7694V33.1875H43.9884V33.4017ZM41.5504 33.4017H40.3314V33.1875H41.5504V33.4017ZM39.1124 33.4017H37.8934V33.1875H39.1124V33.4017ZM36.6744 33.4017H35.4553V33.1875H36.6744V33.4017ZM34.2363 33.4017H33.0173V33.1875H34.2363V33.4017ZM31.7983 33.4017H30.5793V33.1875H31.7983V33.4017ZM29.3603 33.4017H28.1413V33.1875H29.3603V33.4017ZM26.9223 33.4017H25.7033V33.1875H26.9223V33.4017ZM24.4843 33.4017H23.2653V33.1875H24.4843V33.4017ZM22.0463 33.4017H20.8273V33.1875H22.0463V33.4017ZM19.6083 33.4017H18.3893V33.1875H19.6083V33.4017ZM17.1703 33.4017H15.9513V33.1875H17.1703V33.4017ZM14.7323 33.4017H13.5133V33.1875H14.7323V33.4017ZM12.2942 33.4017H11.0752V33.1875H12.2942V33.4017ZM9.85624 33.4017H8.63723V33.1875H9.85624V33.4017ZM7.41822 33.4017H6.19922V33.1875H7.41822V33.4017Z" fill="#1F4EAD"/>
<path id="Vector_77" d="M55.6871 33.8664H55.4585V33.4023H54.9648V33.1875H55.6871V33.8664Z" fill="#1F4EAD"/>
<path id="Vector_78" d="M55.6895 79.9331H55.4609V78.7872H55.6895V79.9331ZM55.6895 77.6414H55.4609V76.4955H55.6895V77.6414ZM55.6895 75.3496H55.4609V74.2038H55.6895V75.3496ZM55.6895 73.0579H55.4609V71.9121H55.6895V73.0579ZM55.6895 70.7662H55.4609V69.6204H55.6895V70.7662ZM55.6895 68.4745H55.4609V67.3287H55.6895V68.4745ZM55.6895 66.1828H55.4609V65.037H55.6895V66.1828ZM55.6895 63.8911H55.4609V62.7453H55.6895V63.8911ZM55.6895 61.5994H55.4609V60.4536H55.6895V61.5994ZM55.6895 59.3077H55.4609V58.1619H55.6895V59.3077ZM55.6895 57.016H55.4609V55.8701H55.6895V57.016ZM55.6895 54.7243H55.4609V53.5784H55.6895V54.7243ZM55.6895 52.4326H55.4609V51.2867H55.6895V52.4326ZM55.6895 50.1409H55.4609V48.995H55.6895V50.1409ZM55.6895 47.8492H55.4609V46.7033H55.6895V47.8492ZM55.6895 45.5431H55.4609V44.3973H55.6895V45.5431ZM55.6895 43.2514H55.4609V42.1056H55.6895V43.2514ZM55.6895 40.9597H55.4609V39.8139H55.6895V40.9597ZM55.6895 38.668H55.4609V37.5222H55.6895V38.668ZM55.6895 36.3763H55.4609V35.2305H55.6895V36.3763Z" fill="#1F4EAD"/>
</g>
<g id="Character">
<path id="Vector_79" d="M70.5469 114.864H98.6876C98.9192 114.005 99.1417 113.174 99.3672 112.349C99.6232 111.394 99.8741 110.469 100.12 109.573C100.172 109.373 100.23 109.172 100.285 108.975C100.47 108.284 100.65 107.611 100.83 106.97C100.937 106.568 101.043 106.176 101.135 105.789C101.226 105.403 101.348 105.004 101.44 104.626C101.467 104.526 101.494 104.423 101.522 104.34C101.549 104.257 101.58 104.119 101.607 104.013L101.714 103.621C101.753 103.483 101.79 103.349 101.824 103.214C101.897 102.959 101.964 102.71 102.028 102.463C102.128 102.102 102.223 101.747 102.317 101.401C102.357 101.252 102.399 101.1 102.439 100.954C102.506 100.71 102.57 100.475 102.631 100.246C102.674 100.092 102.713 99.9397 102.753 99.7936C102.921 99.1863 103.073 98.6162 103.216 98.0748C103.256 97.9345 103.289 97.7884 103.329 97.6623C103.39 97.4303 103.451 97.2097 103.509 96.9949C103.548 96.8602 103.582 96.7313 103.615 96.6024C103.74 96.1469 103.853 95.743 103.951 95.3677C103.978 95.2703 104.002 95.1758 104.03 95.0813L104.204 94.4339C104.225 94.3594 104.243 94.2849 104.265 94.2162C104.286 94.1474 104.304 94.0701 104.319 94.007C104.335 93.944 104.347 93.9125 104.356 93.8724C104.365 93.8323 104.393 93.7435 104.408 93.6919C104.412 93.6647 104.42 93.6378 104.429 93.6117L104.493 93.3711H77.1386C77.1386 93.3711 76.2244 96.2959 74.7921 101.008C74.4873 101.968 74.1826 103.013 73.8443 104.102C72.8721 107.216 71.7537 110.883 70.5469 114.864Z" fill="#37474F"/>
<path id="Vector_80" d="M94.0859 114.864H94.7869C95.8291 110.812 96.8389 106.753 97.8161 102.687C98.0518 101.697 98.2844 100.707 98.514 99.716L98.578 99.4295C98.5797 99.4197 98.5775 99.4095 98.5717 99.4011C98.5659 99.3927 98.5569 99.3866 98.5466 99.3841C98.5363 99.3816 98.5253 99.3828 98.5159 99.3875C98.5065 99.3922 98.4993 99.4 98.4957 99.4095L98.4683 99.5012C98.1513 100.563 97.8364 101.628 97.5235 102.695C96.3441 106.734 95.1983 110.791 94.0859 114.864Z" fill="#263238"/>
<path id="Vector_81" d="M78.0156 93.3477L79.2346 99.0368L80.2159 103.695L81.9043 111.644L82.078 112.46L82.3675 113.818L82.5838 114.847H98.693C98.9216 113.987 99.1471 113.154 99.3696 112.332C99.6255 111.377 99.8765 110.451 100.122 109.556C100.174 109.355 100.232 109.155 100.287 108.957C100.473 108.267 100.653 107.593 100.832 106.952C100.939 106.551 101.046 106.158 101.137 105.772C101.229 105.385 101.35 104.987 101.442 104.609C101.469 104.508 101.497 104.405 101.524 104.322C101.552 104.239 101.582 104.101 101.609 103.995L101.716 103.603C101.756 103.466 101.792 103.331 101.826 103.196C101.899 102.941 101.966 102.692 102.03 102.446C102.131 102.085 102.225 101.73 102.32 101.383C102.362 101.231 102.402 101.082 102.441 100.936C102.508 100.693 102.572 100.458 102.633 100.229C102.676 100.074 102.716 99.922 102.755 99.7759C102.923 99.1686 103.075 98.5985 103.219 98.0571C103.258 97.9167 103.292 97.7706 103.331 97.6446C103.392 97.4126 103.453 97.192 103.511 96.9771C103.551 96.8425 103.584 96.7136 103.618 96.5847C103.743 96.1292 103.855 95.7253 103.953 95.35C103.98 95.2526 104.005 95.1581 104.032 95.0636L104.206 94.4162C104.227 94.3417 104.246 94.2672 104.267 94.1985C104.288 94.1297 104.307 94.0524 104.322 93.9893C104.337 93.9263 104.349 93.8948 104.358 93.8547C104.367 93.8146 104.395 93.7258 104.41 93.6742C104.415 93.6469 104.422 93.6201 104.431 93.594L104.495 93.3534L78.0156 93.3477Z" fill="#263238"/>
<path id="Vector_82" d="M78.0117 93.3404C78.0117 93.4836 78.1275 95.019 78.3896 97.3509C78.4658 98.0355 78.5542 98.7832 78.6578 99.591C78.8193 100.863 79.0174 102.264 79.2673 103.745C79.6879 106.323 80.2364 109.147 80.9495 111.903C81.2025 112.894 81.4828 113.877 81.7784 114.839H117.13C116.712 109.775 116.331 105.194 116.029 101.585C115.603 96.5029 115.335 93.3203 115.335 93.3203H83.2626L78.0117 93.3404Z" fill="#37474F"/>
<path id="Vector_83" d="M78.0898 96.3913C78.1295 97.5801 78.1813 98.7689 78.2636 99.952C78.3489 101.235 78.4738 102.516 78.6536 103.796C78.6569 103.843 78.663 103.89 78.6719 103.937C78.8405 105.136 79.0315 106.333 79.2449 107.526C79.449 108.638 79.5984 109.838 80.1225 110.869C80.3211 111.267 80.6019 111.623 80.9484 111.918C81.2678 112.19 81.6576 112.38 82.079 112.468C82.148 112.484 82.2184 112.494 82.2893 112.499C82.3076 112.499 82.3289 112.499 82.3503 112.499C82.337 112.505 82.3261 112.515 82.319 112.528C82.312 112.54 82.309 112.554 82.3107 112.568C82.3259 112.966 82.3107 113.373 82.3625 113.768C82.3625 113.785 82.3625 113.803 82.3625 113.82C82.4051 114.163 82.4722 114.504 82.5392 114.848H83.1487C83.1487 114.848 83.1487 114.848 83.1487 114.828C83.0421 114.453 82.9537 114.075 82.844 113.682C82.7343 113.29 82.6002 112.92 82.5057 112.536C82.501 112.521 82.4901 112.507 82.4752 112.499C82.8607 112.517 83.2428 112.424 83.5699 112.231C83.8969 112.038 84.1531 111.756 84.3037 111.422C84.457 110.913 84.4675 110.375 84.3342 109.861L84.0051 107.818C83.7978 106.569 83.5327 105.332 83.295 104.094C83.2615 103.905 83.2249 103.716 83.1883 103.521C82.716 100.992 82.2192 98.4595 81.625 95.953C81.6036 95.8499 81.5762 95.7467 81.5518 95.6407C81.5274 95.5348 81.4177 95.592 81.4238 95.6579C81.4421 95.8269 81.4604 95.996 81.4817 96.165C81.5853 97.1275 81.7072 98.0843 81.8474 99.0296C82.0181 100.153 82.1369 101.281 82.3046 102.404L82.4783 103.55C82.7525 105.398 83.039 107.245 83.3742 109.084C83.5327 109.944 84.0995 111.471 82.7891 111.737C82.4894 111.8 82.1758 111.762 81.9023 111.631C81.3248 111.308 80.8916 110.799 80.6833 110.199C80.3115 109.219 80.1804 108.142 79.9884 107.122C79.7711 105.997 79.5801 104.87 79.4155 103.739C79.2022 102.33 78.9828 100.92 78.7451 99.5137C78.6293 98.7947 78.5074 98.0814 78.3855 97.3595C78.3306 97.0301 78.2727 96.6978 78.2148 96.3655C78.2057 96.2996 78.0898 96.3197 78.0898 96.3913Z" fill="#263238"/>
<path id="Vector_84" d="M109.377 105.227C107.904 105.213 106.44 105.028 105.016 104.677C104.357 104.516 103.708 104.319 103.065 104.121C102.426 103.954 101.828 103.672 101.304 103.29C100.313 102.485 99.8501 101.219 99.4204 100.096C98.9501 98.8291 98.5684 97.5344 98.2776 96.2204C98.2624 96.1545 98.1618 96.1746 98.1588 96.2376C98.1308 97.7254 98.3362 99.209 98.7683 100.641C99.1248 101.855 99.6033 103.219 100.649 104.078C101.746 104.972 103.239 105.287 104.644 105.45C106.225 105.624 107.823 105.603 109.398 105.39C109.409 105.389 109.42 105.385 109.43 105.38C109.44 105.375 109.449 105.368 109.456 105.359C109.463 105.351 109.469 105.341 109.472 105.33C109.475 105.32 109.476 105.309 109.474 105.298C109.473 105.288 109.469 105.277 109.463 105.268C109.458 105.259 109.45 105.25 109.441 105.244C109.432 105.237 109.422 105.232 109.411 105.229C109.4 105.226 109.388 105.226 109.377 105.227Z" fill="#263238"/>
<path id="Vector_85" d="M111.824 96.2457C111.903 98.1077 111.987 99.9697 112.074 101.832C112.277 106.169 112.5 110.506 112.742 114.843H113.406C113.101 110.494 112.781 106.151 112.446 101.812C112.3 99.9516 112.149 98.0953 111.995 96.2429C111.994 96.2216 111.985 96.2013 111.969 96.1866C111.953 96.1718 111.931 96.1637 111.908 96.1641C111.885 96.1645 111.864 96.1733 111.848 96.1886C111.832 96.2039 111.824 96.2244 111.824 96.2457Z" fill="#263238"/>
<path id="Vector_86" d="M81.9395 55.0418C68.0123 66.8413 55.1 79.7636 54.0883 86.358C52.6894 95.4905 58.6595 98.0257 61.3413 98.0486C68.631 98.1173 81.8785 70.3476 86.4864 59.7456C90.9601 49.4501 84.9992 52.4494 81.9395 55.0418Z" fill="#D3766A"/>
<path id="Vector_87" d="M60.918 73.9206L76.4054 81.8328C76.4054 81.8328 86.0325 65.1148 88.2511 57.3659C90.4697 49.6171 87.1571 49.8348 79.8857 55.8677C72.6143 61.9007 60.918 73.9206 60.918 73.9206Z" fill="#C7C7C7"/>
<path id="Vector_88" d="M60.918 73.9206L76.4054 81.8328C76.4054 81.8328 86.0325 65.1148 88.2511 57.3659C90.4697 49.6171 87.1571 49.8348 79.8857 55.8677C72.6143 61.9007 60.918 73.9206 60.918 73.9206Z" fill="#1F4EAD"/>
<path id="Vector_89" opacity="0.1" d="M88.2504 57.3681C86.0318 65.1198 76.4016 81.8406 76.4016 81.8406L62.3008 74.6332L88.2717 51.6875C89.1372 52.312 89.1738 54.1539 88.2504 57.3681Z" fill="black"/>
<path id="Vector_90" d="M64.1057 71.6922C70.0758 75.4907 75.863 77.9572 77.0241 78.5845C77.079 78.6161 77.1247 78.5301 77.0668 78.5015C75.8935 77.9429 69.5394 74.2246 64.1514 71.6006C64.0905 71.5691 64.0387 71.655 64.1057 71.6922Z" fill="#263238"/>
<path id="Vector_91" d="M72.9123 103.671L118.262 103.794C118.262 103.794 114.301 71.7104 97.6551 52.7723C93.803 48.3866 87.5983 50.7671 84.9805 53.0989C78.3369 59.0086 72.7843 103.516 72.9123 103.671Z" fill="#1F4EAD"/>
<path id="Vector_92" d="M88.5179 51.0234C89.6059 51.7711 90.6511 52.5961 91.6964 53.361L94.744 55.5811C95.6582 56.2543 96.5725 57.0134 97.6117 57.5433C98.5473 58.0246 99.6352 58.2394 100.638 57.8098C100.883 57.7029 101.113 57.5682 101.324 57.4087L101.427 57.5605C100.917 57.9597 100.286 58.1982 99.623 58.2423C98.6204 58.2967 97.6848 57.867 96.8803 57.3514C95.8624 56.704 94.9146 55.9563 93.9425 55.2488C92.0561 53.8766 90.194 52.4443 88.2558 51.1323C88.332 51.0951 88.4234 51.0578 88.5179 51.0234ZM106.605 76.5445C108.21 76.5353 109.811 76.6687 111.389 76.9426C111.353 76.8424 111.313 76.7392 111.271 76.639C109.884 76.4004 108.478 76.2767 107.068 76.2694C102.963 76.1978 97.4715 76.4385 94.9908 72.6571C94.0126 71.1675 93.6956 69.1881 94.7714 67.6612C95.7192 66.3148 97.4898 65.7333 99.1507 65.7477C100.017 65.7527 100.874 65.9121 101.677 66.2174C102.625 66.6239 103.5 67.1671 104.27 67.8274C105.745 69.0076 107.12 70.3912 108.967 71.0472L108.82 70.7149C108.271 70.4929 107.749 70.2132 107.266 69.8813C105.55 68.7154 104.164 67.0998 102.256 66.1888C100.795 65.4964 99.1223 65.3088 97.5294 65.6589C96.0056 66.0055 94.6495 66.9365 94.0857 68.3545C93.4579 69.9357 93.9486 71.7462 94.9512 73.0954C97.5294 76.553 102.604 76.4958 106.605 76.5445ZM99.6444 61.803C100.844 61.2625 102.085 60.8057 103.356 60.4366C103.301 60.3535 103.247 60.2647 103.189 60.1817C100.263 60.9523 97.5599 62.6911 94.5428 63.1781C90.8817 63.7237 87.1346 62.9976 84.0015 61.1356C83.1431 60.631 82.3424 60.0445 81.6122 59.3853C81.5757 59.477 81.5421 59.5686 81.5086 59.6718C82.2062 60.2883 82.9632 60.8426 83.7699 61.3275C86.7956 63.1494 90.3964 63.9365 93.9668 63.5562C95.9691 63.3013 97.8098 62.5822 99.6444 61.803ZM102.387 92.2398C104.623 92.9994 106.908 93.6252 109.229 94.1132C111.801 94.6862 114.982 95.1674 117.061 96.8031C117.033 96.6628 117.003 96.5167 116.973 96.382C114.897 94.8953 111.92 94.4198 109.442 93.8755C107.115 93.3831 104.822 92.7574 102.576 92.002C100.647 91.3346 98.7393 90.4379 97.3283 88.9913C96.7199 88.3792 96.2501 87.6573 95.9473 86.8694C95.6445 86.0816 95.515 85.2441 95.5668 84.4079C95.6856 82.7177 96.7096 81.1794 98.4802 80.6523C100.379 80.0794 102.497 80.7526 104.082 81.7695C105.892 82.9354 107.193 84.6857 108.586 86.2441C109.905 87.7308 111.368 89.1087 113.297 89.8593C114.021 90.1476 114.792 90.3172 115.577 90.3606C115.555 90.2775 115.537 90.1887 115.513 90.1028C113.974 90.0111 112.465 89.3007 111.271 88.4298C109.512 87.1522 108.251 85.3732 106.803 83.8092C105.477 82.3768 103.96 81.1049 102.003 80.5091C100.309 79.9935 98.3614 80.045 96.929 81.1422C95.6796 82.1047 95.1828 83.6631 95.2681 85.1384C95.372 86.7516 96.103 88.2727 97.3222 89.4124C98.7179 90.7387 100.54 91.5924 102.384 92.234L102.387 92.2398ZM96.8742 99.536C96.5511 100.92 96.7035 102.335 96.6151 103.733H96.8955C97.0022 102.014 96.7127 100.218 97.4715 98.5993C97.6526 98.1854 97.927 97.8133 98.2758 97.5086C98.6246 97.204 99.0396 96.9741 99.492 96.8346C100.505 96.5893 101.579 96.7025 102.509 97.1526C104.478 98.0578 105.529 100.017 106.486 101.759C106.858 102.426 107.239 103.117 107.678 103.764H108.007C106.922 102.217 106.23 100.453 105.06 98.9516C103.929 97.5193 102.229 96.3333 100.233 96.4594C98.3827 96.5768 97.2429 97.9289 96.8711 99.536H96.8742ZM79.095 103.693H79.4546C79.8603 103.021 80.1504 102.293 80.314 101.536C80.7528 99.6334 80.6187 97.6654 80.4785 95.7404C80.1433 91.2801 79.3235 86.7254 80.3627 82.2938C80.7601 80.4788 81.5124 78.7488 82.5813 77.1919C83.7028 75.6163 85.3241 74.1353 87.2837 73.5337C87.7991 73.3537 88.348 73.2734 88.8973 73.2975C89.4466 73.3216 89.9851 73.4497 90.4805 73.6741C91.3152 74.1156 91.9758 74.7989 92.3639 75.622C93.3543 77.6044 92.7417 79.8474 91.797 81.7323C89.9472 85.4105 86.9454 88.51 85.4551 92.3658C84.7961 94.0877 84.5205 95.9186 84.6452 97.7448C84.77 99.571 85.2925 101.354 86.1805 102.982C86.3145 103.226 86.4547 103.466 86.6041 103.704H86.9362C86.2033 102.572 85.6567 101.343 85.315 100.057C84.8154 98.2282 84.7509 96.318 85.126 94.4627C85.5405 92.4575 86.4882 90.6155 87.564 88.8738C88.6398 87.1321 89.9228 85.4363 91.0169 83.6573C92.1109 81.8784 93.1714 79.8818 93.1501 77.7591C93.1288 76.1205 92.3181 74.3845 90.7761 73.528C88.9476 72.5082 86.7564 73.2014 85.1565 74.2728C82.0084 76.384 80.4115 79.9276 79.8264 83.4224C79.0645 87.9829 80.0184 92.5893 80.2469 97.1555C80.3414 98.9774 80.3353 100.859 79.6557 102.598C79.512 102.981 79.324 103.348 79.095 103.693ZM83.6419 65.1919C82.6631 64.4125 81.4343 63.9646 80.1525 63.92C80.1311 63.9945 80.1098 64.0747 80.0854 64.1492C80.3925 64.1632 80.6981 64.1986 80.9997 64.2552C82.8709 64.6047 84.7664 65.974 84.7877 67.9076C84.8152 70.0131 82.9135 71.5772 81.0728 72.448C79.994 72.9579 78.8634 73.3533 77.7571 73.7915C77.7388 73.8832 77.7175 73.972 77.6992 74.078C78.4001 73.7915 79.1133 73.5452 79.8325 73.2702C81.7372 72.5368 83.6571 71.5514 84.6049 69.7467C85.0238 68.9972 85.1567 68.1354 84.9815 67.305C84.8063 66.4746 84.3334 65.7257 83.6419 65.1833V65.1919Z" fill="white"/>
<path id="Vector_93" d="M100.843 54.2037C114.051 63.7343 127.823 79.9195 128.039 89.2525C128.243 98.4766 122.73 97.5599 121.804 97.2734C111.991 94.4088 100.167 68.8133 95.7843 58.3946C91.4324 48.0619 97.564 51.8461 100.843 54.2037Z" fill="#D3766A"/>
<path id="Vector_94" d="M122.06 72.7953L106.725 80.9681C106.725 80.9681 96.7781 64.4134 94.4133 56.7018C92.0484 48.9902 95.3671 49.1592 102.766 55.0632C110.166 60.9672 122.06 72.7953 122.06 72.7953Z" fill="#1F4EAD"/>
<path id="Vector_95" d="M118.831 70.618C112.931 74.5139 107.193 77.0806 106.031 77.7252C105.977 77.7567 105.931 77.6707 105.986 77.6421C107.147 77.0692 113.431 73.2392 118.767 70.5263C118.843 70.4948 118.895 70.5808 118.831 70.618Z" fill="#263238"/>
<path id="Vector_96" d="M107.707 80.4004C107.395 80.5136 107.09 80.6427 106.793 80.7872C105.321 78.0342 105.589 78.6645 104.086 75.9173C103.353 74.5805 102.618 73.2369 101.88 71.8867C101.118 70.4888 100.436 69.0221 99.5944 67.6757C99.59 67.6674 99.5822 67.661 99.5728 67.6581C99.5633 67.6551 99.553 67.6558 99.5442 67.66C99.5353 67.6641 99.5285 67.6715 99.5254 67.6803C99.5222 67.6892 99.5229 67.6989 99.5274 67.7072C100.015 69.0307 100.676 70.3141 101.301 71.5917C101.164 71.394 101.033 71.1906 100.88 70.9987C100.542 70.5719 100.21 70.1393 99.9114 69.6924C99.8626 69.6237 99.7407 69.6781 99.7864 69.7497C100.091 70.1794 100.329 70.6234 100.582 71.0761C100.835 71.5287 101.112 71.9555 101.396 72.3909C101.679 72.8263 101.975 73.2045 102.279 73.6027L102.389 73.7516C102.791 74.5508 103.181 75.3529 103.608 76.1436C105.083 78.9137 106.601 81.0937 106.656 81.0793C107.043 80.9054 107.415 80.7023 107.768 80.472C107.792 80.4491 107.75 80.3976 107.707 80.4004Z" fill="#263238"/>
<path id="Vector_97" d="M62.0153 97.7231C66.5622 97.0986 69.1373 89.1607 74.184 76.5248C75.0678 74.3076 63.3318 61.6087 61.738 63.6512C59.7297 66.2293 54.4239 80.4923 53.8815 84.3711C52.8362 92.0139 56.7248 98.4536 62.0153 97.7231Z" fill="#D3766A"/>
<path id="Vector_98" d="M69.0117 89.3112C69.4201 88.2369 69.8528 87.1713 70.2886 86.1056L71.6082 82.9173C72.0653 81.8603 72.5042 80.7975 72.9461 79.7376C73.1716 79.2066 73.389 78.6748 73.5982 78.142C73.8146 77.6091 74.0249 77.0734 74.1864 76.5234C73.9336 77.642 73.5923 78.7412 73.1655 79.812C72.7663 80.892 72.3244 81.9576 71.8916 83.0233C71.4589 84.0889 70.9774 85.1403 70.502 86.1887C70.0265 87.2372 69.5267 88.2828 69.0117 89.3112Z" fill="#263238"/>
<path id="Vector_99" d="M57.5234 72.8127C58.1604 68.4756 59.4617 62.4255 61.1104 61.1565C62.8413 59.8273 69.1284 55.3785 70.9416 54.7884C72.7549 54.1983 80.8491 51.3021 82.3363 52.1099C83.5279 52.7574 82.1169 55.6993 78.2679 57.1116C74.8821 58.3491 73.1389 59.5064 72.1728 59.8989C71.2068 60.2913 68.8206 63.3049 69.4605 64.6341C69.8415 65.4162 72.2673 66.3357 73.7758 65.694C75.2843 65.0524 75.6561 62.2565 77.378 60.9244C79.0998 59.5924 82.1412 59.7614 82.318 60.532C82.4948 61.3026 81.4891 61.6635 79.9349 64.2875C78.9353 65.9719 78.8682 70.0168 76.6009 72.9215C75.4611 74.3796 73.4833 78.2583 73.4833 78.2583L57.5234 72.8127Z" fill="#D3766A"/>
<path id="Vector_100" d="M78.9924 59.7245C79.5488 59.6491 80.0709 59.4265 80.4979 59.0828C80.6698 58.9276 80.7895 58.7284 80.8422 58.5099C80.8621 58.3903 80.8621 58.2686 80.8422 58.149C80.8379 58.0209 80.7862 57.8984 80.696 57.8023C80.6655 57.7823 80.7112 57.7479 80.7264 57.7766C80.7677 57.8369 80.8135 57.8943 80.8636 57.9484C80.899 57.9998 80.9286 58.0546 80.9519 58.1117C80.9975 58.2251 81.0193 58.3458 81.016 58.4669C81.0037 58.7321 80.8963 58.9855 80.7112 59.186C80.4888 59.4 80.217 59.563 79.9168 59.6624C79.6167 59.7617 79.2962 59.7947 78.9802 59.7589C78.9741 59.7675 78.9741 59.7302 78.9924 59.7245Z" fill="#263238"/>
<path id="Vector_101" d="M61.1133 61.154C62.5791 58.9912 66.3306 55.0839 70.0486 53.7432C72.5597 52.8351 81.2086 56.7883 80.9587 58.341C80.7088 59.8936 79.2308 59.9022 77.0426 59.6587C76.2472 59.5699 72.0325 58.149 71.3133 58.9798C70.2832 60.1772 68.9728 64.2593 68.9728 64.2593L61.1133 61.154Z" fill="#D3766A"/>
<path id="Vector_102" d="M80.7432 57.7339C79.6736 56.0724 77.327 55.1873 74.9895 54.4883C74.953 54.4883 74.9316 54.5284 74.9682 54.5398C75.5625 54.7175 79.3719 56.3618 80.7189 57.7626C80.7341 57.7769 80.7554 57.7511 80.7432 57.7339Z" fill="#263238"/>
<path id="Vector_103" d="M61.1133 61.1519C62.5791 58.9891 66.3306 55.0817 70.0486 53.7411C72.5597 52.833 79.4045 57.8919 79.1515 59.4474C78.8986 61.0029 76.7805 61.1261 74.434 60.3612C73.6751 60.112 71.1335 58.4333 70.4143 59.2641C69.3842 60.4586 66.87 63.4264 66.87 63.4264L61.1133 61.1519Z" fill="#D3766A"/>
<path id="Vector_104" d="M68.304 61.585C68.5417 61.2441 68.6087 61.1238 68.8617 60.7858C69.1146 60.4478 69.3493 60.1155 69.6174 59.7975C69.8258 59.5011 70.0878 59.2413 70.3915 59.0298C70.7055 58.8615 71.069 58.7932 71.4277 58.835C72.2414 58.9066 72.9758 59.3907 73.6676 59.7631C74.4386 60.1785 76.0355 60.8517 77.2606 60.7285C77.5973 60.7101 77.9262 60.6262 78.2267 60.4821C78.4542 60.3842 78.6521 60.2346 78.8027 60.0467C79.3329 59.1873 78.6686 58.2363 77.992 57.5516C76.7273 56.2769 75.0268 55.3545 73.3781 54.5953C72.9728 54.4091 72.5644 54.2344 72.1591 54.0568C71.7001 53.8263 71.1941 53.6906 70.6749 53.6586C69.8247 53.6586 68.432 54.4664 68.0023 54.7128C67.9687 54.73 67.9444 54.6813 67.9748 54.6612C68.499 54.3547 69.8033 53.3578 71.1625 53.4208C71.6634 53.492 72.1472 53.6452 72.5918 53.8734C73.0703 54.0654 73.5426 54.2745 74.0089 54.4922C74.9188 54.9126 75.793 55.3981 76.6237 55.9446C77.4038 56.4688 78.2358 57.0904 78.7569 57.8438C78.9999 58.1773 79.1424 58.5665 79.1693 58.9699C79.1961 59.3734 79.1063 59.7762 78.9093 60.1355C78.5345 60.7085 77.733 60.8631 77.3673 60.909C77.0082 60.9534 76.6445 60.9534 76.2854 60.909C75.4859 60.7468 74.6997 60.5314 73.9327 60.2644C73.1891 59.978 72.5187 59.5139 71.7538 59.2962C71.5731 59.238 71.3819 59.2144 71.1914 59.2267C71.0009 59.239 70.8149 59.287 70.6445 59.3678C70.3319 59.5643 70.0524 59.8037 69.8155 60.0782C69.304 60.5511 68.8408 61.0681 68.432 61.6223C68.3314 61.7827 68.2186 61.734 68.304 61.585Z" fill="#263238"/>
<path id="Vector_105" d="M60.0273 63.0426C60.5637 62.0113 61.4688 57.7659 62.3404 56.4539C63.212 55.1419 67.186 50.6473 69.0449 50.8421C71.3824 51.0856 68.9505 55.0416 67.7284 56.6716C66.5064 58.3016 66.7166 61.0717 66.7166 61.0717L60.0273 63.0426Z" fill="#D3766A"/>
<path id="Vector_106" d="M69.4361 53.982C69.0003 54.4977 68.6163 55.0706 68.2384 55.6235C67.8494 56.1373 67.5011 56.6773 67.1962 57.2391C66.9404 57.8142 66.787 58.4249 66.7421 59.0467C66.7116 59.3532 66.7025 59.6569 66.6994 59.9634C66.6964 60.2699 66.7299 60.6366 66.7238 60.9689C66.7223 60.9732 66.7219 60.9778 66.7226 60.9822C66.7234 60.9867 66.7252 60.991 66.7281 60.9946C66.7309 60.9983 66.7346 61.0013 66.7389 61.0033C66.7432 61.0054 66.7479 61.0065 66.7527 61.0065C66.7576 61.0065 66.7623 61.0054 66.7666 61.0033C66.7709 61.0013 66.7746 60.9983 66.7774 60.9946C66.7803 60.991 66.7821 60.9867 66.7829 60.9822C66.7836 60.9778 66.7832 60.9732 66.7817 60.9689C66.8232 60.358 66.9077 59.7503 67.0346 59.1498C67.1481 58.5251 67.3437 57.916 67.6167 57.3365C68.1622 56.1907 68.9607 55.1594 69.5153 54.0164C69.5275 53.9735 69.4666 53.9448 69.4361 53.982Z" fill="#263238"/>
<path id="Vector_107" d="M66.7426 61.5508C66.7766 62.0649 66.8906 62.5716 67.0809 63.0547C67.254 63.5454 67.4638 64.0241 67.7086 64.487C67.9452 64.9491 68.2087 65.3986 68.498 65.8334C68.7783 66.2717 69.1074 66.667 69.4518 67.0853C70.1523 67.9018 70.7108 68.8174 71.1066 69.7981C71.4775 70.7791 71.6632 71.8135 71.6552 72.8546C71.5537 71.8288 71.2972 70.8217 70.8933 69.8639C70.46 68.9227 69.8931 68.041 69.208 67.2428C68.8596 66.8368 68.538 66.4111 68.245 65.968C67.9586 65.5193 67.7041 65.0533 67.4831 64.573C67.0626 63.619 66.6725 62.5992 66.7426 61.5508Z" fill="#263238"/>
<path id="Vector_108" d="M83.4189 55.4866C83.4847 56.1594 83.5864 56.8287 83.7237 57.4919C83.8318 58.0959 83.998 58.6894 84.2204 59.2651C84.6562 60.2992 85.4882 61.2703 86.7712 61.5367C87.3679 61.6443 87.9816 61.6381 88.5758 61.5185C89.1699 61.399 89.7325 61.1684 90.2301 60.8406C91.2937 60.1818 92.1226 59.2479 92.8814 58.3398C93.3548 57.7783 93.7987 57.1997 94.2132 56.6038C94.4204 56.3002 94.6338 56.0023 94.8227 55.69C95.0117 55.3778 95.1915 55.0627 95.4048 54.7647C95.4231 54.739 95.4779 54.7647 95.4627 54.7848C95.0482 55.4895 93.8048 57.7239 93.3904 58.2768C92.6315 59.2851 91.8057 60.3135 90.7055 61.0583C89.6515 61.8122 88.327 62.1512 87.0119 62.0037C86.3817 61.9109 85.7871 61.6683 85.2846 61.2988C84.7822 60.9293 84.3886 60.4452 84.1412 59.8924C83.85 59.2323 83.6642 58.5353 83.5896 57.8242C83.486 57.045 83.4311 56.2601 83.3945 55.478C83.4006 55.478 83.4189 55.478 83.4189 55.4866Z" fill="#263238"/>
<path id="Vector_109" d="M87.8067 59.5926C90.6043 59.521 94.0541 54.6196 94.9745 51.1161C95.0354 50.8755 91.738 42.7199 91.2626 41.0384C91.159 40.6946 80.7578 46.401 80.7578 46.401C80.7578 46.401 82.8576 49.6466 83.6651 52.58C83.7291 52.8263 85.1005 59.6613 87.8067 59.5926Z" fill="#D3766A"/>
<path id="Vector_110" d="M80.7578 46.3996C80.7578 46.3996 82.8576 49.6453 83.6651 52.5815C83.6651 52.6388 83.7688 53.0656 83.9303 53.6844C89.1324 51.8883 91.6588 47.9551 92.8168 45.3111C92.1068 43.4605 91.4515 41.7217 91.2626 41.0428C91.159 40.6933 80.7578 46.3996 80.7578 46.3996Z" fill="#263238"/>
<path id="Vector_111" d="M74.7893 27.391C74.1219 27.497 71.8819 32.4986 72.208 34.6872C72.5341 36.8758 74.0548 41.1155 74.7496 41.0954C75.4445 41.0754 75.3165 27.3079 74.7893 27.391Z" fill="#263238"/>
<path id="Vector_112" d="M90.7946 29.3336C93.0924 32.7511 94.1316 44.0607 92.0136 47.1889C88.9325 51.7236 82.3225 53.7775 77.8274 49.9704C73.4664 46.2751 72.3876 31.5136 74.9079 28.5201C78.6137 24.1114 87.3996 24.2861 90.7946 29.3336Z" fill="#D3766A"/>
<path id="Vector_113" d="M82.1479 36.5525C82.5026 36.5992 82.8596 36.6289 83.2175 36.6413C83.629 36.6699 83.955 36.7358 84.3299 36.5381C84.4292 36.4707 84.5021 36.3744 84.5373 36.2641C84.5726 36.1538 84.5682 36.0357 84.5249 35.928C84.3116 35.4782 83.8179 35.3235 83.3242 35.2691C82.8294 35.1961 82.3234 35.2982 81.9041 35.5556C81.8102 35.6196 81.7384 35.7082 81.6977 35.8103C81.657 35.9124 81.6492 36.0235 81.6752 36.1298C81.7012 36.2361 81.7599 36.3328 81.8439 36.408C81.9279 36.4831 82.0337 36.5334 82.1479 36.5525Z" fill="#263238"/>
<path id="Vector_114" d="M82.6256 39.0245C82.6256 38.993 82.6927 39.0531 82.6957 39.0847C82.7536 39.8495 82.9578 40.7146 83.7166 40.898C83.741 40.898 83.7441 40.9409 83.7166 40.9409C82.7963 40.9094 82.5373 39.755 82.6256 39.0245Z" fill="#263238"/>
<path id="Vector_115" d="M83.2542 38.1625C84.5494 37.9419 84.9181 40.3912 83.7205 40.5917C82.5228 40.7922 82.1723 38.3458 83.2542 38.1625Z" fill="#263238"/>
<path id="Vector_116" d="M77.9596 39.5299C77.9596 39.5012 77.9017 39.5757 77.9078 39.6044C78.048 40.3606 78.0724 41.2458 77.3806 41.5953C77.3592 41.5953 77.3806 41.644 77.3806 41.6383C78.2674 41.4119 78.2186 40.2346 77.9596 39.5299Z" fill="#263238"/>
<path id="Vector_117" d="M77.118 38.8411C75.8076 38.9242 76.0758 41.3821 77.2887 41.3076C78.5016 41.2331 78.2182 38.7753 77.118 38.8411Z" fill="#263238"/>
<path id="Vector_118" d="M75.9254 37.5395C76.2644 37.4257 76.597 37.2956 76.9219 37.1499C77.3028 36.9952 77.6228 36.9092 77.8575 36.5769C77.9122 36.4736 77.9292 36.3563 77.9061 36.243C77.883 36.1296 77.821 36.0266 77.7295 35.9496C77.3181 35.6431 76.8 35.7233 76.3337 35.8894C75.8579 36.044 75.4603 36.3596 75.2183 36.7746C75.1707 36.8718 75.1539 36.9798 75.17 37.0857C75.1861 37.1917 75.2343 37.291 75.309 37.3717C75.3837 37.4525 75.4815 37.5113 75.5909 37.541C75.7002 37.5708 75.8164 37.5702 75.9254 37.5395Z" fill="#263238"/>
<path id="Vector_119" d="M84.2943 45.2269C84.1297 45.4303 83.9895 45.6995 83.6848 45.7625C83.3839 45.7979 83.0784 45.7725 82.7888 45.6881C82.7858 45.6862 82.7824 45.6849 82.7789 45.6842C82.7754 45.6836 82.7717 45.6836 82.7682 45.6842C82.7646 45.6849 82.7613 45.6862 82.7583 45.6881C82.7553 45.69 82.7527 45.6924 82.7507 45.6952C82.7487 45.6981 82.7473 45.7012 82.7466 45.7045C82.7459 45.7079 82.7459 45.7113 82.7466 45.7146C82.7473 45.7179 82.7487 45.7211 82.7507 45.7239C82.7527 45.7267 82.7553 45.7292 82.7583 45.731C82.895 45.8671 83.0684 45.9656 83.2601 46.016C83.4517 46.0665 83.6544 46.067 83.8463 46.0175C84.0043 45.9554 84.1393 45.8507 84.2342 45.7166C84.329 45.5826 84.3797 45.4251 84.3796 45.2641C84.3826 45.2068 84.3187 45.1982 84.2943 45.2269Z" fill="#263238"/>
<path id="Vector_120" d="M83.106 43.0656C82.9464 43.3932 82.7165 43.6863 82.4307 43.9263C82.1449 44.1664 81.8093 44.3483 81.4451 44.4606C81.1284 44.5622 80.798 44.621 80.4638 44.6354C80.3999 44.6411 80.3356 44.6411 80.2718 44.6354C80.2119 44.6383 80.1519 44.6383 80.092 44.6354C80.0475 44.6333 80.005 44.6176 79.9709 44.5908C79.9368 44.5639 79.9129 44.5272 79.903 44.4864C79.9 44.4607 79.9 44.4348 79.903 44.4091V44.3432C79.7964 43.7703 79.7232 42.865 79.7232 42.865C79.5129 43.0026 78.428 43.6442 78.4006 43.3377C78.1812 40.7911 77.9343 37.9608 78.2848 35.3855C78.2883 35.3693 78.2976 35.3547 78.3112 35.3443C78.3248 35.3338 78.3419 35.3281 78.3595 35.3281C78.377 35.3281 78.3941 35.3338 78.4077 35.3443C78.4213 35.3547 78.4306 35.3693 78.4341 35.3855C78.7389 37.8262 78.6078 40.3012 78.8852 42.7533C79.2693 42.5186 79.6869 42.3363 80.1255 42.2119C80.2169 42.2119 80.2352 43.9307 80.3053 44.2028C80.3031 44.2113 80.3031 44.2201 80.3053 44.2286C81.3658 44.2286 82.1094 43.8132 83.0206 43.0197C83.0724 42.9624 83.1425 42.9997 83.106 43.0656Z" fill="#263238"/>
<path id="Vector_121" d="M92.2071 39.0376C90.1104 39.4816 88.7512 37.3933 87.581 34.3826C86.8953 32.6208 86.8923 28.9398 86.8923 28.9398C86.8923 28.9398 81.809 32.0106 78.6975 32.1424C75.586 32.2742 72.6025 30.1171 72.4196 27.8455C72.2642 25.8832 75.394 22.9154 79.9592 22.1534C83.1438 21.6235 88.8975 23.3566 91.7469 26.2928C91.7469 26.2928 96.0348 27.5962 95.8428 30.5325C95.6508 33.4687 94.5872 38.5334 92.2071 39.0376Z" fill="#263238"/>
<path id="Vector_122" d="M92.0167 38.8314C89.3014 39.7395 87.2595 35.9668 86.8969 33.9186C86.519 31.7845 87.0858 29.5071 87.1833 27.3672H87.1651C86.5799 30.0227 86.0131 33.36 87.3113 35.8952C88.1281 37.4937 89.8255 40.0919 92.0716 38.9718C92.1477 38.9317 92.102 38.8028 92.0167 38.8314Z" fill="#263238"/>
<path id="Vector_123" d="M96.3413 29.5876C95.6983 27.8688 93.3121 26.405 91.4653 26.2188C91.447 26.2188 91.4409 26.2445 91.4653 26.2474C93.7144 26.7115 96.5303 28.7253 96.1859 31.0714C95.9086 32.9449 95.3235 35.44 94.2172 37.0385C94.1898 37.0786 94.2538 37.1158 94.2842 37.0786C95.1802 35.9814 95.4514 34.6608 95.808 33.3546C96.1036 32.2001 96.7741 30.7764 96.3413 29.5876Z" fill="#263238"/>
<path id="Vector_124" d="M92.1864 26.5032C89.1754 23.4093 83.1627 20.2239 78.6523 21.8567C78.6523 21.8567 78.6523 21.8825 78.6523 21.8768C83.4979 20.5447 88.5263 23.9393 92.034 26.6664C92.1437 26.7466 92.2717 26.5891 92.1864 26.5032Z" fill="#263238"/>
<path id="Vector_125" d="M90.8555 39.3343C90.8555 39.3343 92.4859 35.2007 94.418 35.6561C96.3501 36.1116 95.8016 41.6719 94.0127 42.8378C93.7944 43.0039 93.5427 43.1269 93.2726 43.1993C93.0026 43.2717 92.7197 43.292 92.4411 43.2591C92.1624 43.2262 91.8937 43.1407 91.6511 43.0078C91.4085 42.8748 91.1969 42.6972 91.0292 42.4854L90.8555 39.3343Z" fill="#D3766A"/>
<path id="Vector_126" d="M94.231 37.2344C94.2645 37.2344 94.2798 37.263 94.2554 37.2831C93.0151 38.1425 92.6189 39.5433 92.4574 40.924C92.7347 40.3511 93.2253 39.9357 94.0421 40.2279C94.0847 40.2422 94.0665 40.3053 94.0238 40.3053C93.7591 40.2926 93.4967 40.357 93.2725 40.4898C93.0483 40.6226 92.8733 40.8173 92.7713 41.0472C92.6062 41.4333 92.4847 41.8347 92.4086 42.2446C92.3751 42.3793 92.1343 42.3707 92.1435 42.2246C92.1421 42.2141 92.1421 42.2035 92.1435 42.1931C91.6467 40.543 92.3812 37.8761 94.231 37.2344Z" fill="#263238"/>
<path id="Vector_127" d="M85.2797 57.6706L91.6794 75.6061C91.9293 76.1274 91.6794 76.5829 91.1187 76.623L81.0741 77.3363C80.7675 77.3379 80.4667 77.2581 80.2063 77.1061C79.9459 76.954 79.7365 76.7359 79.6021 76.4769L73.2024 58.5414C72.9525 58.0172 73.2024 57.5617 73.7631 57.5216L83.8016 56.7969C84.1107 56.7962 84.4136 56.8779 84.6753 57.0325C84.9369 57.1872 85.1465 57.4084 85.2797 57.6706Z" fill="#37474F"/>
<path id="Vector_128" d="M84.0904 57.7498L90.4902 75.6852C90.7401 76.2066 90.4902 76.6649 89.9295 76.705L79.8879 77.4298C79.5799 77.4294 79.2782 77.3472 79.0178 77.1926C78.7573 77.038 78.5487 76.8173 78.4159 76.5561L72.0162 58.6206C71.7632 58.0992 72.0162 57.6438 72.5769 57.6037L82.6307 56.8789C82.9364 56.8805 83.2356 56.963 83.4937 57.117C83.7519 57.2711 83.9587 57.4903 84.0904 57.7498Z" fill="#455A64"/>
<path id="Vector_129" d="M81.4103 58.7818C81.4268 58.9403 81.493 59.0906 81.6004 59.2138C81.7078 59.3369 81.8516 59.4273 82.0137 59.4736C82.1758 59.5199 82.3489 59.5199 82.511 59.4738C82.6731 59.4276 82.817 59.3372 82.9245 59.2141C83.032 59.091 83.0982 58.9408 83.1148 58.7823C83.1314 58.6238 83.0977 58.4643 83.0178 58.3238C82.9379 58.1834 82.8155 58.0684 82.6661 57.9934C82.5166 57.9184 82.3469 57.8867 82.1783 57.9023C81.9524 57.9234 81.7447 58.0278 81.6007 58.1927C81.4567 58.3576 81.3882 58.5695 81.4103 58.7818Z" fill="#263238"/>
<path id="Vector_130" d="M123.869 97.3882C119.499 97.9869 113.983 94.8386 99.6897 85.2593C97.7089 83.9244 103.907 68.2921 106.09 69.6012C108.848 71.2541 119.169 78.2381 119.855 78.8397C125.655 83.9244 126.84 96.9585 123.869 97.3882Z" fill="#D3766A"/>
<path id="Vector_131" d="M111.223 74.2643C111.223 74.2643 107.121 68.9819 104.052 66.8306C99.9407 63.9659 95.1317 63.0607 93.0808 62.8C88.8143 62.2557 78.148 63.7081 78.0413 66.6759C77.956 69.3629 88.8051 67.3577 88.8051 67.3577C88.8051 67.3577 77.3861 67.6842 77.9163 70.9356C78.4466 74.1869 90.9049 71.1905 90.9049 71.1905C90.9049 71.1905 79.178 71.7635 80.2904 75.0463C81.1315 77.5185 92.5749 75.3987 92.5749 75.3987C92.5749 75.3987 82.4998 75.9716 83.2464 78.5498C84.0754 81.3972 94.766 80.0652 94.766 80.0652C97.8654 86.3101 102.04 88.1062 105.179 89.0487C105.938 89.275 111.223 74.2643 111.223 74.2643Z" fill="#D3766A"/>
<path id="Vector_132" d="M92.7599 67.01C91.416 67.01 90.0568 66.9871 88.7189 67.0902C87.381 67.1933 86.0432 67.3451 84.7206 67.5657C81.475 68.11 79.5398 68.9293 79.6617 68.8892C82.6361 67.9868 87.4207 67.5399 88.7616 67.434C90.1025 67.328 91.4281 67.1618 92.766 67.0558C92.7995 67.053 92.7904 67.01 92.7599 67.01Z" fill="#263238"/>
<path id="Vector_133" d="M93.2549 71.5508C91.5391 71.6109 89.8356 71.6109 88.1229 71.7427C86.4102 71.8745 84.8133 72.1409 83.1219 72.3815C82.9909 72.3987 83.0457 72.4589 83.1768 72.4445C84.8742 72.2669 86.462 72.2268 88.1625 72.0693C89.863 71.9117 91.5605 71.6883 93.261 71.588C93.2976 71.588 93.2976 71.5508 93.2549 71.5508Z" fill="#263238"/>
<path id="Vector_134" d="M94.4183 75.3692C91.7913 75.3348 89.1613 75.7559 86.5923 76.2285C86.4643 76.2515 86.5435 76.3231 86.6745 76.3059C89.271 75.9736 91.3037 75.6957 94.4183 75.4465C94.464 75.4494 94.4731 75.3692 94.4183 75.3692Z" fill="#263238"/>
<path id="Vector_135" d="M115.926 76.0859C117.059 76.7878 118.15 77.5469 119.208 78.3519C119.738 78.7504 120.247 79.1739 120.732 79.6209C121.234 80.0653 121.675 80.5666 122.045 81.1134C122.749 82.2136 123.34 83.3742 123.81 84.5796C124.297 85.7747 124.643 87.0169 124.84 88.2835C124.694 87.6623 124.511 87.0492 124.291 86.4473C124.081 85.8429 123.849 85.247 123.59 84.6598C123.095 83.4821 122.491 82.3472 121.786 81.2681C121.438 80.7325 121.018 80.2414 120.537 79.8071C120.064 79.3573 119.555 78.9477 119.049 78.518C118.544 78.0883 118.019 77.693 117.495 77.2891C116.971 76.8852 116.459 76.4784 115.926 76.0859Z" fill="#263238"/>
</g>
<g id="Icons">
<path id="Vector_136" d="M72.6523 19.9345C72.6523 19.9345 71.3997 29.3591 69.3396 31.4818C66.8681 34.0256 65.0731 33.6532 64.0766 34.9652C63.077 33.6503 61.285 34.0256 58.8105 31.4789C56.7534 29.3591 55.5039 19.9345 55.5039 19.9345C60.9285 17.4594 64.0796 14.6836 64.0796 14.6836C64.1741 14.7724 67.31 17.4967 72.6523 19.9345Z" fill="#1F4EAD"/>
<path id="Vector_137" opacity="0.2" d="M64.0766 14.6865V34.9652C63.077 33.6503 61.285 34.0256 58.8105 31.4789C56.7534 29.3591 55.5039 19.9345 55.5039 19.9345C60.9285 17.4594 64.0796 14.6836 64.0796 14.6836L64.0766 14.6865Z" fill="black"/>
<path id="Vector_138" opacity="0.1" d="M72.6538 19.9316C72.6538 19.9316 71.4013 29.3562 69.3412 31.4789C66.8696 34.0227 65.0747 33.6503 64.0781 34.9623V14.6836C64.1756 14.7695 67.3115 17.4938 72.6538 19.9316Z" fill="black"/>
<path id="Vector_139" d="M71.3238 20.6923C71.3238 20.6923 70.2663 28.6559 68.5262 30.4463C66.4387 32.6005 64.921 32.2826 64.0799 33.3912C63.2357 32.2826 61.7211 32.6005 59.6305 30.4463C57.8904 28.6559 56.8359 20.6923 56.8359 20.6923C61.4072 18.6011 64.0799 16.2578 64.0799 16.2578C64.0799 16.2578 66.7404 18.6068 71.3238 20.6923Z" fill="#1F4EAD"/>
<path id="Vector_140" opacity="0.1" d="M64.0768 16.2635V33.394C63.2357 32.2854 61.7181 32.6005 59.6305 30.4492C57.8904 28.6559 56.8359 20.6923 56.8359 20.6923C61.4072 18.6011 64.0768 16.2578 64.0768 16.2578V16.2635Z" fill="black"/>
<path id="Vector_141" d="M67.3232 23.3047H60.832V28.8392H67.3232V23.3047Z" fill="white"/>
<path id="Vector_142" d="M66.6717 25.0175H66.0104V22.5453C66.0104 22.0629 65.8065 21.6002 65.4436 21.259C65.0807 20.9179 64.5885 20.7263 64.0752 20.7263C63.562 20.7263 63.0698 20.9179 62.7069 21.259C62.3439 21.6002 62.1401 22.0629 62.1401 22.5453V25.0175H61.4788V22.5453C61.4544 22.2115 61.5033 21.8765 61.6224 21.5612C61.7416 21.246 61.9284 20.9571 62.1713 20.7125C62.4143 20.4679 62.7081 20.2729 63.0346 20.1396C63.361 20.0063 63.7132 19.9375 64.0691 19.9375C64.4251 19.9375 64.7772 20.0063 65.1037 20.1396C65.4302 20.2729 65.724 20.4679 65.9669 20.7125C66.2099 20.9571 66.3967 21.246 66.5159 21.5612C66.635 21.8765 66.6839 22.2115 66.6595 22.5453L66.6717 25.0175Z" fill="white"/>
<path id="Vector_143" d="M64.2812 26.1681L64.4914 27.102H63.6016L63.8118 26.1681C63.7297 26.1202 63.6663 26.0483 63.6315 25.9635C63.5966 25.8787 63.5921 25.7855 63.6186 25.6981C63.6451 25.6106 63.7013 25.5337 63.7785 25.4789C63.8557 25.4242 63.9498 25.3945 64.0465 25.3945C64.1432 25.3945 64.2373 25.4242 64.3145 25.4789C64.3917 25.5337 64.4479 25.6106 64.4744 25.6981C64.5009 25.7855 64.4964 25.8787 64.4615 25.9635C64.4267 26.0483 64.3633 26.1202 64.2812 26.1681Z" fill="#37474F"/>
<path id="Vector_144" d="M64.1865 57.211H62.8883V56.9933H64.0737V57.0678H64.1865V57.211ZM61.6692 57.211H60.4502V56.9933H61.6692V57.211ZM59.2312 57.211H58.0122V56.9933H59.2312V57.211ZM56.7932 57.211H55.5742V56.9933H56.7932V57.211ZM64.1865 55.9248H63.9579V54.779H64.1865V55.9248ZM64.1865 53.6331H63.9579V52.4873H64.1865V53.6331ZM64.1865 51.3414H63.9579V50.1956H64.1865V51.3414ZM64.1865 49.0497H63.9579V47.9038H64.1865V49.0497ZM64.1865 46.758H63.9579V45.6121H64.1865V46.758ZM64.1865 44.4663H63.9579V43.3204H64.1865V44.4663ZM64.1865 42.1746H63.9579V41.0287H64.1865V42.1746ZM64.1865 39.8829H63.9579V38.737H64.1865V39.8829ZM64.1865 37.5912H63.9579V36.4453H64.1865V37.5912Z" fill="#1F4EAD"/>
<path id="Vector_145" d="M64.5926 36.2107C64.5926 36.1149 64.5624 36.0213 64.5058 35.9417C64.4492 35.8621 64.3687 35.8001 64.2746 35.7634C64.1805 35.7268 64.077 35.7172 63.9771 35.7359C63.8771 35.7545 63.7854 35.8007 63.7133 35.8684C63.6413 35.9361 63.5923 36.0223 63.5724 36.1162C63.5525 36.2101 63.5627 36.3075 63.6017 36.396C63.6407 36.4844 63.7067 36.56 63.7914 36.6132C63.8761 36.6664 63.9757 36.6948 64.0775 36.6948C64.2141 36.6948 64.3451 36.6438 64.4417 36.553C64.5383 36.4622 64.5926 36.3391 64.5926 36.2107Z" fill="#1F4EAD"/>
<path id="Vector_146" d="M19.711 23.4279H4.07422V4.55859H15.6852L19.711 8.15657V23.4279Z" fill="#EBEBEB"/>
<path id="Vector_147" d="M15.6875 4.55859L19.7133 8.15657H15.6875V4.55859Z" fill="#DBDBDB"/>
<path id="Vector_148" d="M5.59842 8.20703L14.293 8.20703V7.72291L5.59842 7.72291V8.20703Z" fill="#DBDBDB"/>
<path id="Vector_149" d="M5.59842 9.43359L14.293 9.43359V8.94947L5.59842 8.94947V9.43359Z" fill="#DBDBDB"/>
<path id="Vector_150" d="M5.59842 10.6602L14.293 10.6602V10.176L5.59842 10.176V10.6602Z" fill="#DBDBDB"/>
<path id="Vector_151" d="M5.60124 11.8789L18.3398 11.8789V11.3948L5.60124 11.3948V11.8789Z" fill="#DBDBDB"/>
<path id="Vector_152" d="M5.60124 13.1016L18.3398 13.1016V12.6174L5.60124 12.6174V13.1016Z" fill="#DBDBDB"/>
<path id="Vector_153" d="M5.60124 14.3281L18.3398 14.3281V13.844L5.60124 13.844V14.3281Z" fill="#DBDBDB"/>
<path id="Vector_154" d="M5.60124 15.5508L18.3398 15.5508V15.0667L5.60124 15.0667V15.5508Z" fill="#DBDBDB"/>
<path id="Vector_155" d="M5.60124 16.7695H18.3398V16.2854H5.60124V16.7695Z" fill="#DBDBDB"/>
<path id="Vector_156" d="M5.60124 17.9922H18.3398V17.5081H5.60124V17.9922Z" fill="#DBDBDB"/>
<path id="Vector_157" d="M5.60124 19.2188H18.3398V18.7346H5.60124V19.2188Z" fill="#DBDBDB"/>
<path id="Vector_158" d="M5.60124 20.4414H18.3398V19.9573H5.60124V20.4414Z" fill="#DBDBDB"/>
<path id="Vector_159" d="M5.60124 21.6641H18.3398V21.1799H5.60124V21.6641Z" fill="#DBDBDB"/>
<path id="Vector_160" d="M20.7712 25.1462C22.1694 24.5984 22.8303 23.0888 22.2475 21.7745C21.6646 20.4603 20.0587 19.839 18.6605 20.3869C17.2623 20.9348 16.6014 22.4443 17.1843 23.7586C17.7671 25.0728 19.3731 25.6941 20.7712 25.1462Z" fill="#263238"/>
<path id="Vector_161" d="M21.0699 22.1172H18.3516V24.4375H21.0699V22.1172Z" fill="white"/>
<path id="Vector_162" d="M20.7948 22.8302H20.5175V21.7961C20.5175 21.594 20.4321 21.4002 20.2801 21.2573C20.128 21.1144 19.9219 21.0341 19.7069 21.0341C19.4919 21.0341 19.2857 21.1144 19.1337 21.2573C18.9816 21.4002 18.8962 21.594 18.8962 21.7961V22.8302H18.625V21.7961C18.625 21.5249 18.7396 21.2648 18.9437 21.073C19.1477 20.8812 19.4244 20.7734 19.713 20.7734C20.0015 20.7734 20.2782 20.8812 20.4823 21.073C20.6863 21.2648 20.8009 21.5249 20.8009 21.7961L20.7948 22.8302Z" fill="white"/>
<path id="Vector_163" d="M19.8258 23.3047L19.9385 23.8146H19.457L19.5698 23.3047C19.5255 23.2786 19.4915 23.2397 19.4729 23.1938C19.4542 23.1479 19.452 23.0976 19.4664 23.0504C19.4809 23.0032 19.5113 22.9618 19.553 22.9322C19.5947 22.9027 19.6455 22.8867 19.6978 22.8867C19.75 22.8867 19.8008 22.9027 19.8426 22.9322C19.8843 22.9618 19.9147 23.0032 19.9291 23.0504C19.9436 23.0976 19.9413 23.1479 19.9227 23.1938C19.904 23.2397 19.87 23.2786 19.8258 23.3047Z" fill="#263238"/>
<path id="Vector_164" d="M30.4289 33.2925H30.2125V32.1466H30.4411L30.4289 33.2925ZM30.4289 31.0008H30.2125V29.8549H30.4411L30.4289 31.0008ZM30.4289 28.7091H30.2125V27.5632H30.4411L30.4289 28.7091ZM30.4289 26.4174H30.2125V25.2715H30.4411L30.4289 26.4174ZM30.4289 24.1257H30.2125V22.9798H30.4411L30.4289 24.1257ZM30.4289 21.834H30.2125V20.6881H30.4411L30.4289 21.834ZM30.4289 19.5423H30.2125V18.3964H30.4411L30.4289 19.5423ZM30.4289 17.2505H30.2125V16.1047H30.4411L30.4289 17.2505ZM29.2983 16.0273H28.0793V15.8125H29.2983V16.0273ZM26.8603 16.0273H25.6413V15.8125H26.8603V16.0273ZM24.4223 16.0273H23.2033V15.8125H24.4223V16.0273ZM21.9843 16.0273H21.457V15.8125H21.9843V16.0273Z" fill="#1F4EAD"/>
<path id="Vector_165" d="M21.4663 15.457C21.3632 15.4565 21.2623 15.4849 21.1764 15.5386C21.0906 15.5923 21.0237 15.6688 20.9844 15.7584C20.9451 15.848 20.9352 15.9466 20.9558 16.0416C20.9765 16.1365 21.0268 16.2235 21.1003 16.2914C21.1739 16.3594 21.2674 16.4051 21.3687 16.4228C21.4701 16.4405 21.5748 16.4294 21.6694 16.3909C21.764 16.3523 21.8442 16.2881 21.8998 16.2065C21.9554 16.1248 21.9837 16.0295 21.9813 15.9326C21.9782 15.8059 21.9226 15.6854 21.8264 15.5966C21.7303 15.5078 21.6011 15.4577 21.4663 15.457Z" fill="#1F4EAD"/>
<path id="Vector_166" d="M39.1889 97.0146H38.4727V96.8112H39.1889V97.0146ZM37.2537 97.0146H36.0347V96.8112H37.2537V97.0146ZM34.8157 97.0146H33.5967V96.8112H34.8157V97.0146ZM32.3777 97.0146H31.1587V96.8112H32.3777V97.0146ZM30.4273 96.5562H30.2109V95.4104H30.4395L30.4273 96.5562ZM30.4273 94.2645H30.2109V93.1187H30.4395L30.4273 94.2645ZM30.4273 91.9728H30.2109V90.827H30.4395L30.4273 91.9728ZM30.4273 89.6811H30.2109V88.5353H30.4395L30.4273 89.6811ZM30.4273 87.3894H30.2109V86.2436H30.4395L30.4273 87.3894ZM30.4273 85.0977H30.2109V83.9519H30.4395L30.4273 85.0977ZM30.4273 82.806H30.2109V81.6602H30.4395L30.4273 82.806Z" fill="#1F4EAD"/>
<path id="Vector_167" d="M39.1635 97.394C39.4479 97.394 39.6785 97.1773 39.6785 96.9099C39.6785 96.6425 39.4479 96.4258 39.1635 96.4258C38.879 96.4258 38.6484 96.6425 38.6484 96.9099C38.6484 97.1773 38.879 97.394 39.1635 97.394Z" fill="#1F4EAD"/>
<path id="Vector_168" d="M60.4306 93.7656H40.957V104.812H60.4306V93.7656Z" fill="#455A64"/>
<path id="Vector_169" d="M47.939 95.1562H42.4961V101.699H47.939V95.1562Z" fill="white"/>
<path id="Vector_170" d="M45.211 98.986C45.9229 98.986 46.5001 98.4435 46.5001 97.7742C46.5001 97.105 45.9229 96.5625 45.211 96.5625C44.499 96.5625 43.9219 97.105 43.9219 97.7742C43.9219 98.4435 44.499 98.986 45.211 98.986Z" fill="#455A64"/>
<path id="Vector_171" d="M47.939 101.697H42.4961C42.4961 101.697 42.6454 100.477 42.9106 100.113C43.1757 99.7495 43.8766 99.3398 45.2175 99.3398C46.5584 99.3398 47.2594 99.7495 47.5245 100.113C47.7896 100.477 47.939 101.697 47.939 101.697Z" fill="#455A64"/>
<path id="Vector_172" d="M58.3034 95.1562H49.3438V95.4733H58.3034V95.1562Z" fill="white"/>
<path id="Vector_173" d="M58.3034 98.2656H49.3438V98.5827H58.3034V98.2656Z" fill="white"/>
<path id="Vector_174" d="M58.3034 99.1836H49.3438V99.5006H58.3034V99.1836Z" fill="white"/>
<path id="Vector_175" d="M58.3034 100.098H49.3438V100.415H58.3034V100.098Z" fill="white"/>
<path id="Vector_176" d="M58.3034 101.016H49.3438V101.333H58.3034V101.016Z" fill="white"/>
<path id="Vector_177" d="M58.3034 101.926H49.3438V102.243H58.3034V101.926Z" fill="white"/>
<path id="Vector_178" d="M56.5999 96.0742H49.3438V96.3913H56.5999V96.0742Z" fill="white"/>
<path id="Vector_179" d="M61.49 107.193C62.8881 106.645 63.5491 105.136 62.9662 103.821C62.3833 102.507 60.7774 101.886 59.3792 102.434C57.9811 102.982 57.3202 104.491 57.903 105.805C58.4859 107.12 60.0918 107.741 61.49 107.193Z" fill="#263238"/>
<path id="Vector_180" d="M61.7965 104.164H59.0781V106.484H61.7965V104.164Z" fill="white"/>
<path id="Vector_181" d="M61.5197 104.877H61.2423V103.843C61.2423 103.641 61.1569 103.447 61.0049 103.304C60.8529 103.161 60.6467 103.081 60.4317 103.081C60.2167 103.081 60.0105 103.161 59.8585 103.304C59.7065 103.447 59.6211 103.641 59.6211 103.843V104.877H59.3438V103.843C59.3438 103.572 59.4584 103.312 59.6624 103.12C59.8664 102.928 60.1432 102.82 60.4317 102.82C60.7203 102.82 60.997 102.928 61.201 103.12C61.4051 103.312 61.5197 103.572 61.5197 103.843V104.877Z" fill="white"/>
<path id="Vector_182" d="M60.5515 105.348L60.6642 105.858H60.1797L60.2955 105.348C60.26 105.327 60.231 105.297 60.2112 105.263C60.1915 105.228 60.1817 105.189 60.1828 105.15C60.184 105.11 60.196 105.072 60.2178 105.038C60.2395 105.005 60.2702 104.977 60.3069 104.958C60.3435 104.939 60.3848 104.929 60.4267 104.93C60.4685 104.93 60.5095 104.941 60.5456 104.961C60.5817 104.981 60.6116 105.009 60.6324 105.044C60.6532 105.078 60.6642 105.116 60.6642 105.156C60.6643 105.194 60.654 105.232 60.6342 105.265C60.6145 105.299 60.586 105.327 60.5515 105.348Z" fill="#263238"/>
</g>
<g id="Table">
<path id="Vector_183" d="M128.03 114.858L112.034 114.926L96.0344 114.952L64.0386 115L32.0427 114.952L16.0463 114.926L0.046875 114.858L16.0463 114.786L32.0427 114.763L64.0386 114.715L96.0344 114.763L112.034 114.789L128.03 114.858Z" fill="#263238"/>
</g>
</g>
</svg>
