<svg width="30" height="30" viewBox="0 0 32 35" fill="none" xmlns="http://www.w3.org/2000/svg">
<path d="M17.2026 0.0255356C17.3141 0.0392151 17.6903 0.0870972 18.0387 0.128139C19.8432 0.340187 21.7662 0.942131 23.4384 1.81084C31.8689 6.18177 34.5792 16.6952 29.284 24.4726C28.6221 25.4508 27.6258 26.5931 26.8245 27.3045L26.2114 27.8449L28.0926 29.6986C29.1307 30.7178 30.0295 31.6549 30.0922 31.778C30.2525 32.0995 30.2385 32.6878 30.0643 33.0435C29.8693 33.4334 28.5664 34.692 28.1692 34.863C27.8209 35.0203 27.5073 35.0408 27.0962 34.9314C26.8594 34.8698 26.4413 34.4936 24.4696 32.5578L22.1146 30.2595L21.7871 30.3826C19.8363 31.1282 17.5579 31.5044 15.4259 31.4292C13.0291 31.3402 11.1549 30.8819 8.98111 29.8422C4.27814 27.5986 1.12193 23.4603 0.188299 18.3164C0.035017 17.4614 0.00714684 17.1193 0.000179291 15.8197C-0.00678635 13.8292 0.188299 12.5295 0.773556 10.8058C2.66171 5.18993 7.46919 1.18154 13.5099 0.182861C14.3042 0.0528946 16.6522 -0.0497093 17.2026 0.0255356ZM14.3181 1.46199C7.75485 2.20758 2.5572 7.1394 1.52603 13.5966C0.89897 17.4956 2.09039 21.7228 4.68921 24.842C5.55317 25.8749 7.2114 27.2908 8.33314 27.9543L8.5979 28.1116V27.8928C8.5979 27.4139 8.75118 27.0514 9.09955 26.7094C9.42005 26.3947 9.43399 26.3674 9.43399 25.9912C9.43399 25.6902 9.39218 25.5397 9.26677 25.355C9.02291 25.0062 8.62577 24.2264 8.43069 23.6997C7.8524 22.2085 7.81756 20.2522 8.32618 18.6037C8.50733 18.0359 9.00898 17.0236 9.32948 16.5926C9.69875 16.0933 10.2143 16.0386 10.5488 16.449C10.7648 16.7226 10.7229 16.9757 10.3746 17.5229C10.0192 18.0907 9.71268 18.7747 9.53153 19.4519C9.42702 19.8212 9.39915 20.1633 9.39915 21.0525C9.39915 22.0375 9.42005 22.2495 9.56637 22.7284C10.2631 25.054 12.0746 26.7846 14.4226 27.3592C15.3005 27.5713 16.6661 27.5713 17.544 27.3592C20.0313 26.7504 21.9822 24.7736 22.4908 22.3385C22.6371 21.6544 22.6371 20.3821 22.4908 19.6981C22.0797 17.7281 20.749 16.0591 18.8887 15.1699C17.9272 14.7116 17.2374 14.5542 15.9903 14.5064C15.0636 14.4722 14.9661 14.4516 14.8267 14.308C14.4575 13.9523 14.5968 13.3709 15.0775 13.2067C15.6767 13.0083 17.3977 13.1657 18.4916 13.5282C19.7387 13.9386 20.6654 14.4995 21.6338 15.4435C23.1318 16.8936 23.9958 18.8294 23.9958 20.7515C23.9958 21.2851 24.0027 21.3056 24.2327 21.5245L24.4765 21.7502L25.1593 21.2235C26.1069 20.4848 26.5876 20.2727 27.3053 20.2659C27.7651 20.2659 27.9114 20.2932 28.1414 20.4232C28.3991 20.5668 28.5037 20.6831 28.8311 21.2098C28.9356 21.374 28.9914 21.4013 29.2074 21.3808C29.4651 21.3603 29.4651 21.3603 29.702 20.7447C30.8517 17.7008 30.9074 14.2943 29.8484 11.1888C29.5488 10.2996 29.2352 9.56086 29.1586 9.56086C29.0819 9.56086 28.636 10.0465 28.3782 10.4022C28.1135 10.7784 27.7233 11.0315 27.2983 11.0999C27.1311 11.1204 26.72 11.0931 26.3089 11.0247C25.4798 10.8947 25.6192 10.8331 24.595 11.7019C23.8007 12.3722 23.0273 12.851 22.3445 13.0973C21.383 13.4461 20.1846 13.2751 19.5994 12.7005C19.3346 12.4406 19.1186 11.9276 19.1186 11.5445C19.1186 11.2709 19.3067 10.6143 19.5088 10.197C19.8781 9.43773 20.3031 9.13676 21.376 8.86999L21.9752 8.72635V8.43221C21.9752 8.06968 21.9683 8.06968 20.965 7.98076C19.5088 7.85763 19.1117 7.67978 18.7772 7.00944C18.387 6.23649 18.4219 5.61403 18.8887 5.10785C19.2231 4.74531 19.5227 4.60167 20.4633 4.36226C20.8953 4.24598 21.2785 4.10917 21.3203 4.05445C21.3621 3.99973 21.4178 3.78084 21.4457 3.57563C21.4666 3.37042 21.5363 3.05577 21.599 2.87792C21.7453 2.46751 21.7523 2.48119 20.5191 2.07761C18.4637 1.42095 16.4432 1.21574 14.3181 1.46199ZM22.888 3.43198C22.8462 3.60299 22.8113 3.79452 22.8113 3.86976C22.8113 4.15021 22.5814 4.71795 22.3793 4.95052C22.0937 5.27201 21.6408 5.48406 20.8883 5.66875C20.0244 5.87396 19.8572 5.96288 19.9199 6.19545C19.9826 6.46906 20.115 6.53062 20.742 6.5785C22.1773 6.68795 22.7416 6.89316 23.1249 7.42669C23.3269 7.71399 23.3339 7.75503 23.3339 8.41853C23.3339 9.5677 23.0482 9.89603 21.7802 10.1833C21.3342 10.2791 21.0625 10.3817 20.965 10.4775C20.8047 10.6416 20.5121 11.3188 20.5121 11.5445C20.5121 11.7634 20.8256 11.9071 21.2785 11.9071C21.9683 11.9071 22.6232 11.5445 24.1282 10.3201C25.0827 9.53349 25.3544 9.45825 26.4971 9.6703L27.0893 9.77975L27.2217 9.62242C27.2913 9.53349 27.4655 9.30093 27.6188 9.1094C27.7651 8.91103 28.0299 8.6511 28.2041 8.52798L28.5246 8.30909L28.3852 8.09704C27.6049 6.87947 26.2462 5.3883 25.1036 4.49222C24.5601 4.06813 23.1249 3.13101 23.0134 3.13101C22.9855 3.13101 22.9298 3.26782 22.888 3.43198ZM26.8594 21.7365C26.6921 21.8118 26.2811 22.0922 25.9466 22.3521C25.1663 22.9609 24.7901 23.1319 24.3163 23.0909C24.1212 23.0704 23.9191 23.043 23.8704 23.0293C23.8077 23.0088 23.724 23.1661 23.6195 23.4808C23.3966 24.158 22.9785 24.9651 22.5535 25.5534C22.3515 25.827 22.1843 26.0732 22.1843 26.1006C22.1843 26.128 22.4002 26.3674 22.672 26.6273L23.1527 27.0993L23.313 26.9488C23.7101 26.5931 24.4208 26.4905 24.9433 26.7231L25.236 26.853L25.7934 26.3674C26.4762 25.7654 27.1032 25.0882 27.6606 24.37C28.0995 23.7954 28.7336 22.8446 28.7336 22.7557C28.7336 22.7284 28.643 22.6873 28.5315 22.66C28.1971 22.5916 27.7651 22.2359 27.6049 21.9075C27.4307 21.5518 27.3262 21.5313 26.8594 21.7365ZM20.7978 27.325C17.962 29.4387 14.0046 29.4318 11.1619 27.325C10.7926 27.0514 10.7996 27.0514 10.6184 27.3592C10.5766 27.4208 10.4303 27.5234 10.277 27.5918L10.0123 27.7081L9.96351 28.2211C9.93564 28.5015 9.9426 28.7546 9.97047 28.7888C10.068 28.8777 11.0853 29.254 11.8935 29.4934C14.6107 30.3005 17.8018 30.2526 20.5678 29.3497C21.5293 29.0419 21.6687 28.9667 21.7314 28.7341C21.7523 28.6315 21.8498 28.4468 21.9474 28.3237C22.0379 28.2074 22.1146 28.0843 22.1146 28.0501C22.1146 28.0022 21.2088 27.0719 21.1601 27.0719C21.1531 27.0719 20.9859 27.1882 20.7978 27.325ZM23.6126 28.5768L22.9855 29.1924L25.2708 31.4292L27.5491 33.6728L28.1762 33.0571C28.5176 32.722 28.8033 32.4142 28.8033 32.3731C28.8033 32.2842 24.3999 27.9612 24.3093 27.9612C24.2675 27.9612 23.954 28.2416 23.6126 28.5768Z" fill="#1F4EAD"/>
<path d="M12.0304 14.0519C12.5029 14.2982 12.5943 14.8112 12.2285 15.1464C11.9237 15.42 11.5503 15.42 11.215 15.1464C10.7349 14.7633 10.9711 14.093 11.6189 14.004C11.756 13.9904 11.9466 14.0109 12.0304 14.0519Z" fill="#1F4EAD"/>
<path d="M16.7036 16.0458C17.8626 16.205 19.1082 16.9014 19.8609 17.8035C20.2673 18.2944 20.7469 19.2363 20.8934 19.8532C20.96 20.1119 21 20.5762 21 21.0074C21 21.8962 20.8801 22.407 20.5004 23.1963C19.408 25.445 16.8634 26.5262 14.4588 25.7501C13.4796 25.4383 12.6603 24.8612 12.0408 24.0586C10.6553 22.261 10.6553 19.7736 12.0275 17.9694C13.1066 16.5565 14.9384 15.8003 16.7036 16.0458ZM15.1116 17.4586C14.3988 17.6377 13.9858 17.8765 13.433 18.4204C12.6869 19.1567 12.3406 19.966 12.3406 21.0074C12.3406 22.0488 12.6869 22.858 13.433 23.5943C13.9858 24.1382 14.3988 24.377 15.1116 24.5561C15.7644 24.722 16.244 24.722 16.8968 24.5561C17.6095 24.377 18.0225 24.1382 18.5754 23.5943C19.3347 22.8514 19.6678 22.0554 19.6678 21.0074C19.6678 19.9593 19.3347 19.1634 18.5754 18.4204C18.0291 17.8831 17.6095 17.6377 16.9234 17.4586C16.2906 17.2928 15.751 17.2928 15.1116 17.4586Z" fill="#1F4EAD"/>
</svg>
