<svg width="30" height="30" viewBox="0 0 20 20" fill="none" xmlns="http://www.w3.org/2000/svg">
<path d="M15.7227 13.4297C14.7155 13.4297 13.808 13.8407 13.1782 14.4944L7.51347 11.1792C7.66471 10.8133 7.74859 10.416 7.74859 10.0003C7.74859 9.58441 7.66471 9.18705 7.51347 8.82136L13.1782 5.50593C13.808 6.15971 14.7155 6.57086 15.7227 6.57086C17.6199 6.57086 19.1634 5.11236 19.1634 3.31954C19.1634 1.52671 17.6199 0.0683594 15.7227 0.0683594C13.8254 0.0683594 12.2819 1.52686 12.2819 3.31969C12.2819 3.73538 12.3659 4.13275 12.517 4.49858L6.85239 7.81387C6.22258 7.16008 5.31515 6.74893 4.30797 6.74893C2.41068 6.74893 0.867188 8.20759 0.867188 10.0003C0.867188 11.7931 2.41068 13.2516 4.30797 13.2516C5.31515 13.2516 6.22258 12.8406 6.85239 12.1867L12.517 15.5019C12.3659 15.8678 12.2819 16.2651 12.2819 16.681C12.2819 18.4737 13.8254 19.9322 15.7227 19.9322C17.6199 19.9322 19.1634 18.4737 19.1634 16.681C19.1634 14.8882 17.6199 13.4297 15.7227 13.4297ZM13.5365 3.31969C13.5365 2.18065 14.5172 1.25393 15.7227 1.25393C16.9281 1.25393 17.9088 2.18065 17.9088 3.31969C17.9088 4.45873 16.9281 5.38545 15.7227 5.38545C14.5172 5.38545 13.5365 4.45873 13.5365 3.31969ZM4.30797 12.066C3.1024 12.066 2.12168 11.1393 2.12168 10.0003C2.12168 8.86122 3.1024 7.9345 4.30797 7.9345C5.51338 7.9345 6.49394 8.86122 6.49394 10.0003C6.49394 11.1393 5.51338 12.066 4.30797 12.066ZM13.5365 16.6808C13.5365 15.5418 14.5172 14.6151 15.7227 14.6151C16.9281 14.6151 17.9088 15.5418 17.9088 16.6808C17.9088 17.8199 16.9281 18.7466 15.7227 18.7466C14.5172 18.7466 13.5365 17.8199 13.5365 16.6808Z" fill="#292929"/>
</svg>
