<svg width="30" height="30" viewBox="0 0 20 20" fill="none" xmlns="http://www.w3.org/2000/svg">
<mask id="path-1-outside-1_12837_527" maskUnits="userSpaceOnUse" x="-0.804688" y="-0.804688" width="21" height="21" fill="black">
<rect fill="white" x="-0.804688" y="-0.804688" width="21" height="21"/>
<path d="M19.8047 0.511593C19.8047 0.336927 19.6631 0.195312 19.4884 0.195312H0.511593C0.336927 0.195312 0.195312 0.336927 0.195312 0.511593V11.9766C0.195312 12.1512 0.336927 12.2928 0.511593 12.2928H10.2941C10.2782 12.5135 10.3205 12.7401 10.4267 12.9501L10.7446 13.5791C10.8031 13.6948 10.8224 13.8037 10.8069 13.9324L10.7233 14.6322C10.6568 15.189 10.9584 15.7115 11.474 15.9324L11.8775 16.1052L10.8521 18.3077C10.789 18.4431 10.8064 18.6009 10.8972 18.7194C10.9881 18.8381 11.1363 18.8958 11.2832 18.87L12.3299 18.6872L12.8637 19.6058C12.9356 19.7297 13.0668 19.8047 13.2089 19.8047C13.2149 19.8047 13.2211 19.8046 13.2272 19.8043C13.3766 19.7976 13.5086 19.7092 13.5716 19.5737L14.5697 17.4299L14.8677 17.3398C14.9918 17.3023 15.1024 17.3023 15.2265 17.3398L15.5245 17.4299L16.5226 19.5739C16.5858 19.7093 16.7178 19.7976 16.8668 19.8043C16.8729 19.8046 16.8791 19.8047 16.8852 19.8047C17.0273 19.8047 17.1584 19.7298 17.2305 19.6059L17.7643 18.6872L18.8111 18.8701C18.9582 18.8957 19.1061 18.8381 19.1968 18.7197C19.288 18.601 19.3053 18.4431 19.2421 18.3077L18.2167 16.1052L18.6202 15.9324C19.1357 15.7116 19.4374 15.1891 19.3708 14.6322L19.2872 13.9324C19.2718 13.8038 19.291 13.6948 19.3495 13.5791L19.6674 12.9502C19.8028 12.6823 19.8348 12.3878 19.7735 12.1128C19.7932 12.0715 19.8046 12.0255 19.8046 11.9766V0.511593H19.8047ZM0.827873 11.6603V0.827873H19.1721V11.2514L18.8929 10.9894C18.7984 10.9007 18.7431 10.8049 18.7136 10.6787L18.5529 9.99257C18.4249 9.44647 17.9627 9.05867 17.4027 9.02752L16.6991 8.98838C16.5697 8.98118 16.4657 8.94335 16.362 8.86566L15.7978 8.44339C15.3488 8.1073 14.7455 8.10734 14.2964 8.44339L13.7323 8.86566C13.6285 8.94331 13.5245 8.98118 13.3951 8.98838L12.6915 9.02752C12.1315 9.05867 11.6694 9.44647 11.5414 9.99257L11.3807 10.6787C11.3511 10.8049 11.2958 10.9007 11.2013 10.9894L10.6875 11.4717C10.6254 11.5299 10.5713 11.5934 10.5234 11.6603H0.827873ZM13.1865 18.9022L12.7661 18.1787C12.6995 18.0642 12.5686 18.0033 12.4382 18.0261L11.6139 18.1701L12.4098 16.4605L12.7823 17.0302C13.0134 17.3835 13.3919 17.5872 13.7939 17.5974L13.1865 18.9022ZM17.656 18.0261C17.5256 18.0032 17.3947 18.0642 17.3281 18.1787L16.9077 18.9022L16.3005 17.5978C16.7024 17.5876 17.0808 17.3835 17.3118 17.0302L17.6844 16.4605L18.4803 18.1701L17.656 18.0261ZM19.1029 12.6648L18.785 13.2937C18.6701 13.5211 18.6289 13.7546 18.6592 14.0075L18.7428 14.7072C18.7763 14.9872 18.6304 15.2399 18.3712 15.3509L17.7233 15.6283C17.4891 15.7287 17.3075 15.8811 17.1681 16.0942L16.7824 16.684C16.6281 16.92 16.3539 17.0196 16.084 16.9382L15.4095 16.7344C15.1656 16.6606 14.9285 16.6607 14.6847 16.7344L14.0102 16.9382C13.7405 17.0197 13.4661 16.92 13.3118 16.684L12.9261 16.0943C12.7867 15.881 12.605 15.7287 12.3708 15.6284L11.723 15.3509C11.4638 15.2399 11.3179 14.9873 11.3514 14.7073L11.435 14.0076C11.4653 13.7547 11.4241 13.5212 11.3092 13.2938L10.9913 12.6649C10.864 12.4132 10.9147 12.1259 11.1203 11.9329L11.6342 11.4507C11.82 11.2763 11.9385 11.071 11.9966 10.823L12.1573 10.1369C12.2216 9.8623 12.445 9.67478 12.7266 9.65917L13.4302 9.62003C13.6846 9.60588 13.9074 9.52479 14.1113 9.3721L14.6755 8.94983C14.7884 8.86535 14.9178 8.82308 15.0471 8.82308C15.1764 8.82308 15.3058 8.86535 15.4187 8.94983L15.9829 9.3721C16.1868 9.52479 16.4096 9.60588 16.664 9.62003L17.3676 9.65917C17.6492 9.67482 17.8726 9.86234 17.9369 10.1369L18.0976 10.823C18.1557 11.071 18.2742 11.2763 18.46 11.4507L18.9739 11.9329C19.1795 12.1258 19.2302 12.4132 19.1029 12.6648ZM7.60584 1.39121H1.5979C1.42323 1.39121 1.28162 1.53282 1.28162 1.70749V7.71543C1.28162 7.89009 1.42323 8.03171 1.5979 8.03171H7.60588C7.78054 8.03171 7.92216 7.89009 7.92216 7.71543V1.70749C7.92212 1.53278 7.7805 1.39121 7.60584 1.39121ZM7.28956 7.39915H1.91418V2.02377H7.2896L7.28956 7.39915ZM9.07919 3.9207C9.07919 3.74603 9.2208 3.60442 9.39547 3.60442H17.8157C17.9904 3.60442 18.132 3.74603 18.132 3.9207C18.132 4.09536 17.9904 4.23698 17.8157 4.23698H9.39547C9.2208 4.23698 9.07919 4.0954 9.07919 3.9207ZM9.07919 5.50218C9.07919 5.32751 9.2208 5.1859 9.39547 5.1859H17.8157C17.9904 5.1859 18.132 5.32751 18.132 5.50218C18.132 5.67684 17.9904 5.81846 17.8157 5.81846H9.39547C9.2208 5.81846 9.07919 5.67684 9.07919 5.50218ZM9.07919 2.33926C9.07919 2.16459 9.2208 2.02298 9.39547 2.02298H17.8157C17.9904 2.02298 18.132 2.16459 18.132 2.33926C18.132 2.51392 17.9904 2.65554 17.8157 2.65554H9.39547C9.2208 2.65554 9.07919 2.51392 9.07919 2.33926ZM17.8157 7.3999H9.39547C9.2208 7.3999 9.07919 7.25829 9.07919 7.08362C9.07919 6.90895 9.2208 6.76734 9.39547 6.76734H17.8157C17.9904 6.76734 18.132 6.90895 18.132 7.08362C18.132 7.25829 17.9904 7.3999 17.8157 7.3999ZM2.65281 6.89361H6.55096C6.64071 6.89361 6.72622 6.8555 6.7862 6.78873C6.84621 6.72199 6.87499 6.63292 6.86543 6.54369C6.77786 5.7252 6.26611 5.04942 5.56204 4.72298C5.77742 4.48981 5.90931 4.17847 5.90931 3.83677C5.90931 3.11584 5.32277 2.5293 4.60185 2.5293C3.88093 2.5293 3.29442 3.1158 3.29442 3.83677C3.29442 4.17847 3.42631 4.48981 3.6417 4.72298C2.93766 5.04942 2.42596 5.72524 2.33835 6.54369C2.32878 6.63292 2.35756 6.72199 2.41758 6.78873C2.47759 6.85546 2.56311 6.89361 2.65281 6.89361ZM4.60185 3.16182C4.97399 3.16182 5.27675 3.46458 5.27675 3.83673C5.27675 4.20887 4.97399 4.51163 4.60185 4.51163C4.2297 4.51163 3.92698 4.20887 3.92698 3.83673C3.92698 3.46458 4.2297 3.16182 4.60185 3.16182ZM4.60189 5.14419C5.32194 5.14419 5.93999 5.60497 6.16016 6.26105H3.04361C3.26378 5.60497 3.88184 5.14419 4.60189 5.14419ZM15.0471 9.77758C13.3283 9.77758 11.93 11.1759 11.93 12.8947C11.93 14.6134 13.3283 16.0118 15.0471 16.0118C16.7659 16.0118 18.1642 14.6135 18.1642 12.8947C18.1642 11.1759 16.7659 9.77758 15.0471 9.77758ZM15.0471 15.3792C13.6772 15.3792 12.5626 14.2647 12.5626 12.8947C12.5626 11.5247 13.6771 10.4101 15.0471 10.4101C16.4171 10.4101 17.5317 11.5247 17.5317 12.8947C17.5317 14.2646 16.4171 15.3792 15.0471 15.3792ZM16.4327 11.9419C16.5502 12.0713 16.5405 12.2713 16.4111 12.3887L14.7798 13.8691C14.7194 13.9239 14.6433 13.9512 14.5673 13.9512C14.4862 13.9512 14.4052 13.9201 14.3436 13.8585L13.672 13.1869C13.5485 13.0634 13.5485 12.8632 13.672 12.7397C13.7956 12.6162 13.9958 12.6162 14.1193 12.7397L14.5779 13.1982L15.986 11.9203C16.1153 11.8029 16.3153 11.8126 16.4327 11.9419Z"/>
</mask>
<path d="M19.8047 0.511593C19.8047 0.336927 19.6631 0.195312 19.4884 0.195312H0.511593C0.336927 0.195312 0.195312 0.336927 0.195312 0.511593V11.9766C0.195312 12.1512 0.336927 12.2928 0.511593 12.2928H10.2941C10.2782 12.5135 10.3205 12.7401 10.4267 12.9501L10.7446 13.5791C10.8031 13.6948 10.8224 13.8037 10.8069 13.9324L10.7233 14.6322C10.6568 15.189 10.9584 15.7115 11.474 15.9324L11.8775 16.1052L10.8521 18.3077C10.789 18.4431 10.8064 18.6009 10.8972 18.7194C10.9881 18.8381 11.1363 18.8958 11.2832 18.87L12.3299 18.6872L12.8637 19.6058C12.9356 19.7297 13.0668 19.8047 13.2089 19.8047C13.2149 19.8047 13.2211 19.8046 13.2272 19.8043C13.3766 19.7976 13.5086 19.7092 13.5716 19.5737L14.5697 17.4299L14.8677 17.3398C14.9918 17.3023 15.1024 17.3023 15.2265 17.3398L15.5245 17.4299L16.5226 19.5739C16.5858 19.7093 16.7178 19.7976 16.8668 19.8043C16.8729 19.8046 16.8791 19.8047 16.8852 19.8047C17.0273 19.8047 17.1584 19.7298 17.2305 19.6059L17.7643 18.6872L18.8111 18.8701C18.9582 18.8957 19.1061 18.8381 19.1968 18.7197C19.288 18.601 19.3053 18.4431 19.2421 18.3077L18.2167 16.1052L18.6202 15.9324C19.1357 15.7116 19.4374 15.1891 19.3708 14.6322L19.2872 13.9324C19.2718 13.8038 19.291 13.6948 19.3495 13.5791L19.6674 12.9502C19.8028 12.6823 19.8348 12.3878 19.7735 12.1128C19.7932 12.0715 19.8046 12.0255 19.8046 11.9766V0.511593H19.8047ZM0.827873 11.6603V0.827873H19.1721V11.2514L18.8929 10.9894C18.7984 10.9007 18.7431 10.8049 18.7136 10.6787L18.5529 9.99257C18.4249 9.44647 17.9627 9.05867 17.4027 9.02752L16.6991 8.98838C16.5697 8.98118 16.4657 8.94335 16.362 8.86566L15.7978 8.44339C15.3488 8.1073 14.7455 8.10734 14.2964 8.44339L13.7323 8.86566C13.6285 8.94331 13.5245 8.98118 13.3951 8.98838L12.6915 9.02752C12.1315 9.05867 11.6694 9.44647 11.5414 9.99257L11.3807 10.6787C11.3511 10.8049 11.2958 10.9007 11.2013 10.9894L10.6875 11.4717C10.6254 11.5299 10.5713 11.5934 10.5234 11.6603H0.827873ZM13.1865 18.9022L12.7661 18.1787C12.6995 18.0642 12.5686 18.0033 12.4382 18.0261L11.6139 18.1701L12.4098 16.4605L12.7823 17.0302C13.0134 17.3835 13.3919 17.5872 13.7939 17.5974L13.1865 18.9022ZM17.656 18.0261C17.5256 18.0032 17.3947 18.0642 17.3281 18.1787L16.9077 18.9022L16.3005 17.5978C16.7024 17.5876 17.0808 17.3835 17.3118 17.0302L17.6844 16.4605L18.4803 18.1701L17.656 18.0261ZM19.1029 12.6648L18.785 13.2937C18.6701 13.5211 18.6289 13.7546 18.6592 14.0075L18.7428 14.7072C18.7763 14.9872 18.6304 15.2399 18.3712 15.3509L17.7233 15.6283C17.4891 15.7287 17.3075 15.8811 17.1681 16.0942L16.7824 16.684C16.6281 16.92 16.3539 17.0196 16.084 16.9382L15.4095 16.7344C15.1656 16.6606 14.9285 16.6607 14.6847 16.7344L14.0102 16.9382C13.7405 17.0197 13.4661 16.92 13.3118 16.684L12.9261 16.0943C12.7867 15.881 12.605 15.7287 12.3708 15.6284L11.723 15.3509C11.4638 15.2399 11.3179 14.9873 11.3514 14.7073L11.435 14.0076C11.4653 13.7547 11.4241 13.5212 11.3092 13.2938L10.9913 12.6649C10.864 12.4132 10.9147 12.1259 11.1203 11.9329L11.6342 11.4507C11.82 11.2763 11.9385 11.071 11.9966 10.823L12.1573 10.1369C12.2216 9.8623 12.445 9.67478 12.7266 9.65917L13.4302 9.62003C13.6846 9.60588 13.9074 9.52479 14.1113 9.3721L14.6755 8.94983C14.7884 8.86535 14.9178 8.82308 15.0471 8.82308C15.1764 8.82308 15.3058 8.86535 15.4187 8.94983L15.9829 9.3721C16.1868 9.52479 16.4096 9.60588 16.664 9.62003L17.3676 9.65917C17.6492 9.67482 17.8726 9.86234 17.9369 10.1369L18.0976 10.823C18.1557 11.071 18.2742 11.2763 18.46 11.4507L18.9739 11.9329C19.1795 12.1258 19.2302 12.4132 19.1029 12.6648ZM7.60584 1.39121H1.5979C1.42323 1.39121 1.28162 1.53282 1.28162 1.70749V7.71543C1.28162 7.89009 1.42323 8.03171 1.5979 8.03171H7.60588C7.78054 8.03171 7.92216 7.89009 7.92216 7.71543V1.70749C7.92212 1.53278 7.7805 1.39121 7.60584 1.39121ZM7.28956 7.39915H1.91418V2.02377H7.2896L7.28956 7.39915ZM9.07919 3.9207C9.07919 3.74603 9.2208 3.60442 9.39547 3.60442H17.8157C17.9904 3.60442 18.132 3.74603 18.132 3.9207C18.132 4.09536 17.9904 4.23698 17.8157 4.23698H9.39547C9.2208 4.23698 9.07919 4.0954 9.07919 3.9207ZM9.07919 5.50218C9.07919 5.32751 9.2208 5.1859 9.39547 5.1859H17.8157C17.9904 5.1859 18.132 5.32751 18.132 5.50218C18.132 5.67684 17.9904 5.81846 17.8157 5.81846H9.39547C9.2208 5.81846 9.07919 5.67684 9.07919 5.50218ZM9.07919 2.33926C9.07919 2.16459 9.2208 2.02298 9.39547 2.02298H17.8157C17.9904 2.02298 18.132 2.16459 18.132 2.33926C18.132 2.51392 17.9904 2.65554 17.8157 2.65554H9.39547C9.2208 2.65554 9.07919 2.51392 9.07919 2.33926ZM17.8157 7.3999H9.39547C9.2208 7.3999 9.07919 7.25829 9.07919 7.08362C9.07919 6.90895 9.2208 6.76734 9.39547 6.76734H17.8157C17.9904 6.76734 18.132 6.90895 18.132 7.08362C18.132 7.25829 17.9904 7.3999 17.8157 7.3999ZM2.65281 6.89361H6.55096C6.64071 6.89361 6.72622 6.8555 6.7862 6.78873C6.84621 6.72199 6.87499 6.63292 6.86543 6.54369C6.77786 5.7252 6.26611 5.04942 5.56204 4.72298C5.77742 4.48981 5.90931 4.17847 5.90931 3.83677C5.90931 3.11584 5.32277 2.5293 4.60185 2.5293C3.88093 2.5293 3.29442 3.1158 3.29442 3.83677C3.29442 4.17847 3.42631 4.48981 3.6417 4.72298C2.93766 5.04942 2.42596 5.72524 2.33835 6.54369C2.32878 6.63292 2.35756 6.72199 2.41758 6.78873C2.47759 6.85546 2.56311 6.89361 2.65281 6.89361ZM4.60185 3.16182C4.97399 3.16182 5.27675 3.46458 5.27675 3.83673C5.27675 4.20887 4.97399 4.51163 4.60185 4.51163C4.2297 4.51163 3.92698 4.20887 3.92698 3.83673C3.92698 3.46458 4.2297 3.16182 4.60185 3.16182ZM4.60189 5.14419C5.32194 5.14419 5.93999 5.60497 6.16016 6.26105H3.04361C3.26378 5.60497 3.88184 5.14419 4.60189 5.14419ZM15.0471 9.77758C13.3283 9.77758 11.93 11.1759 11.93 12.8947C11.93 14.6134 13.3283 16.0118 15.0471 16.0118C16.7659 16.0118 18.1642 14.6135 18.1642 12.8947C18.1642 11.1759 16.7659 9.77758 15.0471 9.77758ZM15.0471 15.3792C13.6772 15.3792 12.5626 14.2647 12.5626 12.8947C12.5626 11.5247 13.6771 10.4101 15.0471 10.4101C16.4171 10.4101 17.5317 11.5247 17.5317 12.8947C17.5317 14.2646 16.4171 15.3792 15.0471 15.3792ZM16.4327 11.9419C16.5502 12.0713 16.5405 12.2713 16.4111 12.3887L14.7798 13.8691C14.7194 13.9239 14.6433 13.9512 14.5673 13.9512C14.4862 13.9512 14.4052 13.9201 14.3436 13.8585L13.672 13.1869C13.5485 13.0634 13.5485 12.8632 13.672 12.7397C13.7956 12.6162 13.9958 12.6162 14.1193 12.7397L14.5779 13.1982L15.986 11.9203C16.1153 11.8029 16.3153 11.8126 16.4327 11.9419Z" fill="#292929"/>
<path d="M19.8047 0.511593C19.8047 0.336927 19.6631 0.195312 19.4884 0.195312H0.511593C0.336927 0.195312 0.195312 0.336927 0.195312 0.511593V11.9766C0.195312 12.1512 0.336927 12.2928 0.511593 12.2928H10.2941C10.2782 12.5135 10.3205 12.7401 10.4267 12.9501L10.7446 13.5791C10.8031 13.6948 10.8224 13.8037 10.8069 13.9324L10.7233 14.6322C10.6568 15.189 10.9584 15.7115 11.474 15.9324L11.8775 16.1052L10.8521 18.3077C10.789 18.4431 10.8064 18.6009 10.8972 18.7194C10.9881 18.8381 11.1363 18.8958 11.2832 18.87L12.3299 18.6872L12.8637 19.6058C12.9356 19.7297 13.0668 19.8047 13.2089 19.8047C13.2149 19.8047 13.2211 19.8046 13.2272 19.8043C13.3766 19.7976 13.5086 19.7092 13.5716 19.5737L14.5697 17.4299L14.8677 17.3398C14.9918 17.3023 15.1024 17.3023 15.2265 17.3398L15.5245 17.4299L16.5226 19.5739C16.5858 19.7093 16.7178 19.7976 16.8668 19.8043C16.8729 19.8046 16.8791 19.8047 16.8852 19.8047C17.0273 19.8047 17.1584 19.7298 17.2305 19.6059L17.7643 18.6872L18.8111 18.8701C18.9582 18.8957 19.1061 18.8381 19.1968 18.7197C19.288 18.601 19.3053 18.4431 19.2421 18.3077L18.2167 16.1052L18.6202 15.9324C19.1357 15.7116 19.4374 15.1891 19.3708 14.6322L19.2872 13.9324C19.2718 13.8038 19.291 13.6948 19.3495 13.5791L19.6674 12.9502C19.8028 12.6823 19.8348 12.3878 19.7735 12.1128C19.7932 12.0715 19.8046 12.0255 19.8046 11.9766V0.511593H19.8047ZM0.827873 11.6603V0.827873H19.1721V11.2514L18.8929 10.9894C18.7984 10.9007 18.7431 10.8049 18.7136 10.6787L18.5529 9.99257C18.4249 9.44647 17.9627 9.05867 17.4027 9.02752L16.6991 8.98838C16.5697 8.98118 16.4657 8.94335 16.362 8.86566L15.7978 8.44339C15.3488 8.1073 14.7455 8.10734 14.2964 8.44339L13.7323 8.86566C13.6285 8.94331 13.5245 8.98118 13.3951 8.98838L12.6915 9.02752C12.1315 9.05867 11.6694 9.44647 11.5414 9.99257L11.3807 10.6787C11.3511 10.8049 11.2958 10.9007 11.2013 10.9894L10.6875 11.4717C10.6254 11.5299 10.5713 11.5934 10.5234 11.6603H0.827873ZM13.1865 18.9022L12.7661 18.1787C12.6995 18.0642 12.5686 18.0033 12.4382 18.0261L11.6139 18.1701L12.4098 16.4605L12.7823 17.0302C13.0134 17.3835 13.3919 17.5872 13.7939 17.5974L13.1865 18.9022ZM17.656 18.0261C17.5256 18.0032 17.3947 18.0642 17.3281 18.1787L16.9077 18.9022L16.3005 17.5978C16.7024 17.5876 17.0808 17.3835 17.3118 17.0302L17.6844 16.4605L18.4803 18.1701L17.656 18.0261ZM19.1029 12.6648L18.785 13.2937C18.6701 13.5211 18.6289 13.7546 18.6592 14.0075L18.7428 14.7072C18.7763 14.9872 18.6304 15.2399 18.3712 15.3509L17.7233 15.6283C17.4891 15.7287 17.3075 15.8811 17.1681 16.0942L16.7824 16.684C16.6281 16.92 16.3539 17.0196 16.084 16.9382L15.4095 16.7344C15.1656 16.6606 14.9285 16.6607 14.6847 16.7344L14.0102 16.9382C13.7405 17.0197 13.4661 16.92 13.3118 16.684L12.9261 16.0943C12.7867 15.881 12.605 15.7287 12.3708 15.6284L11.723 15.3509C11.4638 15.2399 11.3179 14.9873 11.3514 14.7073L11.435 14.0076C11.4653 13.7547 11.4241 13.5212 11.3092 13.2938L10.9913 12.6649C10.864 12.4132 10.9147 12.1259 11.1203 11.9329L11.6342 11.4507C11.82 11.2763 11.9385 11.071 11.9966 10.823L12.1573 10.1369C12.2216 9.8623 12.445 9.67478 12.7266 9.65917L13.4302 9.62003C13.6846 9.60588 13.9074 9.52479 14.1113 9.3721L14.6755 8.94983C14.7884 8.86535 14.9178 8.82308 15.0471 8.82308C15.1764 8.82308 15.3058 8.86535 15.4187 8.94983L15.9829 9.3721C16.1868 9.52479 16.4096 9.60588 16.664 9.62003L17.3676 9.65917C17.6492 9.67482 17.8726 9.86234 17.9369 10.1369L18.0976 10.823C18.1557 11.071 18.2742 11.2763 18.46 11.4507L18.9739 11.9329C19.1795 12.1258 19.2302 12.4132 19.1029 12.6648ZM7.60584 1.39121H1.5979C1.42323 1.39121 1.28162 1.53282 1.28162 1.70749V7.71543C1.28162 7.89009 1.42323 8.03171 1.5979 8.03171H7.60588C7.78054 8.03171 7.92216 7.89009 7.92216 7.71543V1.70749C7.92212 1.53278 7.7805 1.39121 7.60584 1.39121ZM7.28956 7.39915H1.91418V2.02377H7.2896L7.28956 7.39915ZM9.07919 3.9207C9.07919 3.74603 9.2208 3.60442 9.39547 3.60442H17.8157C17.9904 3.60442 18.132 3.74603 18.132 3.9207C18.132 4.09536 17.9904 4.23698 17.8157 4.23698H9.39547C9.2208 4.23698 9.07919 4.0954 9.07919 3.9207ZM9.07919 5.50218C9.07919 5.32751 9.2208 5.1859 9.39547 5.1859H17.8157C17.9904 5.1859 18.132 5.32751 18.132 5.50218C18.132 5.67684 17.9904 5.81846 17.8157 5.81846H9.39547C9.2208 5.81846 9.07919 5.67684 9.07919 5.50218ZM9.07919 2.33926C9.07919 2.16459 9.2208 2.02298 9.39547 2.02298H17.8157C17.9904 2.02298 18.132 2.16459 18.132 2.33926C18.132 2.51392 17.9904 2.65554 17.8157 2.65554H9.39547C9.2208 2.65554 9.07919 2.51392 9.07919 2.33926ZM17.8157 7.3999H9.39547C9.2208 7.3999 9.07919 7.25829 9.07919 7.08362C9.07919 6.90895 9.2208 6.76734 9.39547 6.76734H17.8157C17.9904 6.76734 18.132 6.90895 18.132 7.08362C18.132 7.25829 17.9904 7.3999 17.8157 7.3999ZM2.65281 6.89361H6.55096C6.64071 6.89361 6.72622 6.8555 6.7862 6.78873C6.84621 6.72199 6.87499 6.63292 6.86543 6.54369C6.77786 5.7252 6.26611 5.04942 5.56204 4.72298C5.77742 4.48981 5.90931 4.17847 5.90931 3.83677C5.90931 3.11584 5.32277 2.5293 4.60185 2.5293C3.88093 2.5293 3.29442 3.1158 3.29442 3.83677C3.29442 4.17847 3.42631 4.48981 3.6417 4.72298C2.93766 5.04942 2.42596 5.72524 2.33835 6.54369C2.32878 6.63292 2.35756 6.72199 2.41758 6.78873C2.47759 6.85546 2.56311 6.89361 2.65281 6.89361ZM4.60185 3.16182C4.97399 3.16182 5.27675 3.46458 5.27675 3.83673C5.27675 4.20887 4.97399 4.51163 4.60185 4.51163C4.2297 4.51163 3.92698 4.20887 3.92698 3.83673C3.92698 3.46458 4.2297 3.16182 4.60185 3.16182ZM4.60189 5.14419C5.32194 5.14419 5.93999 5.60497 6.16016 6.26105H3.04361C3.26378 5.60497 3.88184 5.14419 4.60189 5.14419ZM15.0471 9.77758C13.3283 9.77758 11.93 11.1759 11.93 12.8947C11.93 14.6134 13.3283 16.0118 15.0471 16.0118C16.7659 16.0118 18.1642 14.6135 18.1642 12.8947C18.1642 11.1759 16.7659 9.77758 15.0471 9.77758ZM15.0471 15.3792C13.6772 15.3792 12.5626 14.2647 12.5626 12.8947C12.5626 11.5247 13.6771 10.4101 15.0471 10.4101C16.4171 10.4101 17.5317 11.5247 17.5317 12.8947C17.5317 14.2646 16.4171 15.3792 15.0471 15.3792ZM16.4327 11.9419C16.5502 12.0713 16.5405 12.2713 16.4111 12.3887L14.7798 13.8691C14.7194 13.9239 14.6433 13.9512 14.5673 13.9512C14.4862 13.9512 14.4052 13.9201 14.3436 13.8585L13.672 13.1869C13.5485 13.0634 13.5485 12.8632 13.672 12.7397C13.7956 12.6162 13.9958 12.6162 14.1193 12.7397L14.5779 13.1982L15.986 11.9203C16.1153 11.8029 16.3153 11.8126 16.4327 11.9419Z" stroke="#292929" stroke-width="0.2" mask="url(#path-1-outside-1_12837_527)"/>
</svg>
