<svg width="30" height="30" viewBox="0 0 50 50" fill="none" xmlns="http://www.w3.org/2000/svg">
<path d="M23.8689 17.6318C20.4983 17.6318 17.7559 14.8842 17.7559 11.5073C17.7559 8.13042 20.4983 5.38281 23.8689 5.38281C27.2395 5.38281 29.982 8.13042 29.982 11.5073C29.982 14.8842 27.2395 17.6318 23.8689 17.6318Z" fill="black"/>
<path d="M40.1859 14.5008H42.3149V9.81687H46.9988V7.68782H42.3149V3.00391H40.1859V7.68782H35.502V9.81687H40.1859V14.5008Z" fill="black"/>
<path d="M3.81918 40.2549C2.13449 37.3302 3.13859 33.5777 6.05786 31.8887C9.03705 30.1669 12.7483 31.2513 14.4084 34.1304C16.0974 37.0595 15.0963 40.8034 12.1709 42.4965C9.23992 44.1899 5.50712 43.1821 3.81918 40.2549Z" fill="black"/>
<path d="M35.5661 42.4965C32.6426 40.8044 31.6386 37.0612 33.3286 34.1304C34.9887 31.2514 38.6998 30.1669 41.6791 31.8888C44.5983 33.5778 45.6025 37.3302 43.9178 40.2549C42.232 43.1785 38.5012 44.1924 35.5661 42.4965Z" fill="black"/>
<path d="M7.99511 27.7257L5.55469 27.5917C5.87224 21.7974 8.96228 16.4336 13.8192 13.2422L15.1613 15.2901C10.9502 18.0569 8.27207 22.7065 7.99511 27.7257Z" fill="black"/>
<path d="M39.7365 27.7256C39.4595 22.7064 36.7814 18.0568 32.5703 15.2901L33.9123 13.2422C38.7694 16.4336 41.8593 21.7974 42.1769 27.5917L39.7365 27.7256Z" fill="black"/>
<path d="M23.8744 46.9962C20.9659 46.9962 18.1852 46.3335 15.6074 45.0284L16.7106 42.8418C21.176 45.105 26.5727 45.105 31.0381 42.8418L32.1413 45.0284C29.5636 46.3335 26.7829 46.9962 23.8744 46.9962Z" fill="black"/>
<ellipse cx="23.8694" cy="28.4781" rx="6.95533" ry="6.96831" fill="black"/>
</svg>
