<svg width="25" height="25" viewBox="0 0 41 41" fill="none" xmlns="http://www.w3.org/2000/svg">
<path d="M22.2578 25.6H25.2578V19H31.8578V16H25.2578V9.4H22.2578V16H15.6578V19H22.2578V25.6ZM9.7578 34.5C8.9578 34.5 8.2578 34.2 7.6578 33.6C7.0578 33 6.7578 32.3 6.7578 31.5V3.5C6.7578 2.7 7.0578 2 7.6578 1.4C8.2578 0.8 8.9578 0.5 9.7578 0.5H37.7578C38.5578 0.5 39.2578 0.8 39.8578 1.4C40.4578 2 40.7578 2.7 40.7578 3.5V31.5C40.7578 32.3 40.4578 33 39.8578 33.6C39.2578 34.2 38.5578 34.5 37.7578 34.5H9.7578ZM9.7578 31.5H37.7578V3.5H9.7578V31.5ZM3.75781 40.5C2.95781 40.5 2.25781 40.2 1.65781 39.6C1.05781 39 0.757812 38.3 0.757812 37.5V6.5H3.75781V37.5H34.7578V40.5H3.75781Z" fill="black"/>
</svg>
