<svg width="30" height="30" viewBox="0 0 22 22" fill="none" xmlns="http://www.w3.org/2000/svg">
<path d="M10.3327 10.3719V9.4495C10.3327 8.19669 9.84474 7.01878 8.95867 6.13272C8.78137 5.95541 8.59028 5.7931 8.38789 5.64672C8.65069 5.18781 8.80182 4.65711 8.80182 4.09143C8.80182 2.35989 7.3931 0.951172 5.66156 0.951172C3.93002 0.951172 2.5213 2.35989 2.5213 4.09143C2.5213 4.64891 2.66795 5.1725 2.92376 5.62678C1.6962 6.50142 0.951172 7.92482 0.951172 9.4495V10.3719C0.951172 10.6971 1.2148 10.9607 1.53997 10.9607H9.7439C10.0691 10.9607 10.3327 10.6971 10.3327 10.3719ZM5.66156 2.12877C6.74377 2.12877 7.62422 3.00922 7.62422 4.09143C7.62422 5.17364 6.74377 6.05409 5.66156 6.05409C4.57935 6.05409 3.6989 5.17364 3.6989 4.09143C3.6989 3.00922 4.57935 2.12877 5.66156 2.12877ZM9.1551 9.78315H2.12877V9.4495C2.12877 8.27481 2.71957 7.18035 3.68689 6.53074C4.22674 6.96861 4.9139 7.23169 5.66156 7.23169C6.40097 7.23169 7.08096 6.97419 7.6181 6.54503C7.7996 6.6688 7.96989 6.80932 8.12604 6.9654C8.78961 7.62905 9.1551 8.51123 9.1551 9.4495V9.78315Z" fill="#292929"/>
<path d="M19.6755 16.1814C19.4808 15.9867 19.2696 15.81 19.0447 15.6527C19.2961 15.2049 19.4401 14.6891 19.4401 14.1401C19.4401 12.4302 18.049 11.0391 16.3391 11.0391C14.6292 11.0391 13.2381 12.4302 13.2381 14.1401C13.2381 14.6973 13.3866 15.2203 13.645 15.6727C12.4166 16.5472 11.668 17.9783 11.668 19.4981V20.4598C11.668 20.785 11.9316 21.0486 12.2568 21.0486H20.4607C20.7859 21.0486 21.0495 20.785 21.0495 20.4598V19.4981C21.0495 18.2453 20.5615 17.0674 19.6755 16.1814ZM16.3391 12.2167C17.3997 12.2167 18.2625 13.0795 18.2625 14.1401C18.2625 15.2007 17.3997 16.0635 16.3391 16.0635C15.2785 16.0635 14.4157 15.2007 14.4157 14.1401C14.4157 13.0795 15.2785 12.2167 16.3391 12.2167ZM19.8719 19.871H12.8456V19.4981C12.8456 18.3232 13.4432 17.2189 14.4168 16.5706C14.9457 16.9898 15.6134 17.2411 16.3391 17.2411C17.0731 17.2411 17.7479 16.9842 18.2795 16.5564C18.4821 16.6889 18.671 16.8422 18.8428 17.014C19.5064 17.6777 19.8719 18.5599 19.8719 19.4981V19.871Z" fill="#292929"/>
<path d="M11.0009 5.93541H15.1618C15.4864 5.93541 15.7505 6.19954 15.7505 6.52421V8.00747L15.4996 7.75652C15.2697 7.52658 14.8968 7.52658 14.6669 7.75652C14.4369 7.98647 14.4369 8.35926 14.6669 8.5892L15.923 9.84531C16.038 9.96028 16.1887 10.0177 16.3393 10.0177C16.49 10.0177 16.6407 9.96028 16.7557 9.84527L18.0118 8.58916C18.2417 8.35922 18.2417 7.98643 18.0118 7.75648C17.7819 7.52654 17.409 7.52654 17.1791 7.75648L16.9281 8.00747V6.52421C16.9281 5.55022 16.1357 4.75781 15.1618 4.75781H11.0009C10.6757 4.75781 10.4121 5.02144 10.4121 5.34661C10.4121 5.67178 10.6757 5.93541 11.0009 5.93541Z" fill="#292929"/>
<path d="M10.9998 16.0628H6.83893C6.51426 16.0628 6.25013 15.7987 6.25013 15.474V13.9908L6.50111 14.2417C6.61605 14.3567 6.76674 14.4142 6.91743 14.4142C7.06812 14.4142 7.21882 14.3567 7.33375 14.2417C7.5637 14.0118 7.5637 13.639 7.33375 13.409L6.07765 12.1529C5.84774 11.923 5.47491 11.923 5.24497 12.1529L3.98887 13.409C3.75892 13.639 3.75892 14.0118 3.98887 14.2417C4.21877 14.4717 4.5916 14.4717 4.82154 14.2417L5.07253 13.9908V15.474C5.07253 16.448 5.86493 17.2404 6.83893 17.2404H10.9998C11.3249 17.2404 11.5886 16.9768 11.5886 16.6516C11.5886 16.3264 11.3249 16.0628 10.9998 16.0628Z" fill="#292929"/>
</svg>
