<svg width="25" height="25" viewBox="0 0 38 42" fill="none" xmlns="http://www.w3.org/2000/svg">
<path d="M31.416 41.8327C29.6799 41.8327 28.2042 41.225 26.9889 40.0098C25.7737 38.7945 25.166 37.3188 25.166 35.5827C25.166 35.3744 25.2181 34.8882 25.3223 34.1244L10.6868 25.5827C10.1313 26.1035 9.48893 26.5115 8.75977 26.8066C8.0306 27.1018 7.24935 27.2493 6.41602 27.2493C4.6799 27.2493 3.20421 26.6417 1.98893 25.4264C0.773654 24.2112 0.166016 22.7355 0.166016 20.9993C0.166016 19.2632 0.773654 17.7875 1.98893 16.5723C3.20421 15.357 4.6799 14.7493 6.41602 14.7493C7.24935 14.7493 8.0306 14.8969 8.75977 15.1921C9.48893 15.4872 10.1313 15.8952 10.6868 16.416L25.3223 7.87435C25.2528 7.63129 25.2094 7.39692 25.1921 7.17122C25.1747 6.94553 25.166 6.69379 25.166 6.41602C25.166 4.6799 25.7737 3.20421 26.9889 1.98893C28.2042 0.773655 29.6799 0.166016 31.416 0.166016C33.1521 0.166016 34.6278 0.773655 35.8431 1.98893C37.0584 3.20421 37.666 4.6799 37.666 6.41602C37.666 8.15213 37.0584 9.62782 35.8431 10.8431C34.6278 12.0584 33.1521 12.666 31.416 12.666C30.5827 12.666 29.8014 12.5184 29.0723 12.2233C28.3431 11.9282 27.7007 11.5202 27.1452 10.9993L12.5098 19.541C12.5792 19.7841 12.6226 20.0184 12.64 20.2441C12.6573 20.4698 12.666 20.7216 12.666 20.9993C12.666 21.2771 12.6573 21.5289 12.64 21.7546C12.6226 21.9803 12.5792 22.2146 12.5098 22.4577L27.1452 30.9993C27.7007 30.4785 28.3431 30.0705 29.0723 29.7754C29.8014 29.4803 30.5827 29.3327 31.416 29.3327C33.1521 29.3327 34.6278 29.9403 35.8431 31.1556C37.0584 32.3709 37.666 33.8466 37.666 35.5827C37.666 37.3188 37.0584 38.7945 35.8431 40.0098C34.6278 41.225 33.1521 41.8327 31.416 41.8327ZM31.416 37.666C32.0063 37.666 32.5011 37.4664 32.9004 37.0671C33.2997 36.6678 33.4993 36.173 33.4993 35.5827C33.4993 34.9924 33.2997 34.4976 32.9004 34.0983C32.5011 33.699 32.0063 33.4994 31.416 33.4994C30.8257 33.4994 30.3309 33.699 29.9316 34.0983C29.5323 34.4976 29.3327 34.9924 29.3327 35.5827C29.3327 36.173 29.5323 36.6678 29.9316 37.0671C30.3309 37.4664 30.8257 37.666 31.416 37.666ZM6.41602 23.0827C7.00629 23.0827 7.50108 22.883 7.90039 22.4837C8.2997 22.0844 8.49935 21.5896 8.49935 20.9993C8.49935 20.4091 8.2997 19.9143 7.90039 19.515C7.50108 19.1157 7.00629 18.916 6.41602 18.916C5.82574 18.916 5.33095 19.1157 4.93164 19.515C4.53233 19.9143 4.33268 20.4091 4.33268 20.9993C4.33268 21.5896 4.53233 22.0844 4.93164 22.4837C5.33095 22.883 5.82574 23.0827 6.41602 23.0827ZM31.416 8.49935C32.0063 8.49935 32.5011 8.2997 32.9004 7.90039C33.2997 7.50109 33.4993 7.00629 33.4993 6.41602C33.4993 5.82574 33.2997 5.33095 32.9004 4.93164C32.5011 4.53234 32.0063 4.33268 31.416 4.33268C30.8257 4.33268 30.3309 4.53234 29.9316 4.93164C29.5323 5.33095 29.3327 5.82574 29.3327 6.41602C29.3327 7.00629 29.5323 7.50109 29.9316 7.90039C30.3309 8.2997 30.8257 8.49935 31.416 8.49935Z" fill="black"/>
</svg>
