<svg width="138" height="154" viewBox="0 0 138 154" fill="none" xmlns="http://www.w3.org/2000/svg">
<g clip-path="url(#clip0_2360_5632)">
<path d="M130.382 148.75C130.382 151.655 102.188 153.997 67.4039 153.997C32.6198 153.997 4.42578 151.655 4.42578 148.75C4.42578 145.862 32.6198 143.504 67.4039 143.504C102.188 143.504 130.382 145.862 130.382 148.75Z" fill="#E9ECF2"/>
<path d="M97.6441 84.4229C97.0429 85.0084 94.6092 87.454 91.7097 91.5589L91.7108 97.5031L90.4893 93.339C88.8354 95.8632 87.0869 98.8913 85.4919 102.384C85.4741 102.41 85.4604 102.441 85.4507 102.475C80.8655 112.531 77.5344 126.423 80.9694 143.368C80.9942 143.509 81.0231 143.654 81.056 143.804C81.0757 143.904 81.0994 144.009 81.1272 144.117C81.164 144.298 81.2001 144.473 81.2356 144.643L83.7314 144.277C83.9192 144.149 84.1152 144.003 84.3195 143.839C84.4025 143.772 84.485 143.701 84.5667 143.625C85.8475 142.574 87.3859 140.973 88.9699 138.564C91.5121 134.721 94.1425 128.817 95.9186 119.821L95.8168 119.85L92.1071 120.961L96.5233 116.421C97.8247 108.26 98.4329 97.866 97.8054 84.6151C97.7993 84.5109 97.7926 84.4015 97.7852 84.2871C97.7538 84.3173 97.7068 84.3626 97.6441 84.4229V84.4229Z" fill="#9AADE5"/>
<path d="M97.7028 84.2234L97.6426 84.4155L87.6133 119.872L87.4968 120.287L80.9679 143.36L80.7331 144.175L80.5813 144.727L80.7989 144.696L80.9609 144.141L81.0546 143.797L87.6708 120.412L87.6791 120.394L91.7345 106.055L91.7781 105.9L93.0462 101.404L93.1354 101.108L97.804 84.6077L97.8768 84.3484L97.7028 84.2234Z" fill="white"/>
<path d="M97.9626 99.2106L97.8623 99.0009L91.6992 105.996L91.7995 106.205L97.9626 99.2106Z" fill="white"/>
<path d="M97.9255 95.9882L97.8272 95.7939L92.9925 101.28L93.0908 101.474L97.9255 95.9882Z" fill="white"/>
<path d="M87.6859 120.412L85.6074 102.347L85.4426 102.379L87.5231 120.458L87.6859 120.412Z" fill="white"/>
<path d="M80.3281 147.636C84.3492 150.192 89.0952 148.769 94.5661 143.366L91.7791 141.589L96.2499 141.58C99.4352 137.902 102.886 132.399 106.409 124.206L105.342 123.526L106.702 123.518C107.293 122.13 107.884 120.657 108.475 119.1C106.822 118.98 104.825 119.203 102.484 119.767L100.771 123.58L101.188 120.107C94.0088 122.227 83.6551 128.611 80.3281 147.636V147.636Z" fill="#BAC8F3"/>
<path d="M79.905 146.948L108.533 119.212L108.429 118.972L79.8111 146.704L79.905 146.948Z" fill="white"/>
<path d="M105.244 126.671L101.03 126.289L101.022 126.561L105.236 126.943L105.244 126.671Z" fill="white"/>
<path d="M104.013 129.13L99.077 128.129L99.057 128.389L103.993 129.391L104.013 129.13Z" fill="white"/>
<path d="M95.3922 122.773L95.3108 122.463C91.9146 124.469 88.983 127.232 86.6139 130.692L86.7709 130.933C89.1215 127.494 92.0245 124.755 95.3922 122.773V122.773Z" fill="#2E4882"/>
<path d="M80.9782 31.4219V145.799C80.9782 147.407 80.1182 148.703 79.0509 148.703H41.7489C40.692 148.703 39.832 147.407 39.832 145.799V31.4219C39.832 29.8292 40.692 28.5332 41.7489 28.5332H79.0509C80.1182 28.5332 80.9782 29.8292 80.9782 31.4219V31.4219Z" fill="#446BD0"/>
<path d="M83.443 31.4219V145.799C83.443 147.407 82.583 148.703 81.5157 148.703H44.2138C43.1569 148.703 42.2969 147.407 42.2969 145.799V31.4219C42.2969 29.8292 43.1569 28.5332 44.2138 28.5332H81.5157C82.583 28.5332 83.443 29.8292 83.443 31.4219V31.4219Z" fill="#A2C3F2"/>
<path d="M80.6123 43.2888V133.947C80.6123 135.79 79.6798 137.289 78.54 137.289H47.196C46.0458 137.289 45.1133 135.79 45.1133 133.947V43.2888C45.1133 41.4463 46.0458 39.9473 47.196 39.9473H78.54C79.6798 39.9473 80.6123 41.4463 80.6123 43.2888Z" fill="#E1EAFF"/>
<path d="M68.056 34.0446H57.6943C57.5907 34.0446 57.5078 33.9196 57.5078 33.7635C57.5078 33.623 57.5907 33.498 57.6943 33.498H68.056C68.1596 33.498 68.2425 33.623 68.2425 33.7635C68.2425 33.9196 68.1596 34.0446 68.056 34.0446Z" fill="#2E4882"/>
<path fill-rule="evenodd" clip-rule="evenodd" d="M78.9381 137.964H46.7963C45.3767 137.964 44.2266 136.168 44.2266 133.951V43.2923C44.2266 41.075 45.3767 39.2793 46.7963 39.2793H78.9381C80.3577 39.2793 81.5182 41.075 81.5182 43.2923V133.951C81.5182 136.168 80.3577 137.964 78.9381 137.964V137.964ZM46.7963 40.6222C45.8637 40.6222 45.1073 41.8245 45.1073 43.2923V133.951C45.1073 135.418 45.8637 136.621 46.7963 136.621H78.9381C79.8707 136.621 80.6271 135.418 80.6271 133.951V43.2923C80.6271 41.8245 79.8707 40.6222 78.9381 40.6222H46.7963Z" fill="white"/>
<path d="M83.6053 31.4217V129.419H83.2737V31.4217C83.2737 29.9696 82.4862 28.7829 81.5122 28.7829H44.2102C43.2466 28.7829 42.4591 29.9696 42.4591 31.4217V110.01H42.1172V31.4217C42.1172 29.6885 43.0601 28.2832 44.2102 28.2832H81.5122C82.6623 28.2832 83.6053 29.6885 83.6053 31.4217V31.4217Z" fill="#2E4882"/>
<path d="M48.5 148.96H44.2102C43.0601 148.96 42.1172 147.539 42.1172 145.806V132.58H42.4591V145.806C42.4591 147.273 43.2466 148.46 44.2102 148.46H48.5V148.96Z" fill="#2E4882"/>
<path d="M69.6746 148.957H53.2617V148.457H69.6746V148.957Z" fill="#2E4882"/>
<g opacity="0.4">
<g opacity="0.4">
<g opacity="0.4">
<g opacity="0.4">
<path opacity="0.4" d="M83.395 76.0957V116.787H59.8844C58.9726 116.787 58.2266 115.835 58.2266 114.664V78.2193C58.2266 77.0482 58.9726 76.0957 59.8844 76.0957H83.395Z" fill="#A3B2CE"/>
</g>
</g>
</g>
</g>
<path d="M60.3047 111.545V75.1001C60.3047 73.9291 60.9367 72.9766 61.7035 72.9766H99.2852C100.052 72.9766 100.684 73.9291 100.684 75.1001V111.545C100.684 112.716 100.052 113.668 99.2852 113.668H61.7035C60.9367 113.668 60.3047 112.716 60.3047 111.545V111.545Z" fill="#6D92F0"/>
<path d="M95.6759 105.207H64.9026C63.9114 105.207 63.1562 104.941 63.1562 104.629V102.677C63.1562 102.349 63.9114 102.1 64.9026 102.1H95.6759C96.6671 102.1 97.4222 102.349 97.4222 102.677V104.629C97.4222 104.941 96.6671 105.207 95.6759 105.207Z" fill="white"/>
<path d="M72.9274 107.503H63.6324C63.3727 107.503 63.1562 107.362 63.1562 107.185V106.415C63.1562 106.239 63.3727 106.098 63.6324 106.098H72.9274C73.1979 106.098 73.4143 106.239 73.4143 106.415V107.185C73.4143 107.362 73.1979 107.503 72.9274 107.503Z" fill="white"/>
<path d="M74.9013 109.979H63.7285C63.4164 109.979 63.1562 109.832 63.1562 109.649V108.849C63.1562 108.666 63.4164 108.52 63.7285 108.52H74.9013C75.2265 108.52 75.4866 108.666 75.4866 108.849V109.649C75.4866 109.832 75.2265 109.979 74.9013 109.979Z" fill="white"/>
<path d="M74.8026 112.402H63.7237C63.4142 112.402 63.1562 112.257 63.1562 112.075V111.282C63.1562 111.1 63.4142 110.955 63.7237 110.955H74.8026C75.1251 110.955 75.383 111.1 75.383 111.282V112.075C75.383 112.257 75.1251 112.402 74.8026 112.402Z" fill="white"/>
<path fill-rule="evenodd" clip-rule="evenodd" d="M65.0234 91.708V82.8234C65.0234 80.8831 65.705 79.2832 66.5496 79.2832H74.0765C74.9211 79.2832 75.6026 80.8831 75.6026 82.8234V91.708C75.6026 93.6484 74.9211 95.2483 74.0765 95.2483H66.5496C65.705 95.2483 65.0234 93.6484 65.0234 91.708ZM66.5496 80.2364C65.9273 80.2364 65.4235 81.3937 65.4235 82.8234V91.708C65.4235 93.1378 65.9273 94.2952 66.5496 94.2952H74.0765C74.6988 94.2952 75.2026 93.1378 75.2026 91.708V82.8234C75.2026 81.3937 74.6988 80.2364 74.0765 80.2364H66.5496Z" fill="white"/>
<path d="M100.823 82.9423H100.543V74.8852C100.543 73.8234 99.973 72.9802 99.2788 72.9802H87.7773V72.543H99.2788C100.128 72.543 100.823 73.5891 100.823 74.8852V82.9423Z" fill="#2E4882"/>
<path d="M100.827 91.8406H100.547V87.1719H100.827V91.8406Z" fill="#2E4882"/>
<path d="M74.7343 72.9802H67.3672V72.543H74.7343V72.9802Z" fill="#2E4882"/>
<path d="M94.2165 33.4707C94.5791 34.6106 95.1076 35.5162 95.8847 36.094C95.1076 36.6873 94.5791 37.593 94.2165 38.7328C93.8538 37.593 93.3254 36.6873 92.5586 36.1096C93.3254 35.5162 93.8538 34.6106 94.2165 33.4707Z" fill="#FFE6A6"/>
<path d="M100.971 56.1445C101.179 56.8003 101.49 57.3312 101.935 57.6748C101.49 58.0183 101.179 58.5492 100.971 59.205C100.764 58.5492 100.453 58.0183 100.008 57.6748C100.453 57.3312 100.764 56.8003 100.971 56.1445Z" fill="#FFE6A6"/>
<path d="M70.6135 25.3984C70.8725 26.2104 71.2455 26.8506 71.7947 27.2722C71.2455 27.6938 70.8725 28.334 70.6135 29.1459C70.3544 28.334 69.971 27.6938 69.4219 27.2722C69.971 26.8506 70.3544 26.2104 70.6135 25.3984Z" fill="#FFE6A6"/>
<path d="M37.5626 58.375C37.7699 59.0308 38.0807 59.5461 38.5159 59.8896C38.0807 60.2331 37.7699 60.7484 37.5626 61.4042C37.3554 60.7484 37.0446 60.2331 36.6094 59.8896C37.0446 59.5617 37.3554 59.0308 37.5626 58.375Z" fill="#FFE6A6"/>
<path d="M68.137 29.3027C68.2924 29.7712 68.51 30.1459 68.8312 30.3801C68.51 30.63 68.2924 31.0047 68.137 31.4732C67.9919 31.0047 67.764 30.63 67.4531 30.3958C67.764 30.1459 67.9919 29.7712 68.137 29.3027Z" fill="#FFE6A6"/>
<path d="M9.14325 78.1424L8.93602 78.2673C7.38177 72.0995 7.63045 65.4477 9.71314 57.3281L9.92038 57.4374C7.85841 65.4946 7.60973 72.0683 9.14325 78.1424V78.1424Z" fill="#2E4882"/>
<path d="M8.51469 82.9068L8.31781 83.0942C3.8623 72.2108 6.46308 61.0308 9.60266 51.5059L9.79953 51.662C6.69104 61.0932 4.11098 72.1796 8.51469 82.9068Z" fill="#2E4882"/>
<path d="M103.211 15.0176C99.6364 8.28766 95.9891 4.64946 91.7305 3.58766L91.7719 3.24414C96.0824 4.33716 99.7711 8.0066 103.387 14.8146L103.211 15.0176Z" fill="#2E4882"/>
<path d="M106.597 17.7781C102.753 8.97146 97.7068 0.0242879 89.3346 0.352195L89.3242 0.00867376C97.8001 -0.319233 102.908 8.70601 106.784 17.5907L106.597 17.7781Z" fill="#2E4882"/>
<path d="M71.5498 64.2404C71.9209 63.6931 72.1835 63.3208 72.3376 63.1235C73.4099 61.7616 74.5956 60.4896 75.9671 59.6775C77.3317 58.877 78.8504 58.4727 80.3862 58.5315C81.9221 58.5902 83.4751 59.112 84.9506 60.1157C86.4184 61.1091 87.7863 62.5754 88.9331 64.4141C90.0731 66.2644 90.9997 68.4976 91.6049 70.968C92.2102 73.4384 92.5086 76.1447 92.4335 78.8714C92.3662 81.6085 91.9184 84.3776 91.126 86.9545C92.2294 84.65 93.0547 81.9707 93.4915 79.103C93.9351 76.2237 94.0057 73.1767 93.6665 70.1642C93.3421 67.1504 92.6087 64.1932 91.4893 61.5117C90.3777 58.8407 88.8877 56.4558 87.1231 54.5807C85.3654 52.6938 83.3253 51.3063 81.1402 50.5613C78.9629 49.8267 76.6553 49.7333 74.3876 50.3223C72.1199 50.9112 69.8998 52.1929 67.8937 54.0979L67.1936 54.8092C67.1557 54.8419 67.118 54.8819 67.0806 54.9293L66.8555 55.1915C66.7003 55.3594 66.5451 55.5273 66.3976 55.7056L64.5303 52.6447L64.708 65.5571L73.4626 67.3416L71.5498 64.2404Z" fill="#446BD0"/>
<path d="M76.0146 59.8973C77.3869 59.1073 78.891 58.7043 80.3683 58.7679C81.8896 58.8279 83.458 59.3704 84.8811 60.3455C86.3411 61.3284 87.7013 62.7843 88.8095 64.5709C89.3636 65.4642 89.8625 66.4507 90.2898 67.4874L90.5597 67.2435C90.1091 66.1756 89.6026 65.1787 89.0399 64.2529C87.9008 62.4247 86.502 60.9168 85.0041 59.9038C83.5441 58.9209 81.9456 58.3587 80.3804 58.3024C78.8592 58.2425 77.3112 58.6492 75.9036 59.4754L76.0146 59.8973Z" fill="#2E4882"/>
<path d="M92.2772 78.8738L92.5861 78.892C92.6543 76.177 92.368 73.4033 91.7465 70.8901L91.4588 71.047C92.0641 73.5174 92.3478 76.2249 92.2772 78.8738V78.8738Z" fill="#2E4882"/>
<path d="M67.982 54.3034C69.9235 52.437 72.1505 51.1437 74.4182 50.5548C76.6273 49.9708 78.9419 50.0524 81.1123 50.7987C83.2226 51.5057 85.2695 52.8816 87.035 54.7789L87.2113 54.3881C85.4158 52.4712 83.331 51.0653 81.176 50.3399C78.9686 49.5857 76.6171 49.4961 74.3571 50.0955C72.0601 50.6869 69.7979 52.0163 67.8133 53.9084L67.982 54.3034Z" fill="#2E4882"/>
<path d="M64.5616 65.7606L71.2166 67.1247L71.2579 66.6568L64.8619 65.3483L64.7328 55.7273L64.4179 55.7428L64.5616 65.7606Z" fill="#2E4882"/>
<path d="M31.5257 147.417L31.3281 139.982L35.6625 140.003L35.0828 147.437L31.5257 147.417Z" fill="#FFC9AE"/>
<path d="M41.2709 152.203H30.6129C30.5075 152.203 30.4416 152.062 30.4548 151.901L31.074 146.577C31.1267 146.155 31.4297 145.974 31.6537 146.195C32.9579 147.601 34.328 147.019 34.9999 146.155C35.1975 145.893 35.4874 145.914 35.6718 146.195C35.9353 146.597 36.3305 147.099 36.7785 147.4C37.7665 148.084 40.9283 149.611 41.3499 150.615C41.4685 150.876 41.4421 151.6 41.4158 151.982C41.4158 152.122 41.3499 152.203 41.2709 152.203V152.203Z" fill="#48393E"/>
<path d="M23.5703 136.79L27.6412 132.711L29.8545 138.397L25.3752 141.451L23.5703 136.79Z" fill="#FFC9AE"/>
<path d="M25.6039 151.982L20.1365 138.038C20.0838 137.917 20.1233 137.736 20.2287 137.676L23.799 135.767C24.0625 135.626 24.3259 135.908 24.3128 136.33C24.2074 138.761 25.2218 140.248 26.0518 140.67C26.3021 140.81 26.4338 141.192 26.3811 141.574C26.2889 142.136 26.2099 142.92 26.2626 143.643C26.3943 145.291 27.1452 150.214 26.8027 151.299C26.7105 151.58 26.0386 151.901 25.8015 152.082C25.7224 152.142 25.6434 152.102 25.6039 151.982V151.982Z" fill="#48393E"/>
<path d="M43.8027 114.007C42.9244 122.124 38.0411 131.467 29.1529 142.036C26.1887 137.636 25.9384 136.952 25.082 131.769L34.001 111.636L30.9578 76.916L41.6289 77.0969C43.7368 95.5686 44.4614 107.872 43.8027 114.007V114.007Z" fill="#403D3D"/>
<path d="M30.4809 119.795L31.0606 139.506L29.1503 142.037C28.6365 141.254 28.0173 140.329 27.6484 139.747L30.4809 119.795Z" fill="#3C0A06"/>
<path d="M40.0107 113.871C40.0721 118.385 39.1675 128.116 37.2967 143.065C34.9122 144.391 32.7121 144.572 29.4449 143.065L30.6701 114.554C28.773 104.843 27.6532 98.8684 27.3106 96.6314C26.2216 89.5187 26.1513 83.1962 27.0999 77.6641L36.335 78.086C38.7415 98.433 39.9667 110.361 40.0107 113.871V113.871Z" fill="#403D3D"/>
<path d="M31.2308 80.0309L35.8154 78.0618L38.1736 77.0371L41.6253 77.0974C41.8448 79.0263 42.0908 81.4039 42.363 84.2302C41.9546 84.3307 39.794 84.7928 37.0933 84.6924C35.3543 84.6321 33.3913 84.3106 31.5338 83.527C30.3481 83.0247 29.2019 82.3013 28.1875 81.3369L31.2308 80.0309Z" fill="#3C0A06"/>
<path d="M26.6836 48.6679L31.2156 45.5938L36.3667 45.7746L41.0963 50.858L43.1119 81.4388C38.8786 84.5866 33.1785 84.7474 26.0117 81.921L26.6836 48.6679Z" fill="#5A8FD5"/>
<path d="M41.1637 63.0128L36.5 45.7734C39.2403 46.1351 41.2164 47.3808 42.4284 49.5107C44.1323 52.5245 45.8362 57.3467 47.5401 63.9773C45.3795 62.9726 43.254 62.6512 41.1637 63.0128V63.0128Z" fill="#5A8FD5"/>
<path d="M35.2994 60.4407L36.2743 51.3589C36.3006 51.0575 36.4719 50.8164 36.6695 50.8164H39.1858C39.4361 50.8164 39.6206 51.158 39.581 51.5397L38.6061 60.6015C38.5798 60.9229 38.4085 61.1641 38.2109 61.1641H35.6946C35.4575 61.1641 35.273 60.8225 35.2994 60.4407V60.4407Z" fill="#48393E"/>
<path d="M42.0195 67.0317L41.2422 57.2668L41.4398 57.2266L42.2039 66.9915L42.0195 67.0317Z" fill="#48393E"/>
<path d="M47.7981 70.007C47.7893 70.0739 47.7806 70.1409 47.7718 70.2079C47.3634 72.5587 46.0196 73.925 44.6758 73.483C43.8458 73.2218 42.9895 73.4428 42.2122 71.3933C41.0705 68.4062 40.201 64.6288 39.6037 60.0611C38.8001 60.5032 38.4707 59.6392 38.036 59.5588C37.5881 59.4584 36.7844 60.0812 36.7581 59.4785C36.7405 59.09 37.1577 58.8154 38.0096 58.6547C37.632 58.5341 37.2851 58.4738 36.9689 58.4738C36.6395 58.4939 36.3892 58.4336 36.4155 58.1724C36.4331 57.8911 36.7098 57.717 37.2455 57.65L38.0228 57.3888C37.5573 57.1879 37.2148 57.1209 36.9952 57.1879C36.6659 57.3085 36.1652 57.3085 36.1257 56.9468C36.0994 56.5851 36.8108 56.4244 37.0479 56.2837C37.1972 56.19 37.4827 56.1766 37.9042 56.2436C37.6232 56.0025 37.3948 55.8752 37.2192 55.8618C36.9952 55.8618 36.5078 56.0225 36.4682 55.681C36.4155 55.3193 37.43 54.7969 37.7461 54.8974C38.0623 54.9978 39.4325 56.123 39.6828 56.4646C39.8409 56.7057 45.4399 64.1399 46.0328 65.1245C47.6269 67.8369 47.6532 68.7612 47.7981 70.007Z" fill="#FFC9AE"/>
<path d="M41.7581 48.4863C44.775 54.5342 52.179 70.7489 46.5667 73.9436C42.8955 76.0198 40.5021 72.5438 39.3867 63.5155C41.1257 62.9329 42.0743 61.8077 42.4695 60.2806L41.7581 48.4863Z" fill="#5A8FD5"/>
<path d="M29.2543 81.8184L30.9275 85.4752C30.5981 86.3794 30.0448 87.4041 29.1358 87.8461L27.0938 84.6514L29.2543 81.8184Z" fill="#FFC9AE"/>
<path d="M27.75 88.2683L27.7763 87.8664C28.2506 87.9267 28.6854 87.8464 29.0806 87.6454C29.8052 87.3039 30.3849 86.5403 30.8064 85.375C31.1226 84.5311 31.228 83.7676 31.228 83.7676L31.4915 83.8479C31.4783 83.8881 31.3729 84.6516 31.0436 85.5759C30.5956 86.8015 29.9501 87.6454 29.1728 88.0272C28.8391 88.2013 28.4834 88.2884 28.1057 88.2884C27.9915 88.2884 27.873 88.2817 27.75 88.2683Z" fill="white"/>
<path d="M24.0906 49.9117C26.3039 47.3198 28.9651 46.2147 30.2693 45.8128C30.6119 45.6923 30.8622 45.632 30.9808 45.6119H30.9939C31.0203 45.5985 31.0378 45.5918 31.0466 45.5918C31.0466 45.5918 31.0466 45.5985 31.0466 45.6119C31.0335 45.6722 30.9017 46.2347 30.6909 47.1389C29.7028 51.3784 27.0943 63.2933 27.292 68.6781C27.3886 71.2098 28.5215 75.8645 30.6909 82.6424C29.7819 84.3302 28.6489 85.6161 27.2656 86.3796C23.6383 80.968 21.5743 76.0922 21.0737 71.7523C20.4413 66.3675 21.3635 53.1265 24.0906 49.9117V49.9117Z" fill="#5A8FD5"/>
<path d="M31.1257 45.5522L33.4444 45.1504L37.0673 45.8335C37.1815 48.968 36.4042 50.5285 34.7355 50.5151C33.0228 50.5017 31.4639 48.9278 30.0586 45.7934C30.2957 45.7264 30.6514 45.646 31.1257 45.5522V45.5522Z" fill="white"/>
<path d="M30.9492 46.3545L31.8978 37.0918L35.9423 41.7533L36.5088 46.8166C35.7447 51.1834 33.8915 51.0293 30.9492 46.3545V46.3545Z" fill="#FFC9AE"/>
<path d="M36.3467 45.3083C34.7043 45.335 33.5757 44.2902 32.9609 42.1738L36.0569 42.6761L36.3467 45.3083Z" fill="#48393E"/>
<path d="M39.1328 34.6626C38.6059 38.9825 37.9076 45.0906 35.141 44.2065C32.111 43.2421 31.8738 38.5204 31.9002 35.0243C31.9265 33.2762 32.796 30.4231 35.3914 30.6039C38.6322 30.845 39.3568 32.9346 39.1328 34.6626V34.6626Z" fill="#FFC9AE"/>
<path d="M32.7393 30.5025C35.418 28.386 37.5084 27.944 39.0102 29.1763C40.8546 30.6833 40.5911 34.9228 39.3659 35.8069C37.9826 36.8316 35.2687 34.5812 34.4519 35.2242C34.2411 35.3849 33.925 36.8718 33.477 37.3942C33.1345 37.7759 31.7775 38.4591 31.3691 36.5905C30.3767 31.9558 30.8334 29.9265 32.7393 30.5025Z" fill="#48393E"/>
<path d="M32.5166 39.2637C31.4363 39.324 30.804 37.9979 31.2255 36.6115C31.3309 36.27 31.489 36.069 31.6471 35.9485C32.1873 35.5667 32.7669 36.3503 32.6879 37.2746L32.5166 39.2637Z" fill="#FFC9AE"/>
<path d="M30.3474 82.7026C30.3211 82.6423 27.5018 75.3287 27.4359 69.984C27.3569 63.896 28.0551 59.8976 28.0683 59.8574L28.2527 59.9378C28.2527 59.978 27.5545 63.9362 27.6335 69.984C27.6994 75.2483 30.4792 82.4816 30.5187 82.562L30.3474 82.7026Z" fill="#48393E"/>
<path d="M46.4588 64.722L42.7305 60.161L42.8622 59.9199L46.5905 64.4809L46.4588 64.722Z" fill="#48393E"/>
<path d="M42.534 73.3585C42.5208 73.3183 40.6896 70.204 39.5039 63.473L39.7015 63.3926C40.8609 70.0432 42.6657 73.1174 42.6789 73.1575L42.534 73.3585Z" fill="#48393E"/>
<path d="M39.27 126.305L39.0724 126.265C39.6652 120.257 39.9419 116.098 39.9156 113.868C39.876 111.035 38.7958 100.767 37.8999 92.6701L37.8867 92.5697L39.0856 91.2637L39.2041 91.5048L38.0975 92.7103C39.0065 100.808 40.0737 111.015 40.1132 113.848C40.1395 116.098 39.8629 120.297 39.27 126.305Z" fill="white"/>
<path d="M27.8055 63.736L27.6211 63.6355C27.9505 62.4099 28.5565 60.7623 28.5696 60.7422L28.7409 60.8828C28.7277 60.9029 28.1349 62.5304 27.8055 63.736V63.736Z" fill="#48393E"/>
<path d="M28.6102 55.1762C28.3467 50.7961 26.3179 49.1485 26.3047 49.1284L26.3969 48.8672C26.4101 48.8873 28.5311 50.5951 28.7946 55.1361L28.6102 55.1762Z" fill="#48393E"/>
<path d="M138 152.047V152.609H0V152.047H138Z" fill="#48393E"/>
</g>
<defs>
<clipPath id="clip0_2360_5632">
<rect width="138" height="153.998" fill="white"/>
</clipPath>
</defs>
</svg>
