<svg width="28" height="28" viewBox="0 0 28 28" fill="none" xmlns="http://www.w3.org/2000/svg">
<path d="M27.1797 7.06606H17.7933L23.0802 1.47968C23.4006 1.14123 23.4006 0.592385 23.0802 0.253879C22.7599 -0.0845686 22.2405 -0.0845686 21.9201 0.253879L15.5546 6.97996C15.5288 7.00723 15.5059 7.03624 15.4842 7.066H12.5269L6.07994 0.253879C5.75963 -0.0846842 5.24021 -0.0845686 4.91985 0.253879C4.59949 0.592327 4.59949 1.14117 4.91985 1.47968L10.2067 7.06606H0.820312C0.367281 7.06606 0 7.45414 0 7.93283V27.1332C0 27.6119 0.367281 28 0.820312 28H27.1797C27.6327 28 28 27.6119 28 27.1332V7.93283C28 7.45408 27.6327 7.06606 27.1797 7.06606ZM26.3594 26.2664H1.64062V8.79961H11.8473L13.2814 10.3149C13.4415 10.4842 13.6515 10.5688 13.8614 10.5688C14.0713 10.5688 14.2813 10.4842 14.4414 10.3149C14.7617 9.97646 14.7617 9.42762 14.4414 9.08911L14.1674 8.79961H26.3594V26.2664Z" fill="#1F4EAD"/>
<path d="M11.8072 18.2077C12.3694 17.4423 12.7054 16.4824 12.7054 15.4407C12.7054 12.9469 10.7853 10.918 8.42513 10.918C6.06498 10.918 4.14485 12.9468 4.14485 15.4407C4.14485 16.4826 4.48091 17.4425 5.04326 18.2081C3.60126 19.3136 2.73047 21.0878 2.73047 23.0004V23.2813C2.73047 23.76 3.09775 24.1481 3.55078 24.1481H13.2995C13.7525 24.1481 14.1198 23.76 14.1198 23.2813V23.0004C14.1198 21.0859 13.2496 19.3129 11.8072 18.2077ZM8.42513 12.6515C9.88059 12.6515 11.0647 13.9027 11.0647 15.4407C11.0647 16.9786 9.88064 18.2298 8.42513 18.2298C6.96962 18.2298 5.78548 16.9786 5.78548 15.4407C5.78548 13.9027 6.96962 12.6515 8.42513 12.6515ZM4.40992 22.4145C4.57781 21.1555 5.28098 20.0361 6.33421 19.3848C6.953 19.7525 7.66602 19.9633 8.42513 19.9633C9.18414 19.9633 9.8971 19.7526 10.5159 19.3849C11.5696 20.0363 12.2727 21.1546 12.4404 22.4145H4.40992Z" fill="#1F4EAD"/>
<path d="M16.375 14.3703H23.6659C24.1189 14.3703 24.4862 13.9822 24.4862 13.5035C24.4862 13.0248 24.1189 12.6367 23.6659 12.6367H16.375C15.922 12.6367 15.5547 13.0248 15.5547 13.5035C15.5547 13.9822 15.922 14.3703 16.375 14.3703Z" fill="#1F4EAD"/>
<path d="M16.375 17.8742H23.6659C24.1189 17.8742 24.4862 17.4861 24.4862 17.0074C24.4862 16.5287 24.1189 16.1406 23.6659 16.1406H16.375C15.922 16.1406 15.5547 16.5287 15.5547 17.0074C15.5547 17.4861 15.922 17.8742 16.375 17.8742Z" fill="#1F4EAD"/>
<path d="M23.664 22.4141H19.5273C19.0743 22.4141 18.707 22.8021 18.707 23.2808C18.707 23.7595 19.0743 24.1476 19.5273 24.1476H23.664C24.117 24.1476 24.4843 23.7595 24.4843 23.2808C24.4843 22.8021 24.117 22.4141 23.664 22.4141Z" fill="#1F4EAD"/>
</svg>
