<svg width="30" height="30" viewBox="0 0 30 30" fill="none" xmlns="http://www.w3.org/2000/svg">
<path d="M24.8858 0.964844H4.19422C1.88151 0.964844 0 3.23077 0 6.016V24.8737C0 27.6589 1.88151 29.9248 4.19422 29.9248H24.8858C27.1985 29.9248 29.08 27.6589 29.08 24.8737V6.016C29.08 3.23077 27.1985 0.964844 24.8858 0.964844ZM27.4023 18.4756H21.2508C19.8632 18.4756 18.7342 17.116 18.7342 15.4448C18.7342 13.7737 19.8631 12.4141 21.2508 12.4141H27.4023V18.4756ZM27.4023 10.3937H21.2508C18.9381 10.3937 17.0566 12.6596 17.0566 15.4448C17.0566 18.2301 18.9381 20.496 21.2508 20.496H27.4023V24.8737C27.4023 26.5448 26.2734 27.9044 24.8858 27.9044H4.19422C2.80662 27.9044 1.67767 26.5449 1.67767 24.8737V6.016C1.67767 4.34489 2.80656 2.98528 4.19422 2.98528H24.8858C26.2734 2.98528 27.4023 4.34482 27.4023 6.016V10.3937Z" fill="#1F4EAD"/>
<path d="M22.3674 14.4336H21.249C20.7857 14.4336 20.4102 14.8859 20.4102 15.4438C20.4102 16.0018 20.7858 16.454 21.249 16.454H22.3674C22.8307 16.454 23.2063 16.0017 23.2063 15.4438C23.2063 14.8859 22.8307 14.4336 22.3674 14.4336Z" fill="#1F4EAD"/>
</svg>
