<svg width="365" height="265" viewBox="0 0 365 265" fill="none" xmlns="http://www.w3.org/2000/svg">
<path d="M52.3686 264.679C30.9773 255.451 0.954984 203.44 43.638 154.614C70.3024 124.094 28.3905 59.4972 107.14 19.2519C158.579 -7.06434 271.281 11.939 332.221 85.1667C373.635 134.939 374.58 208.166 341.971 264.007L52.3686 264.679Z" fill="#F4F9FF"/>
<path d="M348.337 114.545V263.643H31V79.2119H59.0689V108.71H66.5923V31.8093H195.393V0H219.187V106.826H256.68V36.0784L283.715 18.5759V52.6386H333.291V114.545H348.337Z" fill="#E5ECFF"/>
<path d="M218.908 106.826V0H207.598V263.643H219.251V106.826H218.908Z" fill="#B4D1FD"/>
<path d="M254.208 106.828H244.98V263.646H254.208V106.828Z" fill="#B4D1FD"/>
<path d="M277.996 22.0907V263.643H283.335V18.6328L277.996 22.0907Z" fill="#B4D1FD"/>
<path d="M195.117 31.8086H134.871V260.652H195.117V31.8086Z" fill="#B4D1FD"/>
<path d="M58.7801 79.2109H43.7188V263.708H58.7801V79.2109Z" fill="#B4D1FD"/>
<path d="M62.291 159.127C61.9779 158.726 61.468 159.308 61.7739 159.709C73.5142 174.737 78.0516 196.033 73.6599 215.412C73.5434 215.929 74.2498 216.142 74.3591 215.634C78.8236 195.952 74.2061 174.377 62.291 159.127Z" fill="#8DB2EB"/>
<path d="M74.9133 189.376C74.1268 172.676 77.3386 155.755 84.1191 140.875C83.1286 157.378 80.0115 173.864 74.9133 189.376Z" fill="#8DB2EB"/>
<path d="M70.6074 174.435C69.1217 159.407 59.5736 145.756 46.9375 140.594C50.6664 154.786 59.1148 167.257 70.6074 174.435Z" fill="#8DB2EB"/>
<path d="M75.4774 193C69.8767 182.888 60.9477 175.17 50.8242 171.695C57.2479 180.955 65.7691 188.682 75.4774 193Z" fill="#8DB2EB"/>
<path d="M60.9078 243.168C53.8069 240.136 48.1843 233.884 45.3731 225.952C42.2414 217.127 43.0061 207.171 43.6616 197.928C43.698 197.404 42.9697 197.404 42.9333 197.928C42.2487 207.516 41.4985 217.856 44.9434 226.944C47.9294 234.81 53.6102 240.923 60.7112 243.954C61.1555 244.143 61.3448 243.348 60.9078 243.168Z" fill="#8DB2EB"/>
<path d="M42.9172 215.683C39.2029 203.842 40.4046 190.175 46.0999 179.375C48.5106 191.486 47.1341 204.219 42.9172 215.683Z" fill="#8DB2EB"/>
<path d="M44.6492 224.105C44.1248 218.173 46.8997 212.027 51.4662 209.012C51.5973 214.829 48.9171 220.803 44.6492 224.105Z" fill="#8DB2EB"/>
<path d="M44.4569 223.703C40.6697 219.712 35.0326 218.074 30 219.508C31.4712 222.187 33.5469 224.358 36.2561 225.161C38.9654 225.973 42.0025 225.202 44.4569 223.703Z" fill="#8DB2EB"/>
<path d="M114.477 263.646H36.8246C36.4095 261.704 36.191 259.704 36.1837 257.705C36.1692 253.19 37.2908 248.552 39.9345 245.152C42.571 241.759 46.8753 239.858 50.7426 241.055C49.1403 237.794 49.9633 233.311 52.3813 230.771C54.8065 228.231 58.7903 227.838 61.5652 229.853C56.3214 225.789 55.0687 216.022 58.4335 209.942C59.1618 208.623 60.1013 207.467 61.1719 206.509C65.0319 203.051 70.6981 202.067 75.2282 204.411C81.0182 207.402 84.3466 215.309 82.9337 222.299C87.3472 219.349 93.8947 221.217 97.0555 225.773C100.216 230.329 99.8304 237.515 96.2107 241.612C99.5172 239.301 104.084 240.293 107.565 242.251C111.039 244.201 113.595 247.97 114.673 252.182C115.627 255.902 115.467 259.926 114.477 263.646Z" fill="#7AA1DE"/>
<path d="M97.4998 263.641H36.8246C36.4095 261.699 36.191 259.7 36.1837 257.7C36.1692 253.185 37.2908 248.548 39.9345 245.147C42.571 241.755 46.8753 239.854 50.7426 241.05C49.1403 237.789 49.9633 233.307 52.3813 230.766C54.8065 228.226 58.7903 227.833 61.5652 229.849C56.3214 225.784 55.0687 216.017 58.4335 209.937C59.1618 208.618 60.1013 207.463 61.1719 206.504C65.1048 210.265 67.1076 216.583 65.9496 222.294C70.3704 219.344 76.9179 221.212 80.0787 225.768C83.2323 230.324 82.8536 237.51 79.2339 241.607C82.5331 239.296 87.0996 240.288 90.5809 242.246C94.0622 244.197 96.6185 247.966 97.6964 252.178C98.6505 255.898 98.4903 259.921 97.4998 263.641Z" fill="#8DB2EB"/>
<path d="M76.3682 222.751C76.3682 225.217 74.5912 229.232 72.399 229.232C70.2068 229.232 68.4297 225.217 68.4297 222.751C68.4297 220.285 70.2068 218.285 72.399 218.285C74.5912 218.277 76.3682 220.276 76.3682 222.751Z" fill="#CDE0FF"/>
<path d="M67.0735 223.856C69.1565 224.618 72.0042 227.765 71.3268 230.108C70.6495 232.452 66.7094 233.115 64.6191 232.353C62.5362 231.591 61.3927 229.068 62.0701 226.724C62.7474 224.372 64.9906 223.086 67.0735 223.856Z" fill="#CDE0FF"/>
<path d="M65.1418 234.14C66.4309 232.14 69.9632 230.075 71.7402 231.526C73.5173 232.976 72.8546 237.401 71.5655 239.392C70.2763 241.391 67.7928 241.834 66.0158 240.383C64.246 238.933 63.8527 236.139 65.1418 234.14Z" fill="#CDE0FF"/>
<path d="M73.2316 239.395C71.9425 237.395 71.2871 232.979 73.0568 231.529C74.8339 230.078 78.3662 232.151 79.6553 234.142C80.9444 236.142 80.5511 238.936 78.774 240.386C77.0043 241.837 74.5207 241.394 73.2316 239.395Z" fill="#CDE0FF"/>
<path d="M80.1808 232.357C78.0978 233.119 74.1504 232.456 73.4731 230.112C72.7958 227.769 75.6362 224.622 77.7264 223.86C79.8094 223.098 82.0525 224.385 82.7299 226.728C83.4072 229.072 82.2637 231.595 80.1808 232.357Z" fill="#CDE0FF"/>
<path d="M76.3682 230.497C76.3682 232.963 74.5912 234.963 72.399 234.963C70.2068 234.963 68.4297 232.963 68.4297 230.497C68.4297 228.031 70.2068 226.031 72.399 226.031C74.5912 226.031 76.3682 228.031 76.3682 230.497Z" fill="white"/>
<path d="M192.262 262.831H109.338C103.625 262.831 99 257.775 99 251.545V60.9965C99 54.7599 103.632 49.7109 109.338 49.7109H192.262C197.975 49.7109 202.6 54.7669 202.6 60.9965V251.545C202.6 257.782 197.975 262.831 192.262 262.831Z" fill="#1933AE"/>
<path d="M109.334 258.665C105.739 258.665 102.812 255.47 102.812 251.546V60.9975C102.812 57.0736 105.739 53.8789 109.334 53.8789H192.257C195.851 53.8789 198.778 57.0736 198.778 60.9975V251.546C198.778 255.47 195.851 258.665 192.257 258.665H109.334Z" fill="#7F96FC"/>
<path d="M195.187 250.601L195.188 57.8086L106.424 57.8086L106.424 250.601L195.187 250.601Z" fill="#324BCC"/>
<path d="M150.794 256.999C151.936 256.999 152.862 255.988 152.862 254.741C152.862 253.495 151.936 252.484 150.794 252.484C149.652 252.484 148.727 253.495 148.727 254.741C148.727 255.988 149.652 256.999 150.794 256.999Z" fill="#1933AE"/>
<path d="M117.937 72.1351H114.496C114.146 72.1351 113.859 71.8226 113.859 71.4406C113.859 71.0586 114.146 70.7461 114.496 70.7461H117.937C118.287 70.7461 118.574 71.0586 118.574 71.4406C118.574 71.8226 118.287 72.1351 117.937 72.1351Z" fill="#7F96FC"/>
<path d="M117.937 75.0921H114.496C114.146 75.0921 113.859 74.7796 113.859 74.3976C113.859 74.0156 114.146 73.7031 114.496 73.7031H117.937C118.287 73.7031 118.574 74.0156 118.574 74.3976C118.574 74.7796 118.287 75.0921 117.937 75.0921Z" fill="#7F96FC"/>
<path d="M117.937 78.0374H114.496C114.146 78.0374 113.859 77.7249 113.859 77.3429C113.859 76.961 114.146 76.6484 114.496 76.6484H117.937C118.287 76.6484 118.574 76.961 118.574 77.3429C118.574 77.7249 118.287 78.0374 117.937 78.0374Z" fill="#7F96FC"/>
<path d="M187.075 73.4453H179.695V77.7512H187.075V73.4453Z" fill="#7F96FC"/>
<path d="M187.075 70.3008H179.695V72.7871H187.075V70.3008Z" fill="#7F96FC"/>
<path d="M181.092 71.3764C180.913 71.3764 180.773 71.2236 180.773 71.0292V69.9527C180.773 69.7583 180.913 69.6055 181.092 69.6055C181.27 69.6055 181.41 69.7583 181.41 69.9527V71.0292C181.41 71.2167 181.27 71.3764 181.092 71.3764Z" fill="#7F96FC"/>
<path d="M185.873 71.3764C185.695 71.3764 185.555 71.2236 185.555 71.0292V69.9527C185.555 69.7583 185.695 69.6055 185.873 69.6055C186.051 69.6055 186.191 69.7583 186.191 69.9527V71.0292C186.191 71.2167 186.051 71.3764 185.873 71.3764Z" fill="#7F96FC"/>
<path d="M190.588 80.5898H110.992V92.3129H190.588V80.5898Z" fill="#7F96FC"/>
<path d="M190.588 92.3203H110.992V135.164H190.588V92.3203Z" fill="#1933AE"/>
<path d="M153.792 100.509C153.792 103.127 151.845 105.252 149.447 105.252C147.048 105.252 145.102 103.127 145.102 100.509C145.102 97.8908 147.048 95.7656 149.447 95.7656C151.845 95.7656 153.792 97.8908 153.792 100.509Z" fill="#7F96FC"/>
<path d="M151.713 101.504H149.263C149.085 101.504 148.945 101.351 148.945 101.157V97.9762C148.945 97.7817 149.085 97.6289 149.263 97.6289C149.442 97.6289 149.582 97.7817 149.582 97.9762V100.81H151.713C151.891 100.81 152.031 100.962 152.031 101.157C152.031 101.344 151.885 101.504 151.713 101.504Z" fill="#1933AE"/>
<path d="M168.493 98.8086H157.562V102.212H168.493V98.8086Z" fill="#7F96FC"/>
<path d="M182 98.8086H171.07V102.212H182V98.8086Z" fill="#7F96FC"/>
<path d="M182.008 108.09H145.102V111.493H182.008V108.09Z" fill="#7F96FC"/>
<path d="M182.008 116.543H145.102V119.946H182.008V116.543Z" fill="#7F96FC"/>
<path d="M141.214 95.7656H119.57V119.392H141.214V95.7656Z" fill="#7F96FC"/>
<path d="M130.385 105.92C132.082 105.92 133.458 104.418 133.458 102.565C133.458 100.713 132.082 99.2109 130.385 99.2109C128.688 99.2109 127.312 100.713 127.312 102.565C127.312 104.418 128.688 105.92 130.385 105.92Z" fill="#1933AE"/>
<path d="M135.635 115.943H125.156V111.638C125.156 108.478 127.504 105.922 130.392 105.922C133.287 105.922 135.628 108.485 135.628 111.638V115.943H135.635Z" fill="#1933AE"/>
<path d="M157.859 131.719H153.628C151.86 131.719 150.422 130.157 150.422 128.219C150.422 126.288 151.853 124.719 153.628 124.719H157.859C159.628 124.719 161.066 126.281 161.066 128.219C161.059 130.15 159.628 131.719 157.859 131.719Z" fill="#7F96FC"/>
<path d="M173.484 131.719H169.253C167.485 131.719 166.047 130.157 166.047 128.219C166.047 126.288 167.478 124.719 169.253 124.719H173.484C175.253 124.719 176.691 126.281 176.691 128.219C176.684 130.15 175.253 131.719 173.484 131.719Z" fill="#7F96FC"/>
<path d="M141.214 126.516H119.57V129.919H141.214V126.516Z" fill="#7F96FC"/>
<path d="M190.588 163.691H110.992V182.755H190.588V163.691Z" fill="#1933AE"/>
<path d="M128.456 163.691H110.992V182.755H128.456V163.691Z" fill="#324BCC"/>
<path d="M119.709 171.88C121.076 171.88 122.184 170.67 122.184 169.178C122.184 167.686 121.076 166.477 119.709 166.477C118.342 166.477 117.234 167.686 117.234 169.178C117.234 170.67 118.342 171.88 119.709 171.88Z" fill="#7F96FC"/>
<path d="M123.955 179.97H115.5V176.49C115.5 173.942 117.396 171.879 119.724 171.879C122.059 171.879 123.949 173.949 123.949 176.49V179.97H123.955Z" fill="#7F96FC"/>
<path d="M135.08 180.67C137.48 180.67 139.425 178.547 139.425 175.927C139.425 173.307 137.48 171.184 135.08 171.184C132.68 171.184 130.734 173.307 130.734 175.927C130.734 178.547 132.68 180.67 135.08 180.67Z" fill="#7F96FC"/>
<path d="M137.338 176.91H134.888C134.71 176.91 134.57 176.758 134.57 176.563V173.382C134.57 173.188 134.71 173.035 134.888 173.035C135.067 173.035 135.207 173.188 135.207 173.382V176.216H137.338C137.516 176.216 137.656 176.369 137.656 176.563C137.656 176.758 137.516 176.91 137.338 176.91Z" fill="#324BCC"/>
<path d="M154.049 175.926H142.234V179.232H154.049V175.926Z" fill="#7F96FC"/>
<path d="M170.864 167.523H142.234V170.829H170.864V167.523Z" fill="#7F96FC"/>
<path d="M170.518 175.926H158.703V179.232H170.518V175.926Z" fill="#7F96FC"/>
<path d="M184.617 170.959H181.175C180.825 170.959 180.539 170.647 180.539 170.265C180.539 169.883 180.825 169.57 181.175 169.57H184.617C184.967 169.57 185.253 169.883 185.253 170.265C185.253 170.647 184.973 170.959 184.617 170.959Z" fill="#324BCC"/>
<path d="M184.617 173.912H181.175C180.825 173.912 180.539 173.6 180.539 173.218C180.539 172.836 180.825 172.523 181.175 172.523H184.617C184.967 172.523 185.253 172.836 185.253 173.218C185.253 173.6 184.973 173.912 184.617 173.912Z" fill="#324BCC"/>
<path d="M184.617 176.866H181.175C180.825 176.866 180.539 176.553 180.539 176.171C180.539 175.789 180.825 175.477 181.175 175.477H184.617C184.967 175.477 185.253 175.789 185.253 176.171C185.253 176.553 184.973 176.866 184.617 176.866Z" fill="#324BCC"/>
<path d="M190.588 191.152H110.992V210.216H190.588V191.152Z" fill="#1933AE"/>
<path d="M128.456 191.152H110.992V210.216H128.456V191.152Z" fill="#324BCC"/>
<path d="M119.709 199.341C121.076 199.341 122.184 198.131 122.184 196.639C122.184 195.147 121.076 193.938 119.709 193.938C118.342 193.938 117.234 195.147 117.234 196.639C117.234 198.131 118.342 199.341 119.709 199.341Z" fill="#7F96FC"/>
<path d="M123.955 207.438H115.5V203.958C115.5 201.409 117.396 199.34 119.724 199.34C122.059 199.34 123.949 201.409 123.949 203.958V207.438H123.955Z" fill="#7F96FC"/>
<path d="M135.08 208.135C137.48 208.135 139.425 206.012 139.425 203.392C139.425 200.772 137.48 198.648 135.08 198.648C132.68 198.648 130.734 200.772 130.734 203.392C130.734 206.012 132.68 208.135 135.08 208.135Z" fill="#7F96FC"/>
<path d="M137.338 204.387H134.888C134.71 204.387 134.57 204.234 134.57 204.04V200.859C134.57 200.665 134.71 200.512 134.888 200.512C135.067 200.512 135.207 200.665 135.207 200.859V203.693H137.338C137.516 203.693 137.656 203.845 137.656 204.04C137.656 204.234 137.516 204.387 137.338 204.387Z" fill="#324BCC"/>
<path d="M154.049 203.391H142.234V206.696H154.049V203.391Z" fill="#7F96FC"/>
<path d="M170.864 194.988H142.234V198.294H170.864V194.988Z" fill="#7F96FC"/>
<path d="M170.518 203.391H158.703V206.696H170.518V203.391Z" fill="#7F96FC"/>
<path d="M184.617 198.436H181.175C180.825 198.436 180.539 198.123 180.539 197.741C180.539 197.359 180.825 197.047 181.175 197.047H184.617C184.967 197.047 185.253 197.359 185.253 197.741C185.253 198.123 184.973 198.436 184.617 198.436Z" fill="#324BCC"/>
<path d="M184.617 201.389H181.175C180.825 201.389 180.539 201.076 180.539 200.694C180.539 200.313 180.825 200 181.175 200H184.617C184.967 200 185.253 200.313 185.253 200.694C185.253 201.076 184.973 201.389 184.617 201.389Z" fill="#324BCC"/>
<path d="M184.617 204.338H181.175C180.825 204.338 180.539 204.026 180.539 203.644C180.539 203.262 180.825 202.949 181.175 202.949H184.617C184.967 202.949 185.253 203.262 185.253 203.644C185.253 204.026 184.973 204.338 184.617 204.338Z" fill="#324BCC"/>
<path d="M190.588 218.621H110.992V237.685H190.588V218.621Z" fill="#1933AE"/>
<path d="M128.456 218.621H110.992V237.685H128.456V218.621Z" fill="#324BCC"/>
<path d="M119.709 226.809C121.076 226.809 122.184 225.6 122.184 224.108C122.184 222.616 121.076 221.406 119.709 221.406C118.342 221.406 117.234 222.616 117.234 224.108C117.234 225.6 118.342 226.809 119.709 226.809Z" fill="#7F96FC"/>
<path d="M123.955 234.899H115.5V231.42C115.5 228.871 117.396 226.809 119.724 226.809C122.059 226.809 123.949 228.871 123.949 231.42V234.899H123.955Z" fill="#7F96FC"/>
<path d="M135.08 235.6C137.48 235.6 139.425 233.476 139.425 230.857C139.425 228.237 137.48 226.113 135.08 226.113C132.68 226.113 130.734 228.237 130.734 230.857C130.734 233.476 132.68 235.6 135.08 235.6Z" fill="#7F96FC"/>
<path d="M137.338 231.844H134.888C134.71 231.844 134.57 231.691 134.57 231.497V228.316C134.57 228.122 134.71 227.969 134.888 227.969C135.067 227.969 135.207 228.122 135.207 228.316V231.15H137.338C137.516 231.15 137.656 231.302 137.656 231.497C137.656 231.691 137.516 231.844 137.338 231.844Z" fill="#324BCC"/>
<path d="M154.049 230.855H142.234V234.161H154.049V230.855Z" fill="#7F96FC"/>
<path d="M170.864 222.453H142.234V225.759H170.864V222.453Z" fill="#7F96FC"/>
<path d="M170.518 230.855H158.703V234.161H170.518V230.855Z" fill="#7F96FC"/>
<path d="M184.617 225.893H181.175C180.825 225.893 180.539 225.58 180.539 225.198C180.539 224.816 180.825 224.504 181.175 224.504H184.617C184.967 224.504 185.253 224.816 185.253 225.198C185.253 225.58 184.973 225.893 184.617 225.893Z" fill="#324BCC"/>
<path d="M184.617 228.846H181.175C180.825 228.846 180.539 228.534 180.539 228.152C180.539 227.77 180.825 227.457 181.175 227.457H184.617C184.967 227.457 185.253 227.77 185.253 228.152C185.253 228.54 184.973 228.846 184.617 228.846Z" fill="#324BCC"/>
<path d="M184.617 231.803H181.175C180.825 231.803 180.539 231.491 180.539 231.109C180.539 230.727 180.825 230.414 181.175 230.414H184.617C184.967 230.414 185.253 230.727 185.253 231.109C185.253 231.491 184.973 231.803 184.617 231.803Z" fill="#324BCC"/>
<path d="M132.636 149.332H110.992V152.735H132.636V149.332Z" fill="#7F96FC"/>
<path opacity="0.42" d="M106.414 57.8086V250.601H195.178V57.8086H106.414Z" fill="#C0DCFF"/>
<path d="M186.88 88.6791C186.12 88.7385 185.394 89.1275 185.034 89.7999C184.543 90.7163 184.641 91.8701 185.053 92.8326C185.328 93.4853 185.734 94.0655 186.179 94.6193C186.559 95.094 187.338 94.9819 187.522 94.3951C187.548 94.3028 187.574 94.2039 187.587 94.105C187.744 92.8854 187.901 91.6591 188.065 90.4394C188.157 89.6087 188.517 88.5473 186.88 88.6791Z" fill="#F9AEC7"/>
<path d="M185.196 89.023C184.437 89.0823 183.71 89.4713 183.35 90.1437C182.859 91.0601 182.957 92.2139 183.37 93.1764C183.645 93.8291 184.051 94.4093 184.496 94.9631C184.876 95.4378 185.655 95.3257 185.838 94.7389C185.864 94.6466 185.89 94.5477 185.904 94.4488C186.061 93.2292 186.218 92.0029 186.382 90.7832C186.473 89.946 186.827 88.8911 185.196 89.023Z" fill="#F9AEC7"/>
<path d="M197.023 121.954L204.586 116.66L192.355 97.7785L189.795 90.4341C189.795 90.4341 185.408 82.6019 184.753 83.037C184.098 83.4721 187.725 93.0844 187.725 93.0844L185.106 93.7174C185.106 93.7174 181.256 92.1812 180.975 93.1504C180.693 94.1195 184.779 96.8687 184.779 96.8687C184.779 96.8687 185.375 99.2421 187.346 99.8487L197.023 121.954Z" fill="#F9C7D8"/>
<path d="M225.894 60.1994C227.688 58.1094 230.254 56.8436 232.991 56.7315C238.164 56.5206 246.119 57.793 248.673 66.9438C252.353 81.1051 258.959 121.954 258.959 121.954C258.959 121.954 234.176 127.512 216.648 121.954C216.648 121.954 217.591 87.9748 223.766 64.2605C224.165 62.764 224.885 61.3729 225.894 60.1994Z" fill="#090841"/>
<path d="M203.882 115.548C203.882 115.548 211.484 104.499 219.157 96.1391C226.831 87.7795 231.676 89.7903 231.676 89.7903L232.272 101.288L209.493 126.281C206.756 129.288 202.016 129.057 199.521 125.846C197.498 123.236 196.692 121.33 195.141 117.454C196.653 115.173 199.534 113.247 202.134 112.898L203.882 115.548Z" fill="#B5164E"/>
<path d="M265.723 234.161C266.221 234.3 266.725 234.504 267.242 234.775C268.722 235.546 270.188 236.792 271.118 238.137C271.433 238.598 271.38 239.231 271.007 239.647C268.29 242.706 257.309 254.843 255.934 252.878C255.103 251.692 256.373 247.69 257.754 244.196C258.972 241.104 260.269 238.401 260.269 238.401L229.037 212.188C227.059 210.526 225.573 208.364 224.728 205.918L217.559 185.157L237.195 179.461V202.859C237.201 202.859 252.667 213.928 265.723 234.161Z" fill="#F9AEC7"/>
<path d="M271.132 238.132C271.447 238.593 271.394 239.226 271.021 239.642C268.304 242.701 257.323 254.838 255.948 252.873C255.117 251.687 256.387 247.685 257.769 244.191C259.124 244.613 260.047 245.918 260.047 245.918C260.663 245.634 264.644 241.679 266.241 238.844C267.099 237.328 267.269 235.831 267.25 234.77C268.729 235.547 270.203 236.787 271.132 238.132Z" fill="#090841"/>
<path d="M253.639 255.572C253.894 256.02 254.11 256.528 254.294 257.081C254.805 258.677 254.981 260.602 254.706 262.217C254.608 262.771 254.13 263.18 253.574 263.213C249.507 263.463 233.224 264.32 233.616 261.953C233.852 260.523 237.552 258.578 240.976 257.068C244.001 255.73 246.81 254.728 246.81 254.728L237.211 186.598H256.435L252.945 210.556C252.945 210.556 258.478 231.943 253.639 255.572Z" fill="#F9C7D8"/>
<path d="M254.706 262.215C254.608 262.769 254.13 263.178 253.574 263.211C249.507 263.461 233.224 264.318 233.616 261.952C233.852 260.521 237.552 258.576 240.976 257.066C241.644 258.326 241.388 259.908 241.388 259.908C242.024 260.145 247.615 260.145 250.732 259.262C252.402 258.787 253.567 257.844 254.294 257.08C254.805 258.675 254.981 260.6 254.706 262.215Z" fill="#090841"/>
<path d="M269.099 131.289L275.744 157.304C275.744 157.304 279.896 160.733 279.241 161.392C278.586 162.051 276.131 159.908 276.131 159.908C276.131 159.908 277.604 163.205 276.949 163.699C276.294 164.194 274.448 160.851 274.448 160.851C274.448 160.851 275.227 164.8 274.448 164.879C273.669 164.959 273.106 161.28 273.106 161.28C273.106 161.28 273.027 165.367 272.143 165.367C271.259 165.367 271.502 161.359 271.502 161.359C271.502 161.359 270.218 164.345 269.419 163.858C268.621 163.376 270.46 159.341 270.46 159.341L260.691 135.073L269.099 131.289Z" fill="#F9C7D8"/>
<path d="M262.105 193.849C262.105 193.849 231.547 202.862 211.086 187.204L227.128 116.826C227.128 116.826 220.907 113.364 222.544 105.783C224.181 98.2009 228.273 89.7951 228.273 89.7951L237.768 88.4766L240.033 88.9381L251.518 91.4433L254.137 129.352C254.137 129.352 261.339 140.395 262.812 154.899C264.285 169.403 262.105 193.849 262.105 193.849Z" fill="#D41E5E"/>
<path d="M246.934 101.994L251.517 91.4455C251.517 91.4455 256.755 91.2806 261.011 101.829C265.267 112.378 270.996 134.628 270.996 134.628C270.996 134.628 268.704 137.76 261.666 138.914L246.934 101.994Z" fill="#D41E5E"/>
<path d="M237.284 93.4683C235.13 94.2397 232.943 93.62 232.393 92.0838C231.981 90.9103 232.629 89.5522 233.899 88.6226V78.2719L240.034 77.0391V88.9391C240.093 89.0446 240.146 89.1566 240.185 89.2753C240.735 90.8114 239.432 92.6904 237.284 93.4683Z" fill="#F9C7D8"/>
<path d="M240.034 77.0391V85.2141C237.198 87.0667 234.265 87.2315 234.265 87.2315C234.141 87.159 234.016 87.0799 233.898 86.9942V78.2719L240.034 77.0391Z" fill="#F9AEC7"/>
<path d="M227.585 63.5156C227.585 63.5156 226.727 66.9109 224.455 67.1549C224.455 67.1549 223.349 78.6395 231.258 83.3929C231.258 83.3929 241.191 82.8391 242.173 72.2181C242.173 72.2181 241.558 71.0446 236.595 69.3766C231.631 67.7152 228.626 66.1132 227.585 63.5156Z" fill="#F9C7D8"/>
<path d="M262.105 193.848C262.105 193.848 231.547 202.86 211.086 187.202L227.128 116.824C227.128 116.824 231.56 120.319 236.288 114.523C236.288 114.523 235.45 122.811 228.542 121.954L217.568 181.302C217.568 181.302 225.962 197.85 262.105 193.848Z" fill="#B5164E"/>
<path d="M252.337 92.1211C250.681 98.9381 250.687 106.164 252.344 112.981C248.998 106.342 248.664 98.5754 252.337 92.1211Z" fill="#B5164E"/>
<path d="M236.29 114.523C236.29 114.523 234.109 121.248 248.357 118.927C248.357 118.927 241.266 126.278 232.27 118.927C234.123 118.202 235.334 116.554 236.29 114.523Z" fill="#B5164E"/>
<path d="M358.915 264.711H20.085C19.4861 264.711 19 264.487 19 264.211C19 263.935 19.4861 263.711 20.085 263.711H358.915C359.514 263.711 360 263.935 360 264.211C360 264.487 359.514 264.711 358.915 264.711Z" fill="#2E5B99"/>
</svg>
