<svg width="384" height="258" viewBox="0 0 384 258" fill="none" xmlns="http://www.w3.org/2000/svg">
<path d="M362.915 258H24.085C23.4861 258 23 257.776 23 257.5C23 257.224 23.4861 257 24.085 257H362.915C363.514 257 364 257.224 364 257.5C364 257.776 363.514 258 362.915 258Z" fill="#2E5B99"/>
<path d="M53.3686 256.679C31.9773 247.451 1.95498 195.44 44.638 146.614C71.3024 116.094 29.3905 51.4972 108.14 11.2519C159.579 -15.0643 272.281 3.93904 333.221 77.1667C374.635 126.939 375.58 200.166 342.971 256.007L53.3686 256.679Z" fill="#F4F9FF"/>
<path d="M241.223 120.492V112.278C241.223 108.547 243.86 105.523 247.115 105.523H309.854C313.109 105.523 315.748 108.547 315.748 112.278V257.475H153.461V120.492H241.223Z" fill="white"/>
<path d="M240.703 120.492V112.278C240.703 108.547 243.341 105.523 246.595 105.523H309.334C312.59 105.523 315.229 108.547 315.229 112.278V257.475H152.941V120.492H240.703Z" fill="#0F4599"/>
<path d="M309.788 126.168V257.476H159.453V125.523L309.788 126.168Z" fill="#BAE2FF"/>
<path d="M301.538 126.168V257.476H151.203V125.523L301.538 126.168Z" fill="#1480CC"/>
<path d="M145.144 120.496H293.665C296.713 120.496 298.958 122.86 299.396 126.129V257.479H137.301V129.462C137.264 124.744 140.979 120.496 145.144 120.496Z" fill="white"/>
<path d="M199.621 169.253L286.426 169.531L286.611 93.9352L199.806 93.6566L199.621 169.253Z" fill="#EBF3FF"/>
<path d="M201.893 165.626L284.258 165.891L284.428 96.3934L202.063 96.1291L201.893 165.626Z" fill="#3397FF"/>
<path d="M277.317 160.29L224.387 160.121L253.327 128.305L277.317 160.29Z" fill="#E3EEFF"/>
<path d="M253.247 160.215L208.773 160.073L232.906 133.777L253.247 160.215Z" fill="#E3EEFF"/>
<path d="M241.125 126.197C243.518 123.454 243.518 119.007 241.125 116.263C238.731 113.52 234.849 113.52 232.456 116.263C230.062 119.007 230.062 123.454 232.456 126.197C234.849 128.941 238.731 128.941 241.125 126.197Z" fill="#E3EEFF"/>
<path d="M188.067 160.197L268.543 160.492L268.767 80.2947L188.292 79.9991L188.067 160.197Z" fill="#EBF3FF"/>
<path d="M190.407 156.352L266.312 156.633L266.52 82.9067L190.615 82.6263L190.407 156.352Z" fill="#3397FF"/>
<path d="M259.058 93.0859H228.828V96.1295H259.058V93.0859Z" fill="#CCE5FF"/>
<path d="M197.558 104.348L259.062 104.348V101.304L197.558 101.304V104.348Z" fill="#CCE5FF"/>
<path d="M197.558 112.715L259.062 112.715V109.671L197.558 109.671V112.715Z" fill="#CCE5FF"/>
<path d="M144.43 120.496H292.951C295.999 120.496 298.244 122.86 298.682 126.129V257.949H136.586V129.462C136.55 124.744 140.265 120.496 144.43 120.496Z" fill="#66B8FF"/>
<path d="M299.398 257.477H315.754V256.721H299.398V257.477Z" fill="white"/>
<path opacity="0.5" d="M315.751 176.051L309.793 180.504H301.922L299.396 182.732V180.616H137.301V176.051H315.751Z" fill="black"/>
<path d="M133.999 178.09L318.055 178.09V154.259L133.999 154.259V178.09Z" fill="#61B3F2"/>
<path d="M133.998 178.09L301.484 178.09V154.259L133.998 154.259V178.09Z" fill="#2E97E6"/>
<path d="M255.182 154.262V178.085H240.629L250.832 154.262H255.182Z" fill="#0E0E0E"/>
<path d="M250.148 166.147C250.148 169.443 250.651 172.427 251.496 174.574C252.32 176.772 253.467 178.08 254.733 178.08H258.597V154.266H254.733C252.199 154.266 250.148 159.604 250.148 166.147ZM253.808 170.073C253.085 169.811 252.522 168.189 252.522 166.148C252.522 164.159 253.085 162.537 253.808 162.275C254.533 162.537 255.096 164.16 255.096 166.148C255.096 168.189 254.533 169.811 253.808 170.073Z" fill="#2475B3"/>
<path d="M252.117 166.147C252.117 169.443 252.643 172.427 253.526 174.574C254.389 176.772 255.588 178.08 256.914 178.08H258.598V154.266H256.914C254.264 154.266 252.117 159.604 252.117 166.147ZM253.969 166.147C253.969 164.158 255.064 162.536 255.821 162.274C256.579 162.536 257.168 164.159 257.168 166.147C257.168 168.189 256.579 169.81 255.821 170.072C255.064 169.811 253.969 168.189 253.969 166.147Z" fill="#3F9EE6"/>
<path d="M251.996 166.15C251.996 169.447 252.499 172.431 253.343 174.578C254.167 176.776 255.315 178.084 256.581 178.084H260.445V154.27H256.581C254.048 154.27 251.996 159.608 251.996 166.15ZM255.656 170.077C254.933 169.815 254.369 168.193 254.369 166.152C254.369 164.163 254.932 162.541 255.656 162.279C256.38 162.541 256.943 164.164 256.943 166.152C256.943 168.193 256.38 169.815 255.656 170.077Z" fill="#2475B3"/>
<path d="M253.969 166.15C253.969 169.447 254.495 172.431 255.378 174.578C256.241 176.776 257.44 178.084 258.766 178.084H260.449V154.27H258.766C256.116 154.27 253.969 159.608 253.969 166.15ZM255.821 166.15C255.821 164.162 256.41 162.54 257.167 162.278C257.925 162.54 258.515 164.163 258.515 166.15C258.515 168.193 257.925 169.813 257.167 170.075C256.41 169.815 255.821 168.193 255.821 166.15Z" fill="#61B3F2"/>
<path d="M256.564 178.238C256.399 178.238 255.457 178.188 254.462 177.093C253.332 175.849 251.984 173.041 251.984 166.721C251.984 160.7 253.213 157.601 254.243 156.061C255.378 154.366 256.511 154.125 256.559 154.115C256.633 154.101 256.702 154.157 256.715 154.242C256.727 154.326 256.679 154.407 256.605 154.422C256.594 154.424 255.511 154.661 254.44 156.278C253.443 157.782 252.255 160.814 252.255 166.721C252.255 172.916 253.551 175.653 254.638 176.857C255.627 177.952 256.569 177.93 256.576 177.927C256.652 177.924 256.713 177.991 256.716 178.076C256.719 178.161 256.661 178.234 256.587 178.237C256.585 178.238 256.577 178.238 256.564 178.238Z" fill="#1A5380"/>
<path d="M257.164 169.757C257.347 169.809 257.483 169.861 257.666 169.914C257.62 169.966 257.62 169.966 257.666 169.966C265.02 172.479 270.455 180.224 270.455 189.489V209.383H276.301V189.489C276.301 176.613 268.399 165.832 257.849 163.109C257.62 163.005 257.391 162.952 257.164 162.901C255.473 162.482 255.336 169.443 257.164 169.757Z" fill="#E6E6E6"/>
<path d="M250.244 162.543V169.205C242.708 170.317 236.624 176.723 235.005 185.096C234.958 185.305 234.914 185.462 234.914 185.619C234.822 186.091 234.777 186.509 234.731 186.98C234.639 187.817 234.594 188.656 234.594 189.493V209.387H228.793V189.493C228.793 175.422 238.229 163.894 250.244 162.543Z" fill="#E6E6E6"/>
<path d="M257.028 167.789C270.737 170.543 272.502 187.646 272.502 187.646V209.385H270.446V189.491C270.446 180.032 264.785 172.125 257.168 169.768C256.585 169.551 256.223 167.598 256.223 167.598C256.223 167.598 256.582 167.691 257.028 167.789Z" fill="#999999"/>
<path d="M250.243 167.789V169.205C242.707 170.317 236.623 176.723 235.004 185.096C235.332 180.209 238.868 169.53 250.243 167.789Z" fill="#808080"/>
<path d="M257.164 169.757C257.347 169.809 257.483 169.861 257.666 169.914C257.529 169.495 256.786 168.543 256.694 166.556C256.603 164.514 257.207 163.134 257.849 163.109C257.62 163.005 257.391 162.952 257.164 162.901C255.473 162.482 255.336 169.443 257.164 169.757Z" fill="#666666"/>
<path d="M281.321 203.957H223.727V257.908H281.321V203.957Z" fill="#F7AF0C"/>
<path d="M253.393 217.283C253.21 217.23 253.027 217.23 252.844 217.23C248.917 217.23 245.719 220.876 245.719 225.42C245.719 228.748 247.455 231.602 249.921 232.922V246.818C249.921 248.668 251.245 250.2 252.843 250.2C252.981 250.2 253.163 250.2 253.301 250.148H253.437C254.762 249.83 255.768 248.457 255.768 246.819V232.923C258.233 231.655 259.969 228.749 259.969 225.422C259.97 221.087 257.093 217.6 253.393 217.283Z" fill="#CC840A"/>
<path d="M253.397 217.285C249.698 217.548 246.773 221.089 246.773 225.422C246.773 228.749 248.51 231.603 250.976 232.923V246.819C250.976 248.457 251.981 249.831 253.306 250.148H253.442C254.767 249.83 255.773 248.457 255.773 246.819V232.923C258.238 231.655 259.974 228.749 259.974 225.422C259.974 221.089 257.097 217.602 253.397 217.285Z" fill="#803D00"/>
<path d="M242.003 257.908H223.727V203.957H228.797C228.797 203.958 227.45 243.765 242.003 257.908Z" fill="#E6950B"/>
<path d="M268.953 257.908C273.318 247.205 272.504 218.431 272.504 203.957H278.305V257.908H268.953Z" fill="#F7E4AD"/>
<path d="M181.153 204.6C181.153 204.6 175.035 204.373 169.007 204.703C162.746 205.054 156.575 206.001 157.456 208.477C157.654 209.034 157.69 209.569 157.583 210.105C156.324 216.724 133.491 221.672 128.453 217.61C124.692 214.578 114.329 218.475 110.083 220.578C101.996 158.55 101.77 95.1384 108.931 90.727C116.092 86.3348 135.937 91.9022 135.937 91.9022C135.937 91.9022 145.995 94.954 150.097 126.479C154.218 157.982 181.153 204.6 181.153 204.6Z" fill="#4582E6"/>
<path d="M157.455 208.473C157.652 209.03 157.688 209.565 157.581 210.101C151.392 188.472 136.818 126.681 142.108 143.526C147.182 159.772 163.105 192.678 169.006 204.699C162.744 205.05 156.572 205.998 157.455 208.473Z" fill="#3D73CC"/>
<path d="M108.192 107.124C102.308 115.37 101.229 117.371 95.7234 117.804C97.5767 119.144 98.6738 120.958 99.43 122.917H99.4479C101.068 126.979 101.301 131.72 104.126 134.381L100.744 138.195L99.8802 139.185C99.8802 139.185 99.754 139.061 99.5384 138.834C98.0627 137.267 92.1977 130.937 88.7068 125.123C86.6557 121.742 85.4146 118.545 86.2781 116.546C87.6812 110.731 91.2806 98.7939 100.438 95.2262C106.447 87.7424 112.331 91.7621 114.417 94.8754C117.206 99.041 114.398 107.948 108.192 107.124Z" fill="#002E73"/>
<path d="M104.127 134.378L100.744 138.193L99.5386 138.831C98.1534 137.346 92.8638 131.656 89.3371 126.13C89.1214 125.8 88.9048 125.45 88.707 125.12C90.452 125.099 96.0655 124.934 99.4303 122.914H99.4482C99.5923 123.265 99.7185 123.614 99.8258 123.965C101.122 127.759 101.536 131.944 104.127 134.378Z" fill="#231F20"/>
<path d="M99.8268 123.965C96.1023 126.564 91.8383 126.481 89.3371 126.13C89.1214 125.8 88.9048 125.45 88.707 125.12C90.452 125.099 96.0655 124.934 99.4303 122.914H99.4482C99.5923 123.265 99.7185 123.614 99.8268 123.965Z" fill="#66B8FF"/>
<path d="M101.587 130.859C101.587 130.859 105.441 131.269 106.607 132.432C107.582 133.404 106.987 134.616 106.987 134.616C109.061 135.953 106.987 141.137 103.365 142.416C99.744 143.696 97.3711 135.878 97.3711 135.878C97.3711 135.878 97.9222 131.138 101.587 130.859Z" fill="#231F20"/>
<path d="M150.205 256.655H137.131C136.862 256.479 136.663 256.28 136.545 256.053C135.872 244.91 134.902 239.545 134.902 239.545L144.008 239.121L146.069 247.41C149.12 249.799 152.756 254.925 150.205 256.655Z" fill="#231F20"/>
<path d="M136.14 256.856H151.639C152.033 256.856 151.9 254.387 151.508 254.387L136.101 254.487C135.696 254.486 135.736 256.856 136.14 256.856Z" fill="#231F20"/>
<path d="M130.741 137.982C132.856 144.505 141.858 174.39 139.289 195.904C142.824 210.213 141.714 222.332 144.901 243.227L135.622 243.788C131.85 218.292 127.7 223.158 126.499 197.909C118.853 178.112 114.888 159.357 112.852 140.048C110.874 125.492 126.469 117.847 130.741 137.982Z" fill="#002E73"/>
<path d="M135.72 244.871C135.72 244.871 135.026 237.284 130.66 222.79C129.304 218.337 128.57 215.388 128.188 213.574C127.805 211.739 127.758 211.039 127.758 211.039C130.059 207.987 132.98 203.39 135.574 197.863C138.414 202.956 141.792 208.049 141.792 208.049C141.792 208.049 141.878 209.245 142.032 211.204C142.717 219.409 144.557 241.1 145.667 245.697C147.04 251.386 138.413 254.624 135.72 244.871Z" fill="#231F20"/>
<path d="M142.033 211.202C140.551 209.305 137.883 205.739 135.651 201.842C134.639 206.049 130.389 211.141 128.188 213.574C127.805 211.739 127.758 211.039 127.758 211.039C130.059 207.987 132.98 203.39 135.574 197.863C138.414 202.956 141.792 208.049 141.792 208.049C141.792 208.049 141.879 209.244 142.033 211.202Z" fill="#66B8FF"/>
<path d="M119.769 140.747C119.114 169.158 114.694 193.289 114.694 193.289C116.565 212.672 112.311 216.285 110.388 244.014L102.001 243.887C101.98 232.632 101.41 218.693 100.813 196.126C95.5331 172.541 98.0764 155.17 100.045 141.072C102.146 125.057 121.109 119.757 119.769 140.747Z" fill="#002E73"/>
<path d="M110.392 244.014C111.14 248.606 111.677 252.188 111.363 256.342L91.0511 256.796C91.0511 256.796 89.0401 254.551 91.5686 251.186C94.0961 247.82 98.8966 249.767 102.006 243.887L110.392 244.014Z" fill="#231F20"/>
<path d="M90.1252 256.856H111.705C112.099 256.856 111.996 254.387 111.602 254.387L90.1136 254.487C89.7097 254.486 89.7213 256.856 90.1252 256.856Z" fill="#231F20"/>
<path d="M114.424 212.667C114.424 212.667 114.279 213.491 114.032 214.894C113.011 221.017 110.27 238.11 110.591 245.801C106.778 251.017 101.822 245.223 101.822 245.223L99.8242 202.977L99.6875 200.133C105.065 206.977 110.652 210.626 114.424 212.667Z" fill="#231F20"/>
<path d="M114.424 212.667C114.424 212.667 114.279 213.491 114.032 214.894C106.624 212.42 102.063 206.605 99.8242 202.977L99.6875 200.133C105.065 206.977 110.652 210.626 114.424 212.667Z" fill="#66B8FF"/>
<path d="M100.667 139.403C100.667 144.316 131.112 142.894 131.112 137.981C131.01 129.875 131.987 123.205 133.317 117.691C142.445 107.443 141.901 99.4881 139.588 95.1731C135.6 87.7315 115.45 88.1534 108.196 91.3523C105.315 92.6227 101.446 97.797 100.209 106.046C99.5728 110.288 102.298 115.226 102.729 118.655C103.725 126.588 100.87 138.263 100.667 139.403Z" fill="#002E73"/>
<path d="M119.655 94.729C121.157 93.3622 127.149 91.2517 128.743 89.7571L128.384 77.8366L122.491 77.1797C120.782 77.3424 119.074 77.8113 117.605 78.4766L116.278 86.3256L115.986 88.0275C115.318 89.7028 116.64 91.7229 119.655 94.729Z" fill="#F7A594"/>
<path d="M126.392 80.5368C125.468 82.1663 121.598 86.3403 116.27 86.3259L117.417 79.5352L126.392 80.5368Z" fill="#E6836F"/>
<path d="M113.369 64.832C112.907 67.1799 111.955 72.3362 112.111 74.7107C112.347 78.3254 115.295 82.3355 117.864 82.861C120.839 83.2081 124.848 82.1932 127.025 80.0502C128.237 78.423 130.583 74.5624 131.662 71.184C133.913 64.1365 129.567 57.9557 124.054 56.5286C118.539 55.1003 114.81 57.511 113.369 64.832Z" fill="#F7A594"/>
<path d="M129.818 75.8405C130.968 73.5215 129.44 72.5825 127.765 74.3821C128.051 72.632 129.792 67.5058 128.25 65.8051C126.508 63.832 118.843 64.6914 114.727 59.7713C114.727 59.7713 117.796 52.061 127.868 56.6146C139.245 63.5271 129.818 75.8405 129.818 75.8405Z" fill="#73382A"/>
<path d="M131.368 76.4548C132.245 75.246 132.291 73.6333 131.471 72.8526C130.651 72.072 129.276 72.419 128.4 73.6278C127.523 74.8365 127.477 76.4493 128.297 77.2299C129.117 78.0106 130.492 77.6636 131.368 76.4548Z" fill="#F7A594"/>
<path d="M116.318 85.637C117.325 87.6981 127.683 86.6266 128.618 84.8945L129.193 91.4888L119.555 97.754L114.52 91.4068L116.318 85.637Z" fill="#002E73"/>
<path d="M133.336 63.7533C133.052 57.981 123.303 49.8356 116.311 52.8597C111.593 54.8991 112.7 60.6375 116.807 61.7211C120.429 62.6769 130.459 57.7014 133.336 63.7533Z" fill="#231F20"/>
<path d="M115.44 52.8771C115.44 52.8771 115.647 51.2306 116.422 50C110.95 54.1077 113.674 59.0193 113.738 59.229C115.908 51.6778 121.086 52.0249 122.924 52.0514C118.194 49.501 115.487 52.6517 115.44 52.8771Z" fill="#231F20"/>
<path d="M100.289 141.07C108.231 144.996 126.58 144.132 132.064 141.125L133.466 146.447C121.535 149.67 110.121 149.761 99.2852 146.346L100.289 141.07Z" fill="#66B8FF"/>
<path d="M153.444 128.586C148.19 135.039 137.107 142.4 137.107 142.4L133.707 136.792C137.234 134.564 139.176 128.792 142.541 124.833C143.693 123.472 145.006 122.338 146.589 121.595C141.227 120.008 138.528 118.482 134.066 109.142C127.823 108.647 126.473 99.2873 129.874 95.8016C132.429 93.1836 138.87 90.4416 143.584 99.0595C152.005 104.482 155.603 116.316 156.053 122.338C156.467 124.05 155.333 126.256 153.444 128.586Z" fill="#002E73"/>
<path d="M136.752 133.856C136.752 133.856 132.898 133.452 131.565 134.35C130.452 135.101 130.844 136.419 130.844 136.419C128.592 137.298 129.803 142.828 133.16 144.845C136.516 146.861 140.095 139.673 140.095 139.673C140.095 139.673 140.309 134.898 136.752 133.856Z" fill="#231F20"/>
<path d="M153.44 128.585C153.116 128.977 152.775 129.389 152.415 129.781C146.873 135.926 137.104 142.399 137.104 142.399L133.703 136.791C136.744 134.873 138.597 130.338 141.206 126.585C141.619 125.966 142.069 125.389 142.537 124.832C143.851 125.719 147.773 128.09 153.44 128.585Z" fill="#231F20"/>
<path d="M153.438 128.585C153.114 128.977 152.772 129.389 152.412 129.781C147.662 129.513 143.201 127.555 141.203 126.585C141.616 125.966 142.067 125.389 142.535 124.832C143.848 125.719 147.771 128.09 153.438 128.585Z" fill="#66B8FF"/>
<path d="M122.598 104.543C122.6 104.523 122.601 104.514 122.601 104.512C122.601 104.515 122.598 104.543 122.598 104.543Z" fill="#D9FFFF"/>
<path d="M122.598 104.543C122.6 104.523 122.601 104.514 122.601 104.512C122.601 104.515 122.598 104.543 122.598 104.543Z" fill="#D9FFFF"/>
<path d="M113.086 102.977C113.086 102.977 113.089 102.949 113.089 102.945C113.089 102.947 113.088 102.956 113.086 102.977Z" fill="#D9FFFF"/>
<path d="M113.086 102.977C113.086 102.977 113.089 102.949 113.089 102.945C113.089 102.947 113.088 102.956 113.086 102.977Z" fill="#D9FFFF"/>
<path d="M118.176 100.445C119.122 102.152 120.758 103.696 122.592 104.548C122.576 104.71 122.484 105.605 122.06 109.733C121.495 115.24 117.115 117.233 116.435 117.538C115.858 117.07 111.995 113.68 112.56 108.171C112.984 104.043 113.076 103.148 113.092 102.986C115.039 102.756 116.917 101.789 118.176 100.445Z" fill="white"/>
<path d="M117.671 103.375C117.669 103.377 117.665 103.38 117.662 103.382C116.748 104.21 115.542 104.784 114.255 104.996L113.895 108.518C113.73 110.13 114.086 111.668 114.954 113.09C115.5 113.984 116.105 114.593 116.44 114.895C116.455 114.909 116.471 114.923 116.484 114.935C116.857 114.763 117.597 114.365 118.337 113.645C119.463 112.551 120.117 111.179 120.282 109.568L120.643 106.046C119.442 105.423 118.388 104.474 117.671 103.375Z" fill="#F7AF0C"/>
<path opacity="0.8" d="M371.72 163L368 159.364L376.56 151.003L368 142.636L371.72 139L380.28 147.367L384 151.003L380.28 154.638L371.72 163Z" fill="#474747"/>
<path opacity="0.8" d="M12.2802 139L16 142.636L7.43966 150.997L16 159.364L12.2802 163L3.71983 154.633L0 150.997L3.71983 147.362L12.2802 139Z" fill="#474747"/>
<path d="M115.056 89.6445C115.573 91.1656 117.296 92.5071 119.239 93.8125C123.187 93.0724 126.215 91.6719 129.178 89.6855C132.093 89.6698 134.19 90.9547 136.346 91.9033L119.136 95.113L109.027 90.7402C110.373 90.1797 112.297 89.8 115.056 89.6445Z" fill="#66B8FF"/>
<path d="M123.408 131.208C123.408 131.208 123.407 131.077 123.407 131.059C123.405 131.068 123.407 131.112 123.408 131.208Z" fill="#D9FFFF"/>
<path d="M123.408 131.208C123.408 131.208 123.407 131.077 123.407 131.059C123.405 131.068 123.407 131.112 123.408 131.208Z" fill="#D9FFFF"/>
<path d="M148.598 115.113C154.557 122.298 164.032 128.152 174.151 130.601C174.158 131.372 174.199 135.635 174.391 155.29C174.645 181.509 152.843 194.486 149.458 196.478C146.158 194.774 123.932 182.148 123.677 155.929C123.487 136.274 123.445 132.009 123.438 131.24C133.504 128.538 142.78 122.446 148.598 115.113Z" fill="white"/>
<path d="M148.682 119.852C154.511 125.871 162.566 130.576 171.409 133.108L171.624 155.323C171.723 165.487 168.236 174.71 161.26 182.735C156.676 188.008 151.844 191.293 149.39 192.773C149.284 192.712 149.167 192.644 149.052 192.577L148.633 119.906C148.649 119.887 148.666 119.87 148.682 119.852Z" fill="#007880"/>
<path d="M148.632 119.902L149.052 192.574C146.483 191.075 141.812 187.97 137.328 183.034C130.198 175.187 126.533 166.055 126.434 155.89L126.219 133.675C134.985 130.931 142.925 126.043 148.632 119.902Z" fill="#008F99"/>
<path d="M138.562 152.002L138.662 169.213C138.674 171.129 159.187 170.975 159.175 169.058L159.075 151.848L138.562 152.002ZM146.323 158.441C146.313 156.844 147.436 155.547 148.836 155.537C150.236 155.526 151.382 156.806 151.39 158.403C151.397 159.57 150.786 160.589 149.909 161.047L149.938 165.935C149.942 166.585 149.481 167.129 148.903 167.132C148.333 167.137 147.867 166.601 147.863 165.951L147.834 161.073C146.943 160.627 146.329 159.618 146.323 158.441Z" fill="white"/>
<path d="M140.35 150.76L142.427 150.744L142.42 149.586C142.397 145.571 145.242 142.282 148.762 142.255C152.282 142.229 155.165 145.474 155.188 149.49L155.195 150.648L157.271 150.632L157.264 149.474C157.234 144.153 153.414 139.852 148.748 139.887C144.083 139.922 140.313 144.28 140.344 149.602L140.35 150.76Z" fill="white"/>
</svg>
