<svg width="29" height="29" viewBox="0 0 29 29" fill="none" xmlns="http://www.w3.org/2000/svg">
<path d="M21.3653 13.1475C21.3653 13.6174 21.0107 13.9982 20.5733 13.9982C20.136 13.9982 19.7812 13.6174 19.7812 13.1475C19.7812 12.6779 20.136 12.2969 20.5733 12.2969C21.0107 12.2969 21.3653 12.6779 21.3653 13.1475Z" fill="#1F4EAD"/>
<path d="M20.5721 4.09766C18.9643 4.09766 17.6602 5.49504 17.6602 7.22516V7.22627C17.6602 7.6959 18.0147 8.07648 18.4522 8.07648C18.8897 8.07648 19.2442 7.69502 19.2442 7.22516C19.2442 6.43874 19.8364 5.79898 20.5731 5.79898C21.3058 5.79898 21.9018 6.43919 21.9018 7.22627C21.9018 8.01313 21.3058 8.65334 20.5731 8.65334C20.1357 8.65334 19.7811 9.03436 19.7811 9.504V10.4151C19.7811 10.885 20.1357 11.2658 20.5731 11.2658C21.0104 11.2658 21.3652 10.885 21.3652 10.4151V10.2372C22.5876 9.86575 23.4859 8.65644 23.4859 7.22627C23.4859 5.50102 22.1793 4.09766 20.5721 4.09766Z" fill="#1F4EAD"/>
<path d="M8.24143 21.7739H5.34486C2.94527 21.7739 1 23.8632 1 26.4405V27.9961H12.5863V26.4405C12.5863 23.8632 10.641 21.7739 8.24143 21.7739Z" stroke="#1F4EAD" stroke-width="1.5" stroke-miterlimit="10" stroke-linecap="round" stroke-linejoin="round"/>
<path d="M10.6539 18.1438C10.6539 20.1484 8.92475 21.7734 6.79179 21.7734C4.65883 21.7734 2.92969 20.1484 2.92969 18.1438C2.92969 16.1392 4.65883 14.5142 6.79179 14.5142C8.92475 14.5142 10.6539 16.1392 10.6539 18.1438Z" stroke="#1F4EAD" stroke-width="1.5" stroke-miterlimit="10" stroke-linecap="round" stroke-linejoin="round"/>
<path d="M25.6618 0H15.4816C13.6385 0 12.1445 1.60163 12.1445 3.58407V19.9847C12.1445 20.6806 12.8875 21.0875 13.4118 20.6653L16.5939 18.102H25.6618C27.5049 18.102 28.9988 16.5004 28.9988 14.5179V3.58407C28.9988 1.60451 27.5076 0 25.6618 0ZM27.4148 14.5179C27.4148 15.5587 26.6312 16.4007 25.6618 16.4007H16.3299C16.1585 16.4007 15.9918 16.4605 15.8547 16.5708L13.7286 18.2834V3.58407C13.7286 2.54334 14.5122 1.70132 15.4816 1.70132H25.6618C26.6308 1.70132 27.4148 2.5429 27.4148 3.58407V14.5179Z" fill="#1F4EAD"/>
</svg>
